<svg width="50" height="50" viewBox="0 0 50 50" fill="none" xmlns="http://www.w3.org/2000/svg">
<path d="M25.0002 49.1673C38.347 49.1673 49.1668 38.3475 49.1668 25.0007C49.1668 11.6538 38.347 0.833984 25.0002 0.833984C11.6533 0.833984 0.833496 11.6538 0.833496 25.0007C0.833496 38.3475 11.6533 49.1673 25.0002 49.1673Z" fill="#FFD54F"/>
<path d="M24.9998 47.9596C37.6794 47.9596 47.9582 37.6808 47.9582 25.0013C47.9582 12.3218 37.6794 2.04297 24.9998 2.04297C12.3203 2.04297 2.0415 12.3218 2.0415 25.0013C2.0415 37.6808 12.3203 47.9596 24.9998 47.9596Z" fill="#1A237E"/>
<path d="M26.4609 6.1665C26.8162 6.09279 27.482 5.71579 27.482 4.92192C27.482 3.73292 26.4114 3.3535 25.7396 3.3535L23.6479 3.32812V7.98263H25.0665V6.41421L26.212 7.98263L28.0789 8.25571L26.4609 6.1665ZM25.4907 5.49346H25.0424L25.017 4.37333L25.4399 4.34796C25.8266 4.34796 26.0997 4.61017 26.1117 4.89533C26.125 5.18171 25.9269 5.49346 25.4907 5.49346Z" fill="#FFD54F"/>
<path d="M32.6619 4.66645C32.4855 4.63219 32.3063 4.61439 32.1266 4.61328L32.0505 4.61449C30.8277 4.63987 29.7909 5.38057 29.5444 6.59253C29.2967 7.79966 30.3939 9.22791 31.7339 9.53241C33.1887 9.86228 34.5445 9.17232 34.8502 7.60511C35.1124 6.26386 34.1264 4.94557 32.6619 4.66645ZM31.9732 8.27332C31.2663 8.1392 30.9171 7.45528 31.0415 6.80641C31.1491 6.2397 31.5539 5.89895 32.1592 5.90136C32.245 5.90136 32.3332 5.90982 32.4215 5.92674C33.1283 6.06086 33.5766 6.67228 33.4534 7.31995C33.3289 7.96641 32.68 8.40745 31.9732 8.27332Z" fill="#FFD54F"/>
<path d="M14.9611 5.84375L13.6924 6.51558L14.2893 11.767L15.6342 10.7713L15.4602 9.97504L16.9283 9.10383L17.6001 9.60167L19.1444 8.97938L14.9611 5.84375ZM15.3091 8.78L15.0107 7.51125L16.08 8.33292L15.3091 8.78Z" fill="#FFD54F"/>
<path d="M38.6819 8.18359L34.6992 10.9471L35.8689 11.8666L37.7853 10.3743L36.8138 12.7873L37.3116 13.2598L39.7525 12.2653L38.2831 14.2567L39.1797 15.5254L41.9915 11.4932L41.0961 10.4238L38.8063 11.3446L39.7271 9.02943L38.6819 8.18359Z" fill="#FFD54F"/>
<path d="M10.1315 9.30273L8.19092 11.5418L11.5767 14.5529L12.5228 13.4594L11.2275 12.3139L12.1736 11.2929L11.3519 10.5473L10.407 11.5925L9.93334 11.1442L10.9544 10.0241L10.1315 9.30273Z" fill="#FFD54F"/>
<path d="M44.2077 15.2031L39.9761 16.9202L41.1711 19.709L42.29 19.2353L41.6689 17.8155L42.1922 17.5678L42.7891 18.9357L43.8089 18.5128L43.2374 17.1933L43.734 16.9697L44.3309 18.3883L45.3773 17.9666L44.2077 15.2031Z" fill="#FFD54F"/>
<path d="M5.55176 15.7266L4.95605 17.0449L9.08614 18.9613L10.4068 16.2727L9.38581 15.7495L8.58951 17.1439L5.55176 15.7266Z" fill="#FFD54F"/>
<path d="M44.1823 20.877C42.5583 20.877 41.7427 22.2085 41.7427 23.5401C41.7427 24.8717 42.7069 26.2045 44.1823 26.2045C45.6577 26.2045 46.6461 24.9974 46.6461 23.5401C46.6461 22.1082 45.7821 20.877 44.1823 20.877ZM44.2137 24.7605C43.5129 24.7605 43.1045 24.1697 43.1045 23.5413C43.1045 22.913 43.4972 22.3221 44.2137 22.3221C44.9303 22.3221 45.3471 22.9915 45.3471 23.5413C45.3471 24.0778 44.9133 24.7605 44.2137 24.7605Z" fill="#FFD54F"/>
<path d="M8.26674 22.3465L8.49028 20.7285L3.6364 22.3211L3.4624 23.7638L8.06736 26.253L8.04198 24.5855L7.34599 24.2629L7.4499 22.5495L8.26674 22.3465ZM6.29957 23.7783L4.98007 23.1669L6.35757 22.8226L6.29957 23.7783Z" fill="#FFD54F"/>
<path d="M25.3022 9.81836C33.5467 9.97907 40.1829 16.7179 40.1829 25.0011C40.1829 33.2842 33.5479 40.0182 25.3022 40.1801V9.81836Z" fill="#0277BD"/>
<path d="M19.1974 10.8027V22.9477H24.8319V26.5328H19.1974V39.23C17.905 38.6965 16.6905 37.9909 15.5869 37.1323V26.5328H9.71685C9.5977 25.3394 9.6192 24.1361 9.78089 22.9477L9.80264 22.793L9.78089 22.9477H15.5857V12.9016C16.6895 12.0424 17.9044 11.3364 19.1974 10.8027Z" fill="#B71C1C"/>
<path d="M9.90283 26.6484L9.91854 26.785L9.90283 26.6484Z" fill="#FAF18E"/>
<path d="M15.1797 36.5801L15.3138 36.6937L15.1797 36.5801Z" fill="#FAF18E"/>
<path d="M29.146 14.9316H34.3684V15.6603H29.146V14.9316Z" fill="#B71C1C"/>
<path d="M24.9998 9.29297C16.3325 9.29297 9.2915 16.3339 9.2915 25.0013C9.2915 33.6687 16.3325 40.7084 24.9998 40.7084C33.6672 40.7084 40.7082 33.6687 40.7082 25.0013C40.7082 16.3339 33.6672 9.29297 24.9998 9.29297ZM25.3019 9.81859C31.0838 9.93218 36.0742 13.2793 38.5404 18.1271C38.5089 18.0847 38.4766 18.0428 38.4438 18.0014C37.8396 17.2511 37.0783 16.7532 36.4307 16.3363C36.3652 16.2947 36.2863 16.2794 36.21 16.2938C36.1337 16.3082 36.0657 16.351 36.0198 16.4137C35.9249 16.5366 35.8024 16.6353 35.6621 16.7019C35.5219 16.7684 35.3679 16.8009 35.2127 16.7967H32.4154C32.276 16.7948 32.1396 16.8376 32.0263 16.9188C31.9609 16.9653 31.9072 17.0265 31.8694 17.0974C31.8317 17.1682 31.8109 17.2469 31.8088 17.3272V17.6462C31.8076 17.6486 31.8052 17.6534 31.7931 17.6619C31.7514 17.6902 31.7021 17.7054 31.6517 17.7054H29.2411L29.2435 17.5048V17.5012C29.2416 17.3225 29.1974 17.1469 29.1147 16.9886C29.032 16.8302 28.913 16.6937 28.7674 16.5901L28.7626 16.5865L28.759 16.5841L27.7053 15.8699L27.7041 15.8687L27.7029 15.8675C27.5459 15.7617 27.3605 15.7061 27.1712 15.708C27.0323 15.7137 26.8969 15.7528 26.7763 15.822C26.6558 15.8912 26.5538 15.9885 26.4788 16.1056C26.3558 16.3084 26.3152 16.5508 26.3653 16.7827C26.4154 17.0146 26.5525 17.2185 26.7483 17.3525L27.2425 17.7308L27.2461 17.7344L27.2498 17.7368C27.3537 17.8117 27.4117 17.9011 27.4117 17.9253L27.3996 18.7264V18.7313C27.3996 18.7409 27.3984 18.7433 27.3972 18.747C27.3645 18.7443 27.3323 18.737 27.3017 18.7252C27.1845 18.6865 27.0963 18.637 26.9585 18.585C26.8208 18.5331 26.6444 18.492 26.416 18.492C26.1841 18.49 25.9564 18.5538 25.7592 18.6759C25.562 18.798 25.4035 18.9735 25.3019 19.182V9.81859ZM19.1745 10.9738V22.958H24.6941V26.496H19.1745V39.0252C17.9075 38.4981 16.7177 37.8019 15.6377 36.9553V26.496H9.88721C9.77152 25.3182 9.79301 24.1309 9.95125 22.958H15.6377V13.0448C16.7176 12.1978 17.9073 11.5011 19.1745 10.9738ZM29.4683 13.3083C29.4072 13.3052 29.3461 13.3146 29.2888 13.3358C29.2314 13.3571 29.179 13.3898 29.1348 13.432C29.0905 13.4741 29.0552 13.5249 29.0312 13.5811C29.0071 13.6373 28.9947 13.6978 28.9948 13.759C28.9949 13.8202 29.0074 13.8806 29.0316 13.9368C29.0558 13.993 29.0912 14.0436 29.1356 14.0857C29.18 14.1277 29.2325 14.1603 29.2899 14.1814C29.3473 14.2025 29.4084 14.2117 29.4695 14.2085C29.5848 14.2023 29.6934 14.1522 29.7728 14.0683C29.8522 13.9844 29.8964 13.8733 29.8962 13.7578C29.8961 13.6423 29.8516 13.5313 29.772 13.4476C29.6923 13.364 29.5836 13.3141 29.4683 13.3083ZM30.6125 13.3083C30.5515 13.3052 30.4904 13.3146 30.4331 13.3358C30.3757 13.3571 30.3233 13.3898 30.279 13.432C30.2348 13.4741 30.1995 13.5249 30.1755 13.5811C30.1514 13.6373 30.139 13.6978 30.1391 13.759C30.1392 13.8202 30.1517 13.8806 30.1759 13.9368C30.2001 13.993 30.2355 14.0436 30.2799 14.0857C30.3243 14.1277 30.3768 14.1603 30.4342 14.1814C30.4916 14.2025 30.5527 14.2117 30.6138 14.2085C30.7291 14.2023 30.8377 14.1522 30.9171 14.0683C30.9965 13.9844 31.0407 13.8733 31.0405 13.7578C31.0404 13.6423 30.9959 13.5313 30.9163 13.4476C30.8366 13.364 30.7279 13.3141 30.6125 13.3083ZM31.7568 13.3083C31.6958 13.3052 31.6347 13.3146 31.5774 13.3358C31.52 13.3571 31.4676 13.3898 31.4233 13.432C31.379 13.4741 31.3438 13.5249 31.3197 13.5811C31.2957 13.6373 31.2833 13.6978 31.2834 13.759C31.2835 13.8202 31.296 13.8806 31.3202 13.9368C31.3444 13.993 31.3798 14.0436 31.4242 14.0857C31.4686 14.1277 31.5211 14.1603 31.5785 14.1814C31.6359 14.2025 31.697 14.2117 31.758 14.2085C31.8734 14.2023 31.982 14.1522 32.0614 14.0683C32.1408 13.9844 32.185 13.8733 32.1848 13.7578C32.1847 13.6423 32.1402 13.5313 32.0605 13.4476C31.9809 13.364 31.8722 13.3141 31.7568 13.3083ZM32.9011 13.3083C32.8401 13.3052 32.779 13.3146 32.7217 13.3358C32.6643 13.3571 32.6119 13.3898 32.5676 13.432C32.5233 13.4741 32.4881 13.5249 32.464 13.5811C32.44 13.6373 32.4276 13.6978 32.4277 13.759C32.4278 13.8202 32.4403 13.8806 32.4645 13.9368C32.4887 13.993 32.5241 14.0436 32.5685 14.0857C32.6129 14.1277 32.6654 14.1603 32.7228 14.1814C32.7802 14.2025 32.8413 14.2117 32.9023 14.2085C33.0177 14.2023 33.1263 14.1522 33.2057 14.0683C33.2851 13.9844 33.3293 13.8733 33.3291 13.7578C33.329 13.6423 33.2845 13.5313 33.2048 13.4476C33.1252 13.364 33.0165 13.3141 32.9011 13.3083ZM34.0454 13.3083C33.9843 13.3052 33.9233 13.3146 33.8659 13.3358C33.8086 13.3571 33.7562 13.3898 33.7119 13.432C33.6676 13.4741 33.6324 13.5249 33.6083 13.5811C33.5843 13.6373 33.5719 13.6978 33.572 13.759C33.5721 13.8202 33.5846 13.8806 33.6088 13.9368C33.633 13.993 33.6684 14.0436 33.7128 14.0857C33.7572 14.1277 33.8097 14.1603 33.8671 14.1814C33.9245 14.2025 33.9856 14.2117 34.0466 14.2085C34.162 14.2023 34.2705 14.1522 34.35 14.0683C34.4294 13.9844 34.4736 13.8733 34.4734 13.7578C34.4733 13.6423 34.4288 13.5313 34.3491 13.4476C34.2695 13.364 34.1608 13.3141 34.0454 13.3083ZM29.1456 14.4828V15.2114H34.368V14.4828H29.1456ZM29.1456 15.4627V16.1913H34.368V15.4627H29.1456ZM27.1881 16.3122C27.2532 16.3115 27.3166 16.3328 27.3682 16.3726L28.4194 17.0855C28.4836 17.1346 28.5364 17.1971 28.5739 17.2687C28.6115 17.3403 28.633 17.4192 28.6369 17.5L28.6248 18.4848V18.4884C28.6248 18.8763 28.8206 19.2061 29.0743 19.4369C29.2242 19.5735 29.3945 19.6798 29.5782 19.7463C29.3915 19.8152 29.2203 19.9203 29.0743 20.0556C28.9373 20.1735 28.8264 20.3188 28.749 20.4822C28.6716 20.6456 28.6293 20.8234 28.6248 21.0041V21.0078L28.6369 21.9962C28.6314 22.0779 28.6082 22.1575 28.569 22.2295C28.5298 22.3014 28.4755 22.3641 28.4098 22.413L27.3658 23.1211C27.2643 23.1876 27.2026 23.1876 27.1434 23.1731C27.0788 23.1553 27.0232 23.1139 26.9875 23.0571C26.909 22.9375 26.8752 22.7973 27.1011 22.6354L27.1048 22.6318L27.1084 22.6281L27.611 22.2451C27.7814 22.123 28.0183 21.9188 28.0183 21.5684V21.5636L28.0062 20.7576C28.0086 20.662 27.9885 20.5671 27.9476 20.4807C27.9067 20.3942 27.846 20.3186 27.7705 20.2598C27.5965 20.1281 27.3488 20.1124 27.112 20.1897C26.9428 20.2453 26.8317 20.3045 26.7435 20.3383C26.6553 20.3722 26.5791 20.3927 26.416 20.3927C26.326 20.3972 26.2363 20.3807 26.1538 20.3444C26.0714 20.3081 25.9986 20.2531 25.9411 20.1837C25.8445 20.0687 25.788 19.9253 25.7804 19.7753V19.7148C25.7804 19.6025 25.8348 19.4297 25.9411 19.3064C26.0475 19.1832 26.1876 19.0974 26.416 19.0974C26.5791 19.0974 26.654 19.1179 26.7435 19.1518C26.8329 19.1856 26.9428 19.2448 27.112 19.3004C27.3488 19.3777 27.5978 19.362 27.7705 19.2303C27.8462 19.1708 27.9069 19.0945 27.9478 19.0075C27.9887 18.9204 28.0087 18.825 28.0062 18.7288L28.0183 17.9277V17.9229C28.0183 17.5713 27.773 17.3622 27.6026 17.2402L27.1072 16.862L27.1035 16.8583L27.0999 16.8547C26.874 16.6928 26.9078 16.5538 26.9863 16.433C27.0218 16.3761 27.0775 16.3346 27.1422 16.317L27.1881 16.3122ZM36.3147 16.9876C36.8959 17.367 37.4988 17.796 37.9701 18.3821C38.4993 19.0394 38.8739 19.8852 38.8739 21.1322C38.8739 23.4752 36.6856 25.3565 34.5819 25.3565H29.496C29.4243 25.3569 29.3534 25.372 29.2877 25.4009C29.222 25.4298 29.163 25.4719 29.1142 25.5245C29.0248 25.6272 28.9885 25.7505 28.9898 25.8689C28.991 25.9873 29.0284 26.1081 29.1178 26.2084C29.1662 26.2609 29.2249 26.3028 29.2901 26.3317C29.3554 26.3606 29.4259 26.3758 29.4973 26.3764H34.4623C36.247 26.3764 37.1992 27.5255 37.1992 28.8813C37.1992 30.2032 36.2108 31.4453 34.4744 31.4453H29.3583C29.2952 31.4459 29.2328 31.4591 29.1749 31.4842C29.117 31.5093 29.0647 31.5458 29.0212 31.5915C28.9463 31.6757 28.9054 31.7847 28.9064 31.8973C28.9064 32.0086 28.9473 32.1161 29.0212 32.1993C29.0645 32.245 29.1165 32.2815 29.1743 32.3066C29.232 32.3317 29.2941 32.345 29.3571 32.3455H33.1645C33.9838 32.3455 34.681 33.1443 34.681 33.9067C34.681 34.2934 34.571 34.651 34.3282 34.9108C34.0853 35.1706 33.6962 35.3591 33.0437 35.3591H30.76C30.6619 35.3563 30.5656 35.3856 30.4857 35.4425C30.437 35.4785 30.3974 35.5255 30.3704 35.5797C30.3433 35.6339 30.3294 35.6937 30.3298 35.7543C30.3334 35.8799 30.4059 35.9887 30.4905 36.0491C30.5751 36.1095 30.6693 36.1313 30.7612 36.1313H32.2752C32.4891 36.1313 32.6474 36.2243 32.7718 36.3765C32.8934 36.5287 32.9625 36.716 32.9688 36.9106C32.9716 37.0092 32.9538 37.1073 32.9166 37.1987C32.8793 37.29 32.8235 37.3726 32.7525 37.4411C32.6447 37.5314 32.51 37.5837 32.3695 37.5897C32.384 37.4853 32.3671 37.3789 32.3211 37.284C32.2769 37.2095 32.2147 37.1473 32.1402 37.1032C32.0656 37.059 31.9812 37.0344 31.8946 37.0315H30.9859C30.6693 37.0315 30.3201 36.9118 30.0615 36.6871C29.803 36.4623 29.6265 36.1421 29.6265 35.683C29.6265 35.26 29.803 34.9592 30.0543 34.7429C30.3044 34.5266 30.6379 34.413 30.8832 34.413H33.1162C33.2165 34.413 33.3156 34.3961 33.4098 34.3381C33.5041 34.2801 33.6008 34.1605 33.6008 34.0118C33.5986 33.9459 33.58 33.8815 33.5467 33.8245C33.5134 33.7675 33.4663 33.7198 33.4098 33.6856C33.3213 33.6339 33.2199 33.6084 33.1174 33.6119H29.6181C28.272 33.6119 27.5216 32.6597 27.5216 31.6314C27.5216 30.7155 28.307 29.6292 29.496 29.6292H34.7028C34.7733 29.6286 34.843 29.6135 34.9074 29.5848C34.9719 29.5562 35.0297 29.5145 35.0773 29.4625C35.1643 29.3622 35.1982 29.2413 35.197 29.1266C35.1958 29.0118 35.1607 28.8945 35.0749 28.7943C35.0277 28.7423 34.9703 28.7007 34.9063 28.672C34.8422 28.6433 34.7729 28.6281 34.7028 28.6275H29.3994C27.9168 28.6275 26.7435 27.5279 26.7435 25.8677C26.7435 24.4805 27.8781 23.0583 29.5565 23.0583H34.3632C34.6254 23.0583 34.861 22.9399 35.0048 22.7683C35.1486 22.5967 35.2127 22.3841 35.2139 22.175C35.2151 21.966 35.1523 21.7521 35.0085 21.5793C34.9282 21.4872 34.829 21.4134 34.7177 21.3632C34.6063 21.3129 34.4854 21.2873 34.3632 21.2881H29.2338L29.2302 21.0005C29.2302 20.8229 29.3269 20.644 29.4815 20.5027C29.6362 20.3613 29.844 20.2815 29.9721 20.2815H32.8468C32.9579 20.2815 33.0679 20.2562 33.1766 20.1813C33.2854 20.1063 33.3857 19.9456 33.3857 19.745C33.3857 19.5384 33.324 19.4345 33.1766 19.3088C33.0799 19.2416 32.9645 19.2065 32.8468 19.2086H29.9721C29.7888 19.1906 29.6164 19.1129 29.4815 18.9874C29.4076 18.9257 29.3472 18.8494 29.304 18.7634C29.2607 18.6773 29.2356 18.5833 29.2302 18.4872L29.2326 18.3108H32.7404C32.9247 18.312 33.1044 18.2525 33.2515 18.1416C33.328 18.0869 33.3906 18.0152 33.4347 17.9322C33.4787 17.8491 33.5029 17.757 33.5053 17.6631V17.4033H35.2115C35.6184 17.4083 36.0122 17.2599 36.3147 16.9876ZM39.4092 20.2054C39.9107 21.7134 40.1825 23.3253 40.1825 25.0013C40.1825 30.3047 37.4626 34.9737 33.341 37.6888C33.5017 37.4604 33.5766 37.1837 33.5766 36.9118C33.5746 36.5757 33.4559 36.2506 33.2407 35.9923L33.2129 35.9621C33.904 35.9283 34.4297 35.695 34.7716 35.3289C35.1414 34.9338 35.2888 34.413 35.2888 33.9103C35.2888 33.1672 34.8719 32.4507 34.2424 32.0568H34.4732C36.508 32.0568 37.8045 30.5198 37.8045 28.8849C37.8045 27.4989 36.9031 26.2568 35.4036 25.887C37.5568 25.4822 39.4805 23.5453 39.4805 21.1358C39.4825 20.8243 39.4587 20.5131 39.4092 20.2054ZM25.3019 20.313C25.4035 20.5215 25.562 20.6969 25.7592 20.819C25.9564 20.9411 26.1841 21.0049 26.416 21.0029C26.6432 21.0029 26.8208 20.9618 26.9585 20.9099C27.0963 20.8579 27.1845 20.8084 27.3017 20.7697C27.3323 20.7579 27.3645 20.7506 27.3972 20.748C27.3984 20.7516 27.3996 20.754 27.3996 20.7637V20.7685L27.4117 21.5745C27.4117 21.5986 27.3537 21.6844 27.2498 21.7593L27.2461 21.7618L27.2425 21.7654L26.741 22.1496C26.5461 22.2831 26.4101 22.4865 26.3613 22.7176C26.3125 22.9487 26.3546 23.1897 26.4788 23.3906C26.5801 23.5475 26.7286 23.6681 26.903 23.735C26.4147 24.3402 26.1452 25.0925 26.1381 25.8701C26.1381 27.5569 27.2316 28.8353 28.6828 29.1568C27.5965 29.5277 26.915 30.614 26.915 31.6326C26.915 32.969 27.9735 34.2197 29.6181 34.2197H29.7377C29.7111 34.2402 29.6833 34.2608 29.658 34.2825C29.293 34.5967 29.02 35.0824 29.02 35.683C29.02 36.3077 29.2846 36.8152 29.6628 37.145C30.041 37.4749 30.5231 37.6393 30.9871 37.6393H31.7484C31.7327 37.6948 31.7145 37.7468 31.7145 37.7468C31.6959 37.7884 31.6868 37.8337 31.6881 37.8793C31.6894 37.9248 31.701 37.9695 31.7221 38.01C31.7431 38.0505 31.7731 38.0856 31.8096 38.1129C31.8462 38.1401 31.8885 38.1587 31.9333 38.1673C32.1508 38.2108 32.3562 38.2132 32.5423 38.1818C30.3358 39.4467 27.846 40.1345 25.3031 40.1816L25.3019 20.313ZM29.2423 21.8959H34.3644C34.4683 21.8959 34.5058 21.9237 34.5433 21.9684C34.587 22.0269 34.6095 22.0984 34.6073 22.1714C34.6073 22.2535 34.5783 22.3309 34.5396 22.3768C34.501 22.4227 34.4623 22.4493 34.3632 22.4493H29.5565C29.4103 22.4493 29.2677 22.459 29.1275 22.4759C29.2027 22.3254 29.242 22.1596 29.2423 21.9913V21.8959Z" fill="#FFD54F"/>
<path d="M27.1885 16.3125C27.2536 16.3119 27.317 16.3332 27.3685 16.3729L28.4198 17.0858C28.484 17.135 28.5367 17.1975 28.5743 17.2691C28.6118 17.3406 28.6333 17.4196 28.6373 17.5003L28.6252 18.4851V18.4887C28.6252 18.8766 28.8209 19.2065 29.0747 19.4373C29.2245 19.5738 29.3949 19.6801 29.5786 19.7466C29.3919 19.8155 29.2206 19.9207 29.0747 20.0559C28.9376 20.1738 28.8268 20.3191 28.7493 20.4825C28.6719 20.6459 28.6296 20.8237 28.6252 21.0045V21.0081L28.6373 21.9965C28.6317 22.0783 28.6085 22.1579 28.5693 22.2298C28.5301 22.3018 28.4758 22.3644 28.4101 22.4134L27.3661 23.1215C27.2646 23.1879 27.203 23.1879 27.1438 23.1734C27.0791 23.1556 27.0235 23.1142 26.9879 23.0574C26.9093 22.9378 26.8755 22.7976 27.1015 22.6357L27.1051 22.6321L27.1087 22.6285L27.6114 22.2454C27.7818 22.1234 28.0186 21.9192 28.0186 21.5688V21.5639L28.0065 20.758C28.0089 20.6623 27.9889 20.5675 27.9479 20.481C27.907 20.3946 27.8464 20.3189 27.7709 20.2601C27.5969 20.1284 27.3492 20.1127 27.1123 20.1901C26.9432 20.2456 26.832 20.3048 26.7438 20.3387C26.6556 20.3725 26.5795 20.3931 26.4163 20.3931C26.3264 20.3976 26.2366 20.381 26.1542 20.3447C26.0717 20.3084 25.9989 20.2534 25.9415 20.184C25.8448 20.069 25.7884 19.9256 25.7808 19.7756V19.7152C25.7808 19.6028 25.8351 19.43 25.9415 19.3068C26.0478 19.1835 26.188 19.0977 26.4163 19.0977C26.5795 19.0977 26.6544 19.1183 26.7438 19.1521C26.8332 19.1859 26.9432 19.2451 27.1123 19.3007C27.3492 19.3781 27.5981 19.3623 27.7709 19.2306C27.8465 19.1712 27.9072 19.0949 27.9481 19.0078C27.989 18.9208 28.009 18.8253 28.0065 18.7292L28.0186 17.9281V17.9232C28.0186 17.5716 27.7733 17.3626 27.6029 17.2405L27.1075 16.8623L27.1039 16.8587L27.1003 16.8551C26.8743 16.6931 26.9081 16.5542 26.9867 16.4333C27.0221 16.3764 27.0778 16.335 27.1426 16.3173L27.1885 16.3125Z" fill="#B71C1C"/>
<path d="M36.3149 16.9883C36.8961 17.3677 37.499 17.7967 37.9703 18.3827C38.4995 19.04 38.8741 19.8859 38.8741 21.1329C38.8741 23.4758 36.6858 25.3572 34.5821 25.3572H29.4962C29.4245 25.3576 29.3536 25.3727 29.2879 25.4016C29.2222 25.4305 29.1632 25.4725 29.1144 25.5252C29.025 25.6279 28.9887 25.7511 28.9899 25.8695C28.9912 25.9879 29.0286 26.1088 29.118 26.2091C29.1664 26.2615 29.2251 26.3035 29.2903 26.3324C29.3556 26.3613 29.4261 26.3765 29.4974 26.377H34.4625C36.2472 26.377 37.1994 27.5262 37.1994 28.8819C37.1994 30.2038 36.2109 31.446 34.4746 31.446H29.3585C29.2954 31.4465 29.233 31.4598 29.1751 31.4849C29.1172 31.51 29.0649 31.5465 29.0214 31.5922C28.9465 31.6764 28.9056 31.7853 28.9066 31.8979C28.9066 32.0092 28.9475 32.1167 29.0214 32.2C29.0647 32.2457 29.1167 32.2821 29.1744 32.3073C29.2322 32.3324 29.2943 32.3456 29.3573 32.3462H33.1647C33.984 32.3462 34.6812 33.1449 34.6812 33.9074C34.6812 34.294 34.5712 34.6517 34.3284 34.9115C34.0855 35.1713 33.6964 35.3598 33.0439 35.3598H30.7602C30.6621 35.357 30.5658 35.3862 30.4859 35.4432C30.4371 35.4792 30.3976 35.5262 30.3705 35.5803C30.3435 35.6345 30.3296 35.6943 30.33 35.7549C30.3336 35.8806 30.4061 35.9893 30.4907 36.0497C30.5753 36.1102 30.6695 36.1319 30.7614 36.1319H32.2754C32.4893 36.1319 32.6476 36.2249 32.772 36.3772C32.8936 36.5293 32.9627 36.7167 32.969 36.9113C32.9718 37.0099 32.954 37.108 32.9168 37.1993C32.8795 37.2907 32.8236 37.3732 32.7527 37.4417C32.6448 37.5321 32.5102 37.5843 32.3697 37.5904C32.3841 37.4859 32.3673 37.3795 32.3213 37.2847C32.2771 37.2101 32.2149 37.1479 32.1404 37.1038C32.0658 37.0597 31.9814 37.035 31.8948 37.0321H30.9861C30.6695 37.0321 30.3203 36.9125 30.0617 36.6877C29.8032 36.463 29.6267 36.1428 29.6267 35.6836C29.6267 35.2607 29.8032 34.9598 30.0545 34.7435C30.3046 34.5272 30.6381 34.4137 30.8834 34.4137H33.1164C33.2167 34.4137 33.3158 34.3967 33.41 34.3387C33.5043 34.2807 33.6009 34.1611 33.6009 34.0125C33.5988 33.9465 33.5802 33.8821 33.5469 33.8251C33.5135 33.7682 33.4665 33.7204 33.41 33.6862C33.3215 33.6346 33.2201 33.609 33.1176 33.6125H29.6183C28.2722 33.6125 27.5218 32.6604 27.5218 31.6321C27.5218 30.7162 28.3072 29.6299 29.4962 29.6299H34.7029C34.7735 29.6293 34.8432 29.6142 34.9076 29.5855C34.972 29.5568 35.0299 29.5151 35.0775 29.4631C35.1645 29.3628 35.1984 29.242 35.1972 29.1272C35.1959 29.0124 35.1609 28.8952 35.0751 28.7949C35.0279 28.7429 34.9705 28.7013 34.9065 28.6726C34.8424 28.6439 34.7731 28.6288 34.7029 28.6282H29.3996C27.9169 28.6282 26.7437 27.5286 26.7437 25.8683C26.7437 24.4812 27.8783 23.0589 29.5567 23.0589H34.3634C34.6256 23.0589 34.8612 22.9405 35.005 22.7689C35.1488 22.5974 35.2129 22.3847 35.2141 22.1757C35.2153 21.9666 35.1524 21.7527 35.0087 21.5799C34.9284 21.4878 34.8292 21.4141 34.7179 21.3638C34.6065 21.3136 34.4856 21.2879 34.3634 21.2887H29.234L29.2304 21.0012C29.2304 20.8235 29.3271 20.6447 29.4817 20.5033C29.6364 20.3619 29.8442 20.2822 29.9723 20.2822H32.8469C32.9581 20.2822 33.0681 20.2568 33.1768 20.1819C33.2856 20.107 33.3859 19.9463 33.3859 19.7457C33.3859 19.5391 33.3242 19.4352 33.1768 19.3095C33.0801 19.2422 32.9647 19.2072 32.8469 19.2092H29.9723C29.789 19.1912 29.6166 19.1135 29.4817 18.9881C29.4078 18.9263 29.3474 18.8501 29.3041 18.764C29.2609 18.678 29.2358 18.584 29.2304 18.4878L29.2328 18.3114H32.7406C32.9249 18.3126 33.1045 18.2532 33.2517 18.1422C33.3281 18.0875 33.3908 18.0158 33.4349 17.9328C33.4789 17.8498 33.5031 17.7577 33.5055 17.6637V17.4039H35.2117C35.6186 17.4089 36.0124 17.2605 36.3149 16.9883Z" fill="#2E7D32"/>
<path d="M24.6944 9.81836V22.35H19.7813V10.7355C21.357 10.16 23.0172 9.85012 24.6944 9.81836ZM10.0458 22.35H15.0313V13.5473C12.4106 15.8242 10.6508 18.9315 10.0458 22.35ZM15.0313 36.4512V27.1024H9.95996C10.4651 30.7291 12.2666 34.0502 15.0313 36.4512ZM19.7825 39.2606C21.3195 39.8225 22.9725 40.1439 24.6956 40.1789V27.1024H19.7825V39.2606Z" fill="white"/>
</svg>
