<svg width="50" height="50" viewBox="0 0 50 50" fill="none" xmlns="http://www.w3.org/2000/svg">
<path d="M4.71344 20.5057C4.93934 20.0117 5.13352 19.6105 6.55621 19.6105H14.7681C15.2207 19.6105 15.673 19.3944 15.673 18.7776V16.5875C15.673 16.3391 15.932 15.9992 16.6107 15.9992H33.6169C34.1014 15.9992 34.4901 16.2464 34.4901 16.8328V18.5615C34.4901 19.0242 34.716 19.5179 35.4274 19.5179H49.0706C49.5553 19.5179 50.202 19.641 49.9115 20.228C49.6198 20.8137 45.1911 29.3912 44.8905 29.9645C44.7752 30.1841 44.6857 30.4769 43.7889 30.4769H35.4021C35.0045 30.4769 34.3515 30.4769 34.3515 31.2108V33.2522C34.3515 33.5459 34.1212 33.9863 33.391 33.9863H16.5649C16.0396 33.9863 15.6556 33.7285 15.6556 33.2277V31.4306C15.6556 31.0394 15.4376 30.4653 14.8232 30.4653H0.698956C0.250347 30.4653 -0.172078 30.135 0.0969525 29.4999C0.365983 28.8635 4.71327 20.5057 4.71327 20.5057" fill="#C7D6EE"/>
<path d="M1.17627 28.5456L1.56882 28.5469L5.42789 21.217L5.03517 21.2158L1.17627 28.5456Z" fill="url(#paint0_linear)"/>
<path d="M14.8563 29.5817H1.6464C1.18554 29.5817 1.02409 29.3806 1.20333 29.0386C2.2036 27.1396 5.49306 20.894 5.57815 20.7281C5.67817 20.5332 5.92052 20.2948 6.36761 20.2948H15.232C16.1517 20.2948 16.3083 19.911 16.3083 19.218V17.1538C16.3083 16.8761 16.5013 16.6916 16.8405 16.6916H33.076C33.5124 16.6916 33.7054 16.8292 33.7054 17.1068V18.6317C33.7054 19.2325 33.5862 20.2026 34.9893 20.2026H48.4051C49.0076 20.2026 49.164 20.5904 48.8451 21.2045C47.6579 23.4907 44.7366 28.9115 44.6457 29.0954C44.5307 29.3292 44.1734 29.5349 43.6026 29.5349H34.7966C34.0699 29.5349 33.3444 29.997 33.3444 30.6905V32.4521C33.3444 32.7728 33.1426 33 32.7835 33H17.0298C16.5425 33 16.3565 32.7366 16.3565 32.3853V30.7825C16.3565 30.2285 15.9693 29.5817 14.8563 29.5817Z" fill="#E9CF98"/>
<path d="M32.4728 29.1692L34.3232 31.0101C34.3232 31.0101 34.4553 30.6063 34.9571 30.5064L32.8849 28.6612C32.8849 28.6612 32.5521 28.841 32.4728 29.1691V29.1692ZM14.8994 30.4806C14.8994 30.4806 15.6395 30.5062 15.6395 31.4395L17.3571 29.0173L16.8815 28.6894L14.8994 30.4806ZM33.1557 21.309L35.1068 19.4936C35.1068 19.4936 34.8423 19.4627 34.5771 19.0521L32.6425 20.9306L33.1557 21.309ZM32.3121 17.5997L34.1146 16.1324C34.1146 16.1324 34.3131 16.2424 34.3957 16.4164L32.5106 18.0737L32.3121 17.5997ZM15.6859 16.6636C15.6859 16.3597 15.9816 16.0011 16.4658 16.0011L17.8332 17.615C17.8332 17.615 17.4237 17.615 17.3596 17.7592C17.2945 17.9033 17.2301 18.2119 17.2301 18.2119L15.6859 16.6636ZM15.0956 19.5704C15.0956 19.5704 15.68 19.4819 15.68 18.8856L17.0355 20.4081L16.1716 21.0043L15.0956 19.5704Z" fill="white"/>
<path d="M25.1189 16.0003L25.0566 16.6945H32.8679C33.1244 16.6945 33.2684 16.756 33.365 16.9395L34.23 16.2054C34.23 16.2054 34.0125 16.0003 33.6168 16.0003H25.1189Z" fill="url(#paint1_linear)"/>
<path d="M16.4655 16.0002C16.2572 16.0002 16.0167 16.0986 15.8892 16.2509L16.4497 16.832C16.4497 16.832 16.5617 16.6944 17.0103 16.6944H25.0565L25.1188 16.0002H16.4655Z" fill="url(#paint2_linear)"/>
<path d="M15.6859 16.6636V18.7794C15.6859 19.1115 15.6162 19.1929 15.6162 19.1929L16.2347 19.8203C16.2347 19.8203 16.3231 19.6037 16.3231 19.4706V17.3742C16.3231 17.2418 16.3355 17.0489 16.3355 17.0489L15.7548 16.3624C15.7548 16.3624 15.6859 16.4824 15.6859 16.6636Z" fill="url(#paint3_linear)"/>
<path d="M33.718 16.9846C33.718 16.9846 33.7012 17.2307 33.7012 17.363C33.7012 17.4954 33.718 19.2825 33.718 19.4152C33.718 19.5475 33.9199 19.793 33.9199 19.793L34.6598 19.1678C34.6598 19.1678 34.4843 19.1116 34.4843 18.7795V16.6637C34.4843 16.4825 34.329 16.3625 34.329 16.3625L33.718 16.9846Z" fill="url(#paint4_linear)"/>
<path d="M14.8146 19.6141C14.5827 19.6141 6.61399 19.6229 6.18938 19.6229C5.57328 19.6229 5.21094 19.8823 5.21094 19.8823L5.71778 20.5332C5.71778 20.5332 5.92052 20.2946 6.36795 20.2946H15.3598C15.6729 20.2946 15.9082 20.1594 15.9082 20.1594L15.3207 19.4857C15.3207 19.4857 15.0322 19.6141 14.8146 19.6141Z" fill="url(#paint5_linear)"/>
<path d="M0.938172 29.0948L0.0193067 29.71C0.0193067 29.71 -0.0535335 29.9642 0.0837511 30.1651C0.221371 30.3654 0.431495 30.3965 0.431495 30.3965L1.62745 29.581C1.62745 29.581 0.950591 29.5506 1.23221 29.072C1.51383 28.5933 1.49856 28.413 1.49856 28.413C1.49856 28.4129 1.16994 28.4645 0.938172 29.0948Z" fill="url(#paint6_linear)"/>
<path d="M3.46138 23.0719C2.72863 24.5116 0.267581 29.1364 0.181484 29.3016C0.0952199 29.4662 0.00878906 29.7539 0.00878906 29.7539L0.957194 29.0954L5.40115 20.6438C5.40115 20.6438 4.19429 21.6314 3.46138 23.0719Z" fill="url(#paint7_linear)"/>
<path d="M1.64668 29.6014L0.427734 30.4385C0.427734 30.4385 14.3123 30.4712 14.663 30.4712C15.0133 30.4712 15.1605 30.5352 15.1605 30.5352L15.7858 29.8568C15.7858 29.8568 15.1885 29.6014 14.8567 29.6014H1.64668Z" fill="url(#paint8_linear)"/>
<path d="M15.5166 30.9067C15.5166 30.9067 15.6445 31.152 15.6445 31.3476V33.1002C15.6445 33.3509 15.7469 33.5684 15.7469 33.5684L16.3569 32.8823V30.7829C16.3569 30.4479 16.1634 30.1661 16.1634 30.1661L15.5166 30.9067Z" fill="url(#paint9_linear)"/>
<path d="M33.3428 30.5658V32.6654L34.3002 33.4648C34.3002 33.4648 34.3239 33.2518 34.3239 33.0015V31.2481C34.3239 31.0527 34.3833 30.9296 34.3833 30.9296L33.5462 30.1306C33.5462 30.1306 33.3428 30.2301 33.3428 30.5658Z" fill="url(#paint10_linear)"/>
<path d="M32.6264 33.0152H25.0996V33.9902H33.4285C33.7116 33.9902 34.0417 33.8105 34.1045 33.7648L33.1606 32.9104C33.1606 32.9104 33.0984 33.0152 32.6264 33.0152Z" fill="url(#paint11_linear)"/>
<path d="M16.0337 33.8688C16.0337 33.8688 16.2275 34 16.7693 34C17.3105 34 25.0997 33.9905 25.0997 33.9905V33.0155H17.0603C16.9148 33.0155 16.8175 32.9897 16.8175 32.9897L16.0337 33.8688Z" fill="url(#paint12_linear)"/>
<path d="M18.1957 17.5923C17.7597 17.5923 17.3243 17.8236 17.3243 18.2859V20.55C17.3243 21.0116 17.0336 21.1966 16.6949 21.1966H7.0565C6.66495 21.1966 6.36202 21.3525 6.18798 21.667C6.04549 21.9254 3.63848 26.5308 2.86059 28.0191C2.69192 28.342 2.83927 28.5382 3.27211 28.5382H16.7438C17.3243 28.5382 17.4213 29.0467 17.4213 29.5546V31.3141C17.4213 31.6382 17.7598 32.0078 18.1472 32.0078H24.9243V17.5923H18.1957Z" fill="url(#paint13_linear)"/>
<path d="M33.9771 29.7951L34.7531 30.5566C34.7531 30.5566 34.9468 30.4543 35.8524 30.4543H44.1287C44.3007 30.4543 44.5379 30.3718 44.5379 30.3718L40.1629 29.5284C40.1629 29.5284 35.0978 29.5318 34.8608 29.5284C34.8519 29.5281 34.8431 29.5279 34.8342 29.5279C34.3206 29.5279 33.9771 29.7951 33.9771 29.7951Z" fill="url(#paint14_linear)"/>
<path d="M34.2686 20.068C34.2686 20.068 34.6468 20.1886 34.9556 20.1886H47.9871C48.3837 20.1886 48.6151 20.2168 48.6151 20.2168L49.6683 19.6176C49.6683 19.6176 49.3302 19.5255 48.9922 19.5255H35.4586C35.1205 19.5255 34.9795 19.45 34.9795 19.45L34.2686 20.068Z" fill="url(#paint15_linear)"/>
<path d="M48.9989 20.5393C48.9989 20.5393 49.0585 20.8549 48.9459 21.0694C48.8336 21.2838 44.8948 28.6788 44.7169 29.0184C44.5387 29.3579 44.1367 29.483 44.1367 29.483L44.5857 30.3398C44.5857 30.3398 44.7446 30.2245 44.8386 30.108C44.9321 29.992 49.7785 20.5779 49.9283 20.2477C50.0777 19.9172 49.9463 19.7976 49.9463 19.7976L48.9989 20.5393Z" fill="url(#paint16_linear)"/>
<path d="M43.7191 29.5478C43.2018 29.5478 40.292 29.5689 40.292 29.5689L44.4303 30.3711C44.4303 30.3711 44.6891 30.269 44.8185 30.0624C44.9481 29.8566 44.818 29.7951 44.6675 29.9185C44.5169 30.0427 44.2583 29.8369 44.3872 29.6928C44.5169 29.5479 44.6458 29.0953 44.6458 29.0953C44.6457 29.0952 44.2367 29.5478 43.7191 29.5478Z" fill="url(#paint17_linear)"/>
<path d="M5.22209 28.9105C2.51198 29.0832 1.64648 29.5724 1.64648 29.5724H14.5882C16.0599 29.5724 15.8919 29.7645 15.8836 29.7731L16.9373 28.7095C16.9373 28.7095 14.3775 28.7095 12.7513 28.6809C12.5445 28.6774 12.3126 28.6757 12.0593 28.6757C10.3211 28.6757 7.58782 28.7602 5.22209 28.9105ZM15.8833 29.7734L15.8836 29.7731L15.8833 29.7734Z" fill="url(#paint18_linear)"/>
<path d="M35.7469 28.6803C34.5956 28.7088 32.7827 28.7088 32.7827 28.7088L33.9909 29.7949C33.9909 29.7949 34.1153 29.5407 35.1813 29.5407C36.2481 29.5407 43.935 29.5155 43.935 29.5155C43.935 29.5155 44.0647 29.1143 41.8012 28.9602C40.0182 28.8386 37.3275 28.6774 36.0269 28.6774C35.9335 28.6773 35.8402 28.6783 35.7469 28.6803Z" fill="url(#paint19_linear)"/>
<path d="M33.0088 21.3112C33.0088 21.3112 34.8222 21.3112 35.9738 21.3399C37.1255 21.3686 44.106 21.0664 46.026 20.8937C47.9458 20.7213 48.5582 20.2323 48.5582 20.2323C48.5582 20.2323 36.353 20.2945 35.2866 20.2945C34.2209 20.2945 34.3696 20.0928 34.3696 20.0928L33.0088 21.3112Z" fill="url(#paint20_linear)"/>
<path d="M16.2275 30.1975C16.2275 30.1975 16.3569 30.5983 16.3569 30.9071V32.2958C16.3569 32.666 16.4865 32.8516 16.4865 32.8516L17.5856 31.8018C17.5856 31.8018 17.4215 31.4318 17.4215 31.1539V29.5882C17.4215 29.2261 17.3268 28.9316 17.3268 28.9316L16.2275 30.1975Z" fill="url(#paint21_linear)"/>
<path d="M32.356 29.5794C32.356 29.9414 32.3305 30.9104 32.3305 31.1885C32.3305 31.4656 32.2637 31.8018 32.2637 31.8018L33.3626 32.8516C33.3626 32.8516 33.4924 32.6659 33.4924 32.2958V30.9071C33.4924 30.5983 33.6216 30.1975 33.6216 30.1975L32.4446 28.9025C32.3875 29.124 32.3577 29.3512 32.356 29.5794Z" fill="url(#paint22_linear)"/>
<path d="M16.8418 32.9717L24.8595 33.0332L24.8919 33.0326V32.0075L17.9085 31.9835L16.8418 32.9717Z" fill="url(#paint23_linear)"/>
<path d="M24.9243 32.0082H24.8921V33.0332L33.1362 32.9419L31.8109 31.9841L24.9243 32.0082Z" fill="url(#paint24_linear)"/>
<path d="M16.9505 16.6881C16.7241 16.6881 16.5146 16.8046 16.5146 16.8046L17.5773 17.8027C17.5773 17.8027 17.6821 17.586 18.4309 17.586H24.9246V16.6881H16.9505Z" fill="url(#paint25_linear)"/>
<path d="M24.9243 16.6875V17.5854H31.418C32.1668 17.5854 32.3219 17.8965 32.3219 17.8965L33.3843 16.8988C33.3843 16.8988 33.1251 16.6875 32.8987 16.6875H24.9243Z" fill="url(#paint26_linear)"/>
<path d="M16.3117 17.5609V19.3734C16.3117 19.5884 16.2129 19.8431 16.2129 19.8431L17.2536 20.9707C17.2536 20.9707 17.3239 20.877 17.3239 20.4074C17.3239 19.9375 17.3659 18.0987 17.3659 18.0987L16.3255 16.9846C16.3255 16.9846 16.3117 17.2792 16.3117 17.5609Z" fill="url(#paint27_linear)"/>
<path d="M32.3652 18.1203V20.3739C32.3652 20.8437 32.5953 20.9707 32.5953 20.9707L33.8671 19.7476C33.8671 19.7476 33.7013 19.4918 33.7013 19.2774C33.7013 19.0624 33.6906 17.752 33.6906 17.4702C33.6906 17.1884 33.7035 16.9277 33.7035 16.9277L32.3652 18.1203Z" fill="url(#paint28_linear)"/>
<path d="M15.4515 20.3191H6.52865C6.27002 20.3191 5.84944 20.4117 5.72021 20.5354L6.52865 21.3379C6.52865 21.3379 6.75472 21.1838 7.30453 21.1838H16.583C16.8419 21.1838 17.1002 21.0907 17.1002 21.0907L16.0661 20.0725C16.0661 20.0725 15.8071 20.3191 15.4515 20.3191Z" fill="url(#paint29_linear)"/>
<path d="M43.2432 28.5741C43.2432 28.5741 43.7428 28.3946 43.899 28.9612C43.899 28.9612 44.0239 29.1404 44.3673 28.663C44.7107 28.1862 47.9588 21.8083 47.9266 21.7179C47.8952 21.6288 47.2395 21.5093 47.2395 21.5093L43.2432 28.5741Z" fill="url(#paint30_linear)"/>
<path d="M47.3331 21.5689C47.4897 21.658 47.6456 21.7775 47.4271 22.2243C47.2087 22.6707 44.7106 27.3212 44.1802 28.215C43.6494 29.109 44.1171 29.4668 44.1171 29.4668C44.1171 29.4668 44.5236 29.2875 44.6456 29.0943C44.7688 28.9004 48.5827 21.6876 48.8454 21.2033C49.1079 20.7188 48.9258 20.525 48.9258 20.525L47.3331 21.5689Z" fill="url(#paint31_linear)"/>
<path d="M24.9243 17.5923V32.0078H31.6016C31.9884 32.0078 32.3274 31.8692 32.3274 31.4525V29.3026C32.3274 28.8869 32.6175 28.5642 32.9566 28.5642H43.0296C43.3831 28.5642 43.7006 28.3666 43.8847 28.0417C44.7077 26.5889 46.9746 22.3758 47.1461 22.0361C47.3556 21.6215 47.226 21.3813 46.7406 21.3813H33.392C32.8113 21.3813 32.3751 20.9659 32.3751 20.4576V18.101C32.3751 17.7775 32.1816 17.5925 31.7462 17.5925H24.9243V17.5923Z" fill="url(#paint32_linear)"/>
<path d="M1.53711 29.1719L2.8294 28.4238C2.8294 28.4238 2.68137 28.3623 2.91398 27.9177C3.14693 27.4731 5.32888 23.2262 5.32888 23.2262L4.84201 23.1256L1.53711 29.1719Z" fill="url(#paint33_linear)"/>
<path d="M1.4204 28.6213C1.09699 29.1769 1.16211 29.3926 1.16211 29.3926L1.93782 28.8988C1.93782 28.8988 5.39695 22.5103 5.75258 21.7693C6.10838 21.0288 5.5782 20.7271 5.5782 20.7271C5.5782 20.7271 1.7438 28.0659 1.4204 28.6213Z" fill="url(#paint34_linear)"/>
<path d="M1.94373 29.6011C1.89246 29.634 1.41967 29.6897 1.32727 29.6011C1.23474 29.5135 1.08018 29.4449 1.2036 29.3464C1.32739 29.2479 2.84791 28.3851 2.84791 28.3851C2.84791 28.3851 2.66322 28.483 4.22563 28.483H16.7235C17.0525 28.483 17.3606 28.6986 17.402 28.836C17.4431 28.9737 17.3607 29.0322 17.2581 29.013C17.1557 28.9931 16.8881 28.9146 16.8264 28.8162C16.7648 28.7184 16.9087 28.6399 16.004 28.6399C15.0996 28.6399 8.19286 28.7383 6.63095 28.8754C5.06854 29.013 3.01234 28.9147 1.94373 29.6012V29.6011ZM48.1064 20.2603C48.1575 20.2281 48.6309 20.1725 48.7232 20.2603C48.8156 20.3486 48.97 20.4173 48.8466 20.5156C48.7232 20.6135 47.2022 21.477 47.2022 21.477C47.2022 21.477 47.3866 21.379 45.8246 21.379H33.3263C32.9975 21.379 32.6892 21.1636 32.6484 21.0259C32.6071 20.8881 32.6891 20.8291 32.7914 20.849C32.8951 20.8689 33.1619 20.9474 33.2238 21.0451C33.2852 21.1437 33.1411 21.2215 34.046 21.2215C34.9508 21.2215 41.8566 21.1239 43.4197 20.9866C44.9814 20.849 47.0379 20.9474 48.1063 20.2603H48.1064ZM5.97893 21.3955C5.97893 21.2566 6.05969 20.9944 5.99525 20.9177C5.93044 20.8401 6.12437 20.7476 6.25386 20.8244C6.38323 20.9018 6.65779 20.9633 6.69007 21.0253C6.72247 21.0868 6.67399 21.2409 6.49627 21.3029C6.31829 21.3644 6.15665 21.5034 5.88196 22.0739C5.60703 22.6455 4.03892 25.5464 4.03892 25.5464C4.03892 25.5464 4.2655 25.0836 4.16841 25.0678C4.07145 25.0525 3.84538 25.4385 3.84538 25.4385L5.97893 21.3956V21.3955ZM16.7874 21.1225C16.6536 21.1354 16.6163 20.9955 16.7305 20.9773C16.8452 20.959 16.9971 20.9503 17.1302 20.45C17.2639 19.9498 17.1687 18.432 17.1495 18.1595C17.1302 17.8868 16.9972 17.5597 17.1879 17.4144C17.3781 17.2687 17.5115 17.5781 18.0067 17.5781C18.5016 17.5781 19.6254 17.5417 19.6254 17.5417C19.6254 17.5417 18.0448 17.6501 17.7778 17.6868C17.5114 17.7234 17.2828 17.9231 17.3206 18.2867C17.3591 18.6504 17.2639 20.5232 17.1879 20.723C17.1115 20.9228 16.9779 21.1044 16.7874 21.1226V21.1225ZM27.4514 17.5529C27.2416 17.5621 31.467 17.6002 31.7332 17.6002C31.9998 17.6002 32.3044 17.6775 32.3618 17.9317C32.4189 18.1866 32.3784 19.0209 32.3784 19.0209C32.3784 19.0209 32.5096 17.95 32.7003 17.7502C32.8906 17.5497 32.8336 17.2593 32.5861 17.3132C32.3384 17.3683 30.3776 17.4269 27.4514 17.5529ZM33.0937 28.6979C32.9608 28.6791 32.8089 28.6618 32.7704 28.7705C32.7323 28.8788 32.9413 28.9515 32.7323 29.0599C32.5238 29.1689 32.3682 29.2358 32.3682 29.1449C32.3682 29.0541 32.476 28.5883 32.8751 28.5883C33.2742 28.5883 43.1224 28.5704 43.2753 28.5704C43.4267 28.5704 43.617 28.5883 43.6927 28.7339C43.7686 28.8791 43.8636 29.2415 43.9209 29.3506C43.9775 29.4594 43.8829 29.4594 43.7114 29.2415C43.5405 29.0237 43.1041 28.9334 42.7624 28.9515C42.4202 28.9696 33.0937 28.6979 33.0937 28.6979ZM43.9585 29.006C43.9585 29.006 43.8638 28.8068 43.8066 28.6791C43.7497 28.5526 43.5788 28.4988 43.5788 28.4988C43.5788 28.4988 43.7685 28.2804 44.0342 27.8094C44.3005 27.3384 45.5542 25.0892 45.687 24.7809C45.687 24.7809 45.4021 25.6158 45.953 24.926C45.953 24.926 44.1675 28.1533 44.0533 28.3712C43.9397 28.5891 43.9584 29.006 43.9584 29.006H43.9585ZM17.5396 31.5442C17.5396 31.5442 17.5622 31.805 17.4036 31.9133C17.2449 32.0217 17.1765 32.2167 17.3129 32.3036C17.4491 32.3903 17.5398 32.3469 17.6306 32.2167C17.7215 32.0869 18.0397 31.9782 18.2439 32.0218C18.2441 32.0217 17.5396 32.1077 17.5396 31.5442ZM27.3291 32.0087C27.3291 32.0087 31.1623 32.2015 31.3894 32.2116L31.7753 32.2285C31.7753 32.2285 31.3686 32.167 31.4889 32.0422L27.329 32.0087H27.3291ZM31.8722 31.9783C31.8722 31.9783 31.7589 32.1517 31.9403 32.2379C32.1224 32.3246 32.3043 32.4112 32.4177 32.2813C32.531 32.1513 32.327 31.8045 32.3494 31.5661C32.3494 31.5659 32.4403 31.9349 31.8722 31.9782" fill="white"/>
<defs>
<linearGradient id="paint0_linear" x1="5.17357" y1="21.3325" x2="5.1488" y2="30.9381" gradientUnits="userSpaceOnUse">
<stop stop-color="#C7D6EE"/>
<stop offset="0.185" stop-color="#91AFC8"/>
<stop offset="1" stop-color="#002334"/>
</linearGradient>
<linearGradient id="paint1_linear" x1="27.1717" y1="14.047" x2="33.0672" y2="20.2228" gradientUnits="userSpaceOnUse">
<stop stop-color="#E1E8F5"/>
<stop offset="0.899" stop-color="#92A5C1"/>
<stop offset="0.955" stop-color="#476886"/>
<stop offset="1" stop-color="#E1E8F5"/>
</linearGradient>
<linearGradient id="paint2_linear" x1="18.2653" y1="18.5591" x2="24.2963" y2="12.2414" gradientUnits="userSpaceOnUse">
<stop stop-color="#E1E8F5"/>
<stop offset="0.039" stop-color="#476886"/>
<stop offset="0.09" stop-color="#92A5C1"/>
<stop offset="1" stop-color="#E1E8F5"/>
</linearGradient>
<linearGradient id="paint3_linear" x1="15.2032" y1="18.7881" x2="17.1733" y2="16.8636" gradientUnits="userSpaceOnUse">
<stop stop-color="#E1E8F5"/>
<stop offset="0.157" stop-color="#C7D6EE"/>
<stop offset="1" stop-color="#E1E8F5"/>
</linearGradient>
<linearGradient id="paint4_linear" x1="34.9791" y1="18.8457" x2="32.8932" y2="16.808" gradientUnits="userSpaceOnUse">
<stop stop-color="#E1E8F5"/>
<stop offset="0.157" stop-color="#C7D6EE"/>
<stop offset="1" stop-color="#E1E8F5"/>
</linearGradient>
<linearGradient id="paint5_linear" x1="7.88301" y1="22.5944" x2="14.6472" y2="15.5086" gradientUnits="userSpaceOnUse">
<stop stop-color="#476886"/>
<stop offset="0.129" stop-color="#92A5C1"/>
<stop offset="1" stop-color="#E1E8F5"/>
</linearGradient>
<linearGradient id="paint6_linear" x1="1.17588" y1="29.8126" x2="0.394799" y2="28.6441" gradientUnits="userSpaceOnUse">
<stop stop-color="#002334"/>
<stop offset="0.107" stop-color="white"/>
<stop offset="0.185" stop-color="#91AFC8"/>
<stop offset="0.242" stop-color="#002334"/>
<stop offset="0.534" stop-color="#5E738F"/>
<stop offset="0.758" stop-color="#002334"/>
<stop offset="1" stop-color="#002334"/>
</linearGradient>
<linearGradient id="paint7_linear" x1="5.65412" y1="23.7691" x2="-0.621523" y2="27.1147" gradientUnits="userSpaceOnUse">
<stop stop-color="#91AFC8"/>
<stop offset="1" stop-color="#002334"/>
</linearGradient>
<linearGradient id="paint8_linear" x1="8.26881" y1="31.0403" x2="7.82038" y2="28.3763" gradientUnits="userSpaceOnUse">
<stop stop-color="#A5B9CC"/>
<stop offset="1" stop-color="#002334"/>
</linearGradient>
<linearGradient id="paint9_linear" x1="15.6782" y1="31.8667" x2="16.4937" y2="31.8667" gradientUnits="userSpaceOnUse">
<stop stop-color="#5E738F"/>
<stop offset="0.489" stop-color="#91AFC8"/>
<stop offset="1" stop-color="#91AFC8"/>
</linearGradient>
<linearGradient id="paint10_linear" x1="34.2011" y1="31.7975" x2="33.1915" y2="31.7975" gradientUnits="userSpaceOnUse">
<stop stop-color="#5E738F"/>
<stop offset="0.32" stop-color="#91AFC8"/>
<stop offset="1" stop-color="#91AFC8"/>
</linearGradient>
<linearGradient id="paint11_linear" x1="28.4776" y1="35.2564" x2="31.0515" y2="30.5863" gradientUnits="userSpaceOnUse">
<stop stop-color="#A5B9CC"/>
<stop offset="1" stop-color="#002334"/>
</linearGradient>
<linearGradient id="paint12_linear" x1="19.7057" y1="32.0037" x2="22.2996" y2="36.71" gradientUnits="userSpaceOnUse">
<stop stop-color="#002334"/>
<stop offset="0.775" stop-color="#A5B9CC"/>
<stop offset="1" stop-color="#A5B9CC"/>
</linearGradient>
<linearGradient id="paint13_linear" x1="11.3415" y1="18.8233" x2="22.9253" y2="39.8408" gradientUnits="userSpaceOnUse">
<stop stop-color="#FFEFCF"/>
<stop offset="0.461" stop-color="#FFE4A6"/>
<stop offset="1" stop-color="#BC956E"/>
</linearGradient>
<linearGradient id="paint14_linear" x1="37.4573" y1="31.9972" x2="40.7653" y2="28.1346" gradientUnits="userSpaceOnUse">
<stop stop-color="#5E738F"/>
<stop offset="0.607" stop-color="#91AFC8"/>
<stop offset="1" stop-color="#C7DFF4"/>
</linearGradient>
<linearGradient id="paint15_linear" x1="40.0904" y1="16.7362" x2="44.4041" y2="24.5629" gradientUnits="userSpaceOnUse">
<stop stop-color="#E1E8F5"/>
<stop offset="0.815" stop-color="#7F97B4"/>
<stop offset="0.904" stop-color="#476886"/>
<stop offset="1" stop-color="#002334"/>
</linearGradient>
<linearGradient id="paint16_linear" x1="44.1721" y1="29.928" x2="51.195" y2="17.1857" gradientUnits="userSpaceOnUse">
<stop stop-color="#8CA0B5"/>
<stop offset="0.14" stop-color="#E1E8F5"/>
<stop offset="0.815" stop-color="#7F97B4"/>
<stop offset="0.904" stop-color="#476886"/>
<stop offset="1" stop-color="#002334"/>
</linearGradient>
<linearGradient id="paint17_linear" x1="42.1798" y1="30.0762" x2="44.788" y2="28.4988" gradientUnits="userSpaceOnUse">
<stop stop-color="#002334"/>
<stop offset="0.815" stop-color="#A5B9CC"/>
<stop offset="0.888" stop-color="#002334"/>
<stop offset="1" stop-color="#002334"/>
</linearGradient>
<linearGradient id="paint18_linear" x1="5.84214" y1="25.8568" x2="14.1751" y2="34.5859" gradientUnits="userSpaceOnUse">
<stop stop-color="#D4BC7B"/>
<stop offset="0.332" stop-color="#7F5F39"/>
<stop offset="1" stop-color="#D4BC7B"/>
</linearGradient>
<linearGradient id="paint19_linear" x1="40.8209" y1="26.7603" x2="34.8688" y2="32.9953" gradientUnits="userSpaceOnUse">
<stop stop-color="#D4BC7B"/>
<stop offset="0.332" stop-color="#7F5F39"/>
<stop offset="1" stop-color="#D4BC7B"/>
</linearGradient>
<linearGradient id="paint20_linear" x1="44.7551" y1="16.9726" x2="35.1346" y2="27.0505" gradientUnits="userSpaceOnUse">
<stop stop-color="#D4BC7B"/>
<stop offset="0.332" stop-color="#7F5F39"/>
<stop offset="1" stop-color="#D4BC7B"/>
</linearGradient>
<linearGradient id="paint21_linear" x1="16.477" y1="30.8912" x2="17.7948" y2="30.8912" gradientUnits="userSpaceOnUse">
<stop stop-color="#D3BD8B"/>
<stop offset="1" stop-color="#7F5F39"/>
</linearGradient>
<linearGradient id="paint22_linear" x1="33.3903" y1="30.8776" x2="32.0723" y2="30.8776" gradientUnits="userSpaceOnUse">
<stop stop-color="#D3BD8B"/>
<stop offset="1" stop-color="#7F5F39"/>
</linearGradient>
<linearGradient id="paint23_linear" x1="20.1404" y1="31.2835" x2="22.4231" y2="35.4252" gradientUnits="userSpaceOnUse">
<stop stop-color="#7F5F39"/>
<stop offset="0.646" stop-color="#D3BD8B"/>
<stop offset="0.888" stop-color="#FFE4A6"/>
<stop offset="1" stop-color="#FFE4A6"/>
</linearGradient>
<linearGradient id="paint24_linear" x1="29.7255" y1="31.2879" x2="27.2318" y2="35.8125" gradientUnits="userSpaceOnUse">
<stop stop-color="#7F5F39"/>
<stop offset="0.455" stop-color="#D3BD8B"/>
<stop offset="0.888" stop-color="#FFE4A6"/>
<stop offset="1" stop-color="#FFE4A6"/>
</linearGradient>
<linearGradient id="paint25_linear" x1="18.8132" y1="18.9993" x2="24.2069" y2="13.3492" gradientUnits="userSpaceOnUse">
<stop stop-color="#D4BC7B"/>
<stop offset="0.039" stop-color="#7F5F39"/>
<stop offset="0.107" stop-color="#D1AC75"/>
<stop offset="1" stop-color="#D4BC7B"/>
</linearGradient>
<linearGradient id="paint26_linear" x1="31.093" y1="19.0734" x2="25.6051" y2="13.3245" gradientUnits="userSpaceOnUse">
<stop stop-color="#D4BC7B"/>
<stop offset="0.039" stop-color="#7F5F39"/>
<stop offset="0.107" stop-color="#D1AC75"/>
<stop offset="1" stop-color="#D4BC7B"/>
</linearGradient>
<linearGradient id="paint27_linear" x1="15.9943" y1="19.6723" x2="18.0064" y2="17.7068" gradientUnits="userSpaceOnUse">
<stop stop-color="#FFE292"/>
<stop offset="0.157" stop-color="#D1AC75"/>
<stop offset="1" stop-color="#FFE292"/>
</linearGradient>
<linearGradient id="paint28_linear" x1="33.9537" y1="19.6563" x2="31.856" y2="17.6073" gradientUnits="userSpaceOnUse">
<stop stop-color="#FFE292"/>
<stop offset="0.157" stop-color="#D1AC75"/>
<stop offset="1" stop-color="#FFE292"/>
</linearGradient>
<linearGradient id="paint29_linear" x1="8.82133" y1="23.3037" x2="15.0806" y2="16.7469" gradientUnits="userSpaceOnUse">
<stop stop-color="#7F5F39"/>
<stop offset="1" stop-color="#BD9B6A"/>
</linearGradient>
<linearGradient id="paint30_linear" x1="44.549" y1="24.1755" x2="47.212" y2="26.9651" gradientUnits="userSpaceOnUse">
<stop stop-color="#7F5F39"/>
<stop offset="1" stop-color="#D4BC7B"/>
</linearGradient>
<linearGradient id="paint31_linear" x1="43.8645" y1="29.2405" x2="49.5936" y2="17.6808" gradientUnits="userSpaceOnUse">
<stop stop-color="#A78A5E"/>
<stop offset="0.764" stop-color="#7F5F39"/>
<stop offset="0.916" stop-color="#674C2B"/>
<stop offset="1" stop-color="#674C2B"/>
</linearGradient>
<linearGradient id="paint32_linear" x1="39.9461" y1="31.208" x2="23.3607" y2="10.5027" gradientUnits="userSpaceOnUse">
<stop stop-color="#FFEFCF"/>
<stop offset="0.461" stop-color="#FFE4A6"/>
<stop offset="1" stop-color="#BC956E"/>
</linearGradient>
<linearGradient id="paint33_linear" x1="1.02817" y1="28.4705" x2="6.80767" y2="22.4162" gradientUnits="userSpaceOnUse">
<stop stop-color="#7F5F39"/>
<stop offset="1" stop-color="#E9CF98"/>
</linearGradient>
<linearGradient id="paint34_linear" x1="0.219382" y1="28.1931" x2="7.99453" y2="20.0484" gradientUnits="userSpaceOnUse">
<stop stop-color="#7F5F39"/>
<stop offset="1" stop-color="#E4CB90"/>
</linearGradient>
</defs>
</svg>
