<svg width="50" height="50" viewBox="0 0 50 50" fill="none" xmlns="http://www.w3.org/2000/svg">
<g clip-path="url(#clip0)">
<path d="M49.9949 25.9223L49.7092 28.6478C49.7001 28.7342 49.68 28.8155 49.6509 28.8899C49.4285 29.4658 48.675 29.6829 48.17 29.2478C47.9366 29.0468 47.7032 28.8478 47.4708 28.6528C36.2712 19.2108 26.3436 15.7806 25.1254 15.3823C25.0441 15.3557 24.9569 15.3554 24.8755 15.382C23.6357 15.7872 13.3156 19.3522 1.83012 29.2477C1.25874 29.74 0.370358 29.3974 0.290865 28.6477L0.00512365 25.9222C-0.0189974 25.688 0.0423306 25.4589 0.183151 25.271C1.95512 22.9226 14.2851 6.94887 24.6671 3.37612C24.8827 3.3019 25.1163 3.30161 25.332 3.37583C33.8872 6.32221 43.7798 17.704 47.9789 22.9205C48.8713 24.029 49.506 24.8591 49.8169 25.2711C49.9577 25.459 50.0191 25.6882 49.9949 25.9223Z" fill="#CCCCCC"/>
<path d="M49.9949 25.9223L49.7092 28.6478C49.7001 28.7342 49.68 28.8155 49.6509 28.8899C49.4285 29.4658 48.675 29.6829 48.17 29.2478C47.9366 29.0468 47.7032 28.8478 47.4708 28.6528C36.2712 19.2108 26.3436 15.7806 25.1254 15.3823C25.0441 15.3557 24.9569 15.3554 24.8755 15.382C23.6357 15.7872 13.3156 19.3522 1.83012 29.2477C1.25874 29.74 0.370358 29.3974 0.290865 28.6477L0.00512365 25.9222C-0.0189974 25.688 0.0423306 25.4589 0.183151 25.271C1.95512 22.9226 14.2851 6.94887 24.6671 3.37612C24.8827 3.3019 25.1163 3.30161 25.332 3.37583C33.8872 6.32221 43.7798 17.704 47.9789 22.9205C48.8713 24.029 49.506 24.8591 49.8169 25.2711C49.9577 25.459 50.0191 25.6882 49.9949 25.9223Z" fill="url(#paint0_radial)"/>
<path d="M49.7092 28.6472L49.6509 28.8894C49.4285 29.4653 48.675 29.6824 48.17 29.2472C36.6846 19.3517 26.3644 15.7868 25.1247 15.3815C25.0437 15.3551 24.9565 15.3551 24.8756 15.3815C23.6359 15.7868 13.3157 19.3517 1.83027 29.2472C1.25888 29.7396 0.370508 29.3969 0.291016 28.6472C0.291016 28.6472 17.9579 12.4102 25.0001 12.4102C32.0424 12.4102 49.7092 28.6472 49.7092 28.6472Z" fill="#A6A6A6"/>
<path d="M49.9948 25.9217L49.7091 28.6472C49.7 28.7336 49.6799 28.8149 49.6508 28.8893C49.4284 29.4652 48.6749 29.6823 48.1699 29.2471C47.9365 29.0462 47.7031 28.8472 47.4707 28.6522C47.8762 26.7226 47.9758 24.5449 47.9787 22.9199C48.8711 24.0284 49.5059 24.8585 49.8167 25.2705C49.9576 25.4584 50.0191 25.6876 49.9948 25.9217Z" fill="#8C8C8C"/>
<path d="M26.4083 25.528H23.8939L23.8936 25.5277V23.016L23.8939 23.0156H26.4083L26.4086 23.016V25.5277L26.4083 25.528Z" fill="#FCEE21"/>
<path d="M15.3255 14.0436C15.2137 14.0999 15.2848 14.2687 15.4033 14.2282C17.4326 13.5368 21.3048 12.4106 24.9999 12.4106C28.683 12.4106 32.478 13.5295 34.473 14.2215C34.5912 14.2625 34.6636 14.0944 34.5523 14.0374C32.33 12.8978 27.8562 10.8027 24.9999 10.8027C22.1384 10.8027 17.5822 12.9054 15.3255 14.0436Z" fill="#8C8C8C"/>
<path d="M49.9947 43.1235L49.709 45.849C49.6999 45.9355 49.6798 46.0169 49.6507 46.0912C49.4283 46.6671 48.6748 46.8842 48.1698 46.449C47.9364 46.2481 47.703 46.049 47.4706 45.8541C36.271 36.4119 26.3434 32.9819 25.1252 32.5835C25.0439 32.557 24.9567 32.5567 24.8753 32.5832C23.6355 32.9885 13.3154 36.5534 1.82993 46.4489C1.25854 46.9413 0.370162 46.5986 0.29067 45.8489L0.00512365 43.1235C-0.0189974 42.8894 0.0423306 42.6603 0.183151 42.4724C1.95493 40.1238 14.2849 24.1501 24.6669 20.5773C24.8825 20.5031 25.1161 20.5028 25.3318 20.577C33.887 23.5234 43.7796 34.9052 47.9787 40.1217C48.8711 41.2302 49.5058 42.0603 49.8167 42.4723C49.9575 42.6603 50.0189 42.8895 49.9947 43.1235Z" fill="#CCCCCC"/>
<path d="M49.9947 43.1235L49.709 45.849C49.6999 45.9355 49.6798 46.0169 49.6507 46.0912C49.4283 46.6671 48.6748 46.8842 48.1698 46.449C47.9364 46.2481 47.703 46.049 47.4706 45.8541C36.271 36.4119 26.3434 32.9819 25.1252 32.5835C25.0439 32.557 24.9567 32.5567 24.8753 32.5832C23.6355 32.9885 13.3154 36.5534 1.82993 46.4489C1.25854 46.9413 0.370162 46.5986 0.29067 45.8489L0.00512365 43.1235C-0.0189974 42.8894 0.0423306 42.6603 0.183151 42.4724C1.95493 40.1238 14.2849 24.1501 24.6669 20.5773C24.8825 20.5031 25.1161 20.5028 25.3318 20.577C33.887 23.5234 43.7796 34.9052 47.9787 40.1217C48.8711 41.2302 49.5058 42.0603 49.8167 42.4723C49.9575 42.6603 50.0189 42.8895 49.9947 43.1235Z" fill="url(#paint1_radial)"/>
<path d="M49.7092 45.8504L49.6509 46.0925C49.4285 46.6684 48.675 46.8855 48.17 46.4504C36.6846 36.5549 26.3644 32.9899 25.1247 32.5847C25.0437 32.5582 24.9565 32.5582 24.8756 32.5847C23.6359 32.9899 13.3157 36.5549 1.83027 46.4504C1.25888 46.9427 0.370508 46.6001 0.291016 45.8504C0.291016 45.8504 17.9579 29.6133 25.0001 29.6133C32.0424 29.6133 49.7092 45.8504 49.7092 45.8504Z" fill="#A6A6A6"/>
<path d="M49.9948 43.1228L49.7091 45.8483C49.7 45.9347 49.6799 46.0162 49.6508 46.0905C49.4284 46.6664 48.6749 46.8835 48.1699 46.4483C47.9365 46.2473 47.7031 46.0483 47.4707 45.8534C47.8762 43.9238 47.9758 41.7461 47.9787 40.1211C48.8711 41.2296 49.5059 42.0597 49.8167 42.4717C49.9576 42.6596 50.0191 42.8888 49.9948 43.1228Z" fill="#8C8C8C"/>
<path d="M15.3255 31.2447C15.2137 31.3011 15.2848 31.4698 15.4033 31.4294C17.4326 30.738 21.3048 29.6118 24.9999 29.6118C28.683 29.6118 32.478 30.7306 34.473 31.4226C34.5912 31.4637 34.6636 31.2956 34.5523 31.2386C32.33 30.0989 27.8562 28.0039 24.9999 28.0039C22.1384 28.0038 17.5822 30.1064 15.3255 31.2447Z" fill="#8C8C8C"/>
</g>
<defs>
<radialGradient id="paint0_radial" cx="0" cy="0" r="1" gradientUnits="userSpaceOnUse" gradientTransform="translate(7.12449 13.8029) scale(52.2178 27.2718)">
<stop stop-color="white"/>
<stop offset="0.041" stop-color="#FAFAF8"/>
<stop offset="0.225" stop-color="#F8F8F5"/>
<stop offset="0.287" stop-color="#DADAD7"/>
<stop offset="0.413" stop-color="#A3A4A1"/>
<stop offset="0.52" stop-color="#7E7F7D"/>
<stop offset="0.6" stop-color="#686866"/>
<stop offset="0.646" stop-color="#5F5F5D"/>
<stop offset="0.739" stop-color="#565754"/>
<stop offset="0.899" stop-color="#3B3A37"/>
<stop offset="1"/>
</radialGradient>
<radialGradient id="paint1_radial" cx="0" cy="0" r="1" gradientUnits="userSpaceOnUse" gradientTransform="translate(7.12447 31.0041) scale(52.2176 27.272)">
<stop stop-color="white"/>
<stop offset="0.041" stop-color="#FAFAF8"/>
<stop offset="0.225" stop-color="#F8F8F5"/>
<stop offset="0.287" stop-color="#DADAD7"/>
<stop offset="0.413" stop-color="#A3A4A1"/>
<stop offset="0.52" stop-color="#7E7F7D"/>
<stop offset="0.6" stop-color="#686866"/>
<stop offset="0.646" stop-color="#5F5F5D"/>
<stop offset="0.739" stop-color="#565754"/>
<stop offset="0.899" stop-color="#3B3A37"/>
<stop offset="1"/>
</radialGradient>
<clipPath id="clip0">
<rect width="50" height="50" fill="white"/>
</clipPath>
</defs>
</svg>
