<svg width="50" height="50" viewBox="0 0 50 50" fill="none" xmlns="http://www.w3.org/2000/svg">
<rect width="50" height="50" fill="white"/>
<path fill-rule="evenodd" clip-rule="evenodd" d="M45.774 1.18037C43.6254 0.716109 33.7836 0 25.1083 0C16.3094 0 6.37424 0.716109 4.22568 1.18037C3.18057 1.40643 0 2.09371 0 5.68427C0 10.3041 0.123853 33.5154 2.56848 36.7695C6.78886 42.3867 23.8878 49.617 24.6135 49.9222C24.7334 49.9727 24.8626 49.9991 24.9933 50C25.1239 50.0008 25.2534 49.976 25.3741 49.9271C26.1284 49.6212 43.8872 42.3761 47.4743 36.707C49.8116 33.0129 50 5.95493 50 5.68457C50.0003 2.09371 46.8188 1.40643 45.774 1.18037Z" fill="black"/>
<path fill-rule="evenodd" clip-rule="evenodd" d="M45.8154 35.714C42.823 40.444 27.6149 46.9336 25.0068 48.0205C22.4521 46.9181 7.72599 40.4227 4.14141 35.6512C2.54349 33.5247 1.94824 16.1418 1.94824 5.68415C1.94824 4.17485 2.68013 3.45541 4.64868 3.02969C6.49369 2.63097 16.1724 1.89453 25.1085 1.89453C33.9174 1.89453 43.5068 2.63097 45.3518 3.02969C47.3201 3.45541 48.0517 4.17455 48.0517 5.68415C48.0517 11.0768 47.4676 33.1014 45.8154 35.714Z" fill="white"/>
<path fill-rule="evenodd" clip-rule="evenodd" d="M25.79 13.1837C26.0605 12.2892 28.0709 11.0002 28.3701 11.2748C28.3713 10.9441 29.8326 9.64262 30.3614 9.87475C30.2407 9.47512 32.2454 8.25561 32.7274 8.60062C32.8303 8.1039 35.7333 7.73006 36.3085 8.20615C36.6399 7.84021 39.2155 8.44708 39.2673 9.08612C39.7518 8.67253 42.3786 11.3731 42.3808 12.7365C42.382 13.262 39.9118 11.1191 38.3551 11.584C35.7794 12.3529 32.5006 15.0201 29.6538 19.0255C28.8708 20.1278 26.8398 20.5256 26.4074 18.7363C26.4074 18.7366 25.5196 14.0785 25.79 13.1837Z" fill="black"/>
<path fill-rule="evenodd" clip-rule="evenodd" d="M25.5677 38.0785C25.1646 37.4158 25.2922 36.6166 25.6341 36.3001C26.1112 35.8586 27.4854 36.22 27.5968 35.8152C27.8635 34.8509 27.1653 34.5131 27.2854 33.1844C27.3275 32.7198 28.2323 29.3505 28.4625 29.0525C28.6562 28.8019 29.8121 28.4089 30.1181 28.2939C30.3163 28.0706 30.4501 27.8157 30.4647 27.3681C28.9495 26.9206 28.5436 28.2891 28.3271 28.2363C28.1106 28.1835 28.4385 26.7385 28.6282 26.581C28.8169 26.4229 30.5902 26.04 30.7895 25.7366C30.9992 25.4164 31.8175 22.3417 30.7895 22.2892C30.8719 22.3071 30.7365 22.0853 30.8163 22.1035C32.9412 22.5875 34.3772 12.6967 39.6096 12.7364C44.8052 12.7759 44.5341 20.0948 44.2203 20.3679C43.6378 20.8749 42.7768 20.6874 42.7481 21.1574C42.4776 25.631 38.3652 30.4207 37.1204 29.9992C36.3763 29.7474 37.0125 27.4734 37.364 27.4206C37.0393 27.2889 37.364 24.947 37.7431 24.8942C37.4452 24.6836 37.7156 22.5259 38.0947 22.4995C37.9113 22.336 37.9309 20.8582 37.5422 20.1236C37.243 19.558 35.9542 19.2543 35.8762 20.6312C36.6605 20.2629 36.7148 22.7365 36.3898 23.1577C36.065 23.5788 33.9816 24.5262 33.3327 25.052C33.387 26.1052 32.3584 30.1576 31.601 31.3158C30.8435 32.4731 30.0857 33.1577 29.653 34.2103C29.2197 35.2629 29.4976 37.0575 28.5165 37.8682C28.0825 38.2269 25.7549 38.3868 25.5677 38.0785Z" fill="black"/>
<path fill-rule="evenodd" clip-rule="evenodd" d="M43.4249 21.499C43.668 21.0954 44.6666 20.9358 45.0269 21.1306C45.4503 21.3597 45.7629 24.578 45.3298 24.6832C45.7089 24.8708 45.2294 27.3119 44.7511 27.315C45.1302 27.473 44.3453 29.8675 43.8854 29.7886C44.1559 30.1572 42.8843 32.1047 42.5327 31.9991C42.4241 33.9993 36.2236 34.954 36.364 33.262C36.4317 32.4476 37.3589 33.6449 41.5316 27.3146C43.3719 24.523 43.0609 22.1025 43.4249 21.499ZM24.2476 13.1988C23.8146 12.2776 22.0376 11.0414 21.7384 11.316C21.7368 10.9852 20.2759 9.68379 19.7468 9.91562C19.8672 9.51599 17.8631 8.29649 17.3811 8.6418C17.2778 8.14477 14.3749 7.77124 13.7996 8.24703C13.4683 7.88108 10.893 8.48795 10.8412 9.12699C10.3564 8.71341 7.72986 11.414 7.72705 12.7773C7.72612 13.3029 10.1966 11.16 11.7528 11.6249C14.3284 12.3938 17.6076 15.061 20.4543 19.0666C21.2374 20.1687 23.2246 20.5665 23.658 18.7772C23.658 18.7778 24.6806 14.1197 24.2476 13.1988Z" fill="black"/>
<path fill-rule="evenodd" clip-rule="evenodd" d="M24.4592 38.1215C24.8623 37.4069 24.7893 36.6334 24.447 36.317C23.9697 35.8755 22.6229 36.2629 22.5112 35.8582C22.2445 34.8938 22.9424 34.5567 22.8229 33.2274C22.7811 32.7628 21.8757 29.3935 21.6455 29.0955C21.4518 28.8442 20.2959 28.4519 19.9899 28.3369C19.7921 28.1142 19.6582 27.8593 19.6433 27.4111C21.1585 26.9635 21.5644 28.332 21.7809 28.2792C21.9974 28.2264 21.6695 26.7815 21.4802 26.624C21.2908 26.4659 19.545 26.0569 19.3188 25.7795C19.0761 25.4822 18.2905 22.3847 19.3188 22.3322C19.2361 22.3501 19.3715 22.1283 19.292 22.1465C17.1671 22.6305 15.7308 12.7397 10.4984 12.7794C5.30245 12.8189 5.57418 20.1377 5.88803 20.4108C6.47049 20.9179 7.33153 20.7304 7.35992 21.2004C7.6304 25.6739 11.7428 30.4637 12.9876 30.0422C13.7317 29.7903 13.0959 27.5158 12.7443 27.4636C13.069 27.3319 12.7443 24.99 12.3655 24.9372C12.6632 24.7266 12.3927 22.5689 12.0139 22.5425C12.1974 22.3789 12.1777 20.9012 12.5665 20.1663C12.8656 19.601 14.1547 19.2972 14.2327 20.6739C13.4478 20.3052 13.3941 22.7792 13.7189 23.2003C14.0433 23.6215 16.1267 24.5688 16.7762 25.0947C16.7219 26.1479 17.7502 30.2003 18.5077 31.3579C19.2652 32.5158 20.0226 33.2004 20.4556 34.253C20.8924 35.315 21.0946 37.4154 21.619 37.8848C22.1088 38.323 24.2823 38.4355 24.4592 38.1215ZM25.0541 40.153C23.4309 40.1797 22.0065 39.0536 22.2947 38.7532C22.8516 38.1719 23.8234 39.0218 24.9864 38.5214C26.1233 38.9951 27.0695 38.174 27.8135 38.7111C28.236 39.0157 26.678 40.1272 25.0541 40.153Z" fill="black"/>
<path fill-rule="evenodd" clip-rule="evenodd" d="M6.68298 21.5418C6.43964 21.1385 5.44133 21.0839 5.08131 21.2787C4.65827 21.5078 4.34537 24.6208 4.77807 24.7261C4.39934 24.9133 4.87915 27.3547 5.3571 27.3575C4.97836 27.5152 5.76297 29.91 6.22282 29.8311C5.95234 30.1997 7.22394 32.1472 7.57554 32.0416C7.68379 34.0419 13.8846 34.9965 13.7442 33.3045C13.6768 32.4901 12.7496 33.6874 8.57635 27.3572C6.73633 24.5661 7.04737 22.1459 6.68298 21.5418Z" fill="black"/>
</svg>
