<svg width="50" height="50" viewBox="0 0 50 50" fill="none" xmlns="http://www.w3.org/2000/svg">
<path d="M24.9996 49.9995C38.7008 49.9995 49.8078 38.9978 49.8078 25.4265C49.8078 11.8552 38.7008 0.853516 24.9996 0.853516C11.2984 0.853516 0.191406 11.8552 0.191406 25.4265C0.191406 38.9978 11.2984 49.9995 24.9996 49.9995Z" fill="black"/>
<path d="M7.32221 7.25278C2.60045 11.9298 0 18.1486 0 24.7628C0 31.3771 2.60045 37.5959 7.32221 42.2726C12.044 46.9493 18.322 49.5254 24.9999 49.5254C31.6777 49.5254 37.9558 46.9493 42.6778 42.2726C47.3993 37.5959 50 31.3771 50 24.7628C50 18.1486 47.3993 11.9298 42.6778 7.25278C37.956 2.57579 31.6774 0 24.9999 0C18.3223 0 12.0442 2.57579 7.32221 7.25278Z" fill="#929496"/>
<path d="M7.59298 7.52238C12.2425 2.91666 18.4242 0.380859 24.9994 0.380859C31.5746 0.380859 37.7562 2.91722 42.4057 7.52238C47.0558 12.1278 49.6156 18.2509 49.6156 24.764C49.6156 31.2769 47.0553 37.3999 42.4057 42.0056C37.7562 46.6114 31.5746 49.1472 24.9994 49.1472C18.4236 49.1472 12.2419 46.6105 7.59298 42.0056C2.94317 37.3999 0.382812 31.2769 0.382812 24.764C0.382812 18.2509 2.94345 12.1278 7.59298 7.52238Z" fill="url(#paint0_linear)"/>
<path d="M12.873 43.0221C14.5364 44.0124 16.4155 44.6475 16.4155 44.6475C18.5342 45.3252 22.0935 45.9375 24.7941 45.8085C28.781 45.9308 31.125 45.5443 33.6339 44.6909C37.1531 43.4051 39.4632 41.4129 39.4632 41.4129C39.4632 41.4129 39.9651 41.0533 40.469 40.3697C41.059 39.5683 41.6661 38.4248 41.6661 38.4248C41.6661 38.4248 45.1688 32.2575 45.9281 25.4743C46.8861 18.4054 44.6351 13.1401 44.6351 13.1401C44.6351 13.1401 44.3997 12.4196 43.9652 11.6692C43.521 10.9042 42.8769 10.1088 42.8769 10.1088C37.9587 5.2372 31.8948 3.50977 24.9041 3.50977C18.6369 3.50977 12.8926 5.53153 8.42589 8.89175C8.42589 8.89175 6.75472 10.306 5.69919 12.3807C4.69825 14.3481 4.31038 16.9822 4.31038 16.9822C4.31038 16.9822 3.5921 22.3428 4.78924 28.4624C5.79644 33.9126 8.23736 38.2347 8.23736 38.2347C8.23736 38.2347 8.97641 39.6841 9.86588 40.7488C9.86559 40.7494 11.0238 42.0636 12.873 43.0221Z" fill="url(#paint1_radial)"/>
<path d="M24.0042 6.83025C21.3313 6.8832 18.1007 7.2457 15.7746 7.75381C12.8875 8.38502 11.3697 9.13283 11.2411 9.19733C11.1095 9.25225 9.74 9.84458 8.9856 11.0797C8.16125 12.4291 8.00826 14.3833 8.00229 14.4658C8.0003 14.4875 7.81348 16.5464 7.81348 18.8228C7.81348 19.396 7.82542 19.9827 7.85499 20.5542C8.02959 23.9288 8.65205 27.1 8.6583 27.1315C8.66171 27.1535 9.17469 30.2802 9.92341 33.1118C10.7367 36.1881 11.8118 39.0669 11.8223 39.0951C11.8334 39.1261 12.1417 39.986 12.8509 40.6676C13.512 41.303 14.5152 41.745 14.6014 41.7824C14.7154 41.8382 16.4483 42.679 18.4706 43.1367C20.7989 43.6642 23.4602 43.7946 23.487 43.7963C23.5291 43.7971 26.9357 43.8552 29.6362 43.4972C32.283 43.1462 34.2297 42.3888 34.3113 42.3567L34.3216 42.3522C34.3591 42.3356 35.252 41.9444 35.939 41.5661C36.5322 41.2397 36.9166 40.9332 36.9593 40.898C37.0292 40.8487 37.6195 40.4189 38.0378 39.6773C38.48 38.8951 38.8016 37.9023 38.8349 37.7654C38.8898 37.6127 39.5748 35.4777 40.1497 33.1304C40.9465 29.8814 41.644 26.03 41.6506 25.9911C41.6571 25.9519 42.1749 22.6537 42.2887 19.6723C42.3049 19.2507 42.3114 18.8344 42.3114 18.4316C42.3114 16.2127 42.1044 14.4005 42.0965 14.3298C42.0865 14.1917 41.9099 12.0362 40.8157 10.6397C39.7434 9.27225 37.8408 8.72047 37.6568 8.66921C37.4884 8.60358 35.6484 7.89633 32.7755 7.40314C30.334 6.9846 27.0554 6.77025 24.0042 6.83025Z" fill="white"/>
<path d="M23.5056 43.2284C23.488 43.2275 20.8764 43.0988 18.5984 42.5831C16.6193 42.1353 14.8677 41.2796 14.8503 41.2714L14.8438 41.2677L14.8367 41.2646C14.827 41.2601 13.8511 40.8371 13.2508 40.2608C12.6423 39.6761 12.3656 38.9114 12.3628 38.9038C12.3505 38.8705 11.2851 36.0173 10.4792 32.9694C9.73759 30.1647 9.22915 27.0641 9.22375 27.0331C9.21579 26.9923 8.60158 23.8594 8.42897 20.5268C8.28395 17.7259 8.572 14.546 8.57513 14.5141C8.57684 14.4902 8.72527 12.607 9.4774 11.3756C10.1533 10.2692 11.4585 9.7259 11.4716 9.72027L11.483 9.71576L11.4941 9.70984C11.5091 9.70224 13.0245 8.9395 15.8988 8.31111C18.1912 7.81004 21.3778 7.45233 24.0163 7.4005C27.0328 7.34107 30.271 7.55232 32.6778 7.9658C35.5641 8.46152 37.4397 9.19807 37.4584 9.20539L37.4741 9.2113L37.4906 9.21581C37.5091 9.22088 39.3796 9.73604 40.3629 10.9906C41.3618 12.2648 41.5236 14.3581 41.525 14.3792L41.5262 14.3919C41.529 14.413 41.7383 16.2185 41.7383 18.4312C41.7383 18.8278 41.7318 19.2376 41.7156 19.6528C41.603 22.5998 41.0903 25.8662 41.0851 25.8989C41.0792 25.9307 40.3842 29.7658 39.5923 32.9976C39.0053 35.3934 38.241 37.5126 38.2333 37.5335L38.2282 37.5487L38.2242 37.5642C38.2214 37.5752 37.9609 38.6503 37.5372 39.4009C37.1684 40.0538 36.6253 40.438 36.6193 40.4411L36.6108 40.447L36.602 40.4543C36.5977 40.4571 36.2283 40.7571 35.6607 41.0697C35.0076 41.4289 34.1323 41.8144 34.0951 41.8299C34.0331 41.8542 32.1037 42.5963 29.5598 42.9338C26.9034 43.2864 23.5394 43.2292 23.5056 43.2284Z" fill="url(#paint2_radial)"/>
<path d="M24.0138 7.30478C21.3696 7.35717 18.1763 7.71516 15.8778 8.21765C12.9873 8.84941 11.4652 9.61722 11.4501 9.62483L11.439 9.63046C11.4214 9.63722 10.086 10.1952 9.39532 11.3255C8.63523 12.5696 8.48537 14.4274 8.4794 14.506C8.47656 14.5364 8.18822 17.7288 8.33324 20.5308C8.50215 23.7972 9.10357 26.9169 9.12916 27.0478C9.13428 27.0783 9.64129 30.174 10.3866 32.9923C11.189 36.0272 12.2622 38.9072 12.273 38.9359C12.275 38.9421 12.5559 39.7249 13.1841 40.3282C13.8026 40.9228 14.789 41.3472 14.7987 41.3515C14.8248 41.3641 16.5736 42.2218 18.5769 42.675C20.7642 43.1707 23.2245 43.3084 23.4977 43.3225L23.5043 43.3231C23.6436 43.3253 26.9481 43.376 29.5719 43.0279C32.1328 42.6882 34.0494 41.95 34.1296 41.9187C34.1421 41.9131 35.0415 41.5188 35.7063 41.1529C36.277 40.8388 36.6464 40.5403 36.6612 40.5276L36.67 40.5208C36.6791 40.5149 37.2416 40.1158 37.6198 39.4471C38.0463 38.6917 38.3051 37.6313 38.3162 37.5862L38.3196 37.5707C38.3295 37.5448 39.0999 35.4022 39.6836 33.0196C40.4605 29.8526 41.1487 26.0767 41.1777 25.9173C41.1836 25.8804 41.6975 22.597 41.8098 19.6562C41.8254 19.263 41.8325 18.8509 41.8325 18.431C41.8325 16.252 41.6289 14.457 41.6204 14.3815L41.6193 14.37C41.6178 14.3511 41.456 12.2319 40.4375 10.9323C39.4334 9.65102 37.5339 9.12938 37.5146 9.12403L37.504 9.12093L37.4935 9.11699C37.4759 9.10967 35.6023 8.37143 32.6939 7.87176C30.2814 7.45716 27.0371 7.24535 24.0138 7.30478ZM23.508 43.1327C23.2364 43.1186 20.7915 42.9814 18.6202 42.4902C16.6436 42.0424 14.9107 41.194 14.8934 41.1856L14.8828 41.1802L14.876 41.1768C14.8655 41.172 13.9064 40.7571 13.318 40.1916C12.7283 39.6246 12.4561 38.8785 12.4536 38.8711C12.4422 38.8413 11.3725 35.97 10.5723 32.9439C9.82925 30.1337 9.32366 27.0476 9.31854 27.0166C9.2921 26.8811 8.69295 23.7738 8.52461 20.5209C8.38045 17.7324 8.66765 14.5533 8.67049 14.5215C8.67191 14.5015 8.82291 12.6293 9.55939 11.4238C10.2157 10.3495 11.4956 9.81213 11.5084 9.80706L11.5192 9.80255L11.5377 9.79354C11.5527 9.78594 13.0635 9.02714 15.919 8.4027C18.2061 7.90303 21.3852 7.54645 24.0175 7.49434C27.0286 7.43519 30.26 7.64587 32.6609 8.05822C35.5425 8.5531 37.404 9.28486 37.4222 9.29246L37.4426 9.30035L37.4637 9.30627C37.4822 9.31134 39.3242 9.8203 40.2856 11.0478C41.2664 12.2986 41.4265 14.3641 41.4282 14.3849L41.4296 14.3998C41.4387 14.4773 41.6409 16.2619 41.6409 18.4304C41.6409 18.8475 41.6338 19.2576 41.6187 19.648C41.5064 22.5779 40.9945 25.8505 40.9891 25.8832C40.9598 26.042 40.2728 29.8123 39.498 32.9743C38.9162 35.3473 38.1498 37.4803 38.1419 37.5011L38.1359 37.5166L38.1296 37.5417C38.1268 37.5527 37.8657 38.6219 37.452 39.3545C37.0971 39.9834 36.5685 40.3597 36.5628 40.3637L36.5486 40.3735L36.5401 40.3809C36.5358 40.3842 36.1679 40.6808 35.6128 40.9864C34.9554 41.3481 34.0642 41.7393 34.0551 41.7435C33.9789 41.7728 32.0833 42.5029 29.5457 42.84C26.937 43.1853 23.6467 43.1355 23.508 43.1327Z" fill="#262324"/>
<path d="M15.092 41.1754C14.9768 41.1224 14.914 41.0917 14.914 41.0917C14.9074 41.0889 14.8747 41.0745 14.8216 41.0503L14.8022 40.9354C14.3467 38.4114 13.6514 33.8001 13.4239 28.177C13.1427 21.5641 13.1535 13.4602 13.1802 9.53437V9.25046C13.2573 9.22455 13.3366 9.19835 13.4188 9.17188L13.42 9.45635C13.3929 13.3483 13.3802 21.514 13.6631 28.1668C13.8943 33.8879 14.6109 38.557 15.0638 41.0373L15.092 41.1754Z" fill="#611618"/>
<path d="M15.8442 41.4986C15.752 41.4611 15.6653 41.4248 15.5848 41.3913L15.5627 41.2141C15.2308 38.8372 14.6436 33.9912 14.3647 27.7927C14.0684 21.2029 14.1218 12.9198 14.1682 9.15427L14.1687 8.94274C14.2467 8.92021 14.3263 8.89767 14.4076 8.87514L14.4082 9.10864C14.3618 12.8483 14.3067 21.1694 14.6038 27.7822C14.889 34.1213 15.497 39.0414 15.8231 41.3473L15.8442 41.4986ZM21.4693 7.92228L21.754 42.3788L21.7585 42.8939C21.6812 42.8858 21.6013 42.8765 21.5208 42.8672L21.5148 42.3779L21.2305 7.95411L21.2245 7.74061C21.305 7.73385 21.3854 7.72709 21.4659 7.72089L21.4693 7.92228ZM24.5839 7.82736C24.6047 14.2239 24.674 35.3969 24.6971 42.552L24.6988 43.039L24.4576 43.0415V42.4886L24.3439 7.74821L24.3428 7.58485L24.5765 7.58203L24.5839 7.82736ZM25.7796 7.85919L25.6079 42.5528L25.6073 43.0227L25.3645 43.0286L25.3679 42.6472C25.398 36.4847 25.5046 14.9047 25.5399 7.81187L25.5342 7.58316C25.6175 7.584 25.7003 7.58485 25.7836 7.58626L25.7796 7.85919ZM29.0122 42.4281C29.1839 39.5731 29.5081 33.5208 29.6412 26.6725C29.7774 19.6929 29.7168 11.7498 29.6748 8.01889L29.6611 7.77891C29.7581 7.78736 29.8542 7.79609 29.95 7.80511L29.9634 8.11268C30.0046 11.8844 30.0635 19.7543 29.929 26.6778C29.7965 33.4693 29.4766 39.4788 29.3042 42.3675L29.2792 42.7801C29.1785 42.7923 29.0915 42.8038 28.9889 42.8148L29.0122 42.4281ZM37.1818 39.5985C37.0686 39.7527 36.9427 39.8973 36.8053 40.0308L36.9202 39.4179C37.4201 36.8162 38.0661 32.7913 38.3892 28.0647C38.7725 22.4462 38.8217 14.7636 38.8134 10.3981L38.8185 9.97982C38.9118 10.0316 39.0062 10.0866 39.1006 10.1457L39.1012 10.7031C39.1066 15.1187 39.0506 22.5864 38.6758 28.0842C38.4164 31.8497 37.9349 35.5969 37.2338 39.3067L37.1818 39.5985ZM39.9446 30.173C40.1519 28.5284 40.3427 26.6826 40.4744 24.733C40.7638 20.448 40.7709 15.5936 40.7343 12.5043L40.7277 11.9886C40.8486 12.259 40.9461 12.5362 41.0243 12.8023L41.03 13.2815C41.0562 16.3747 41.028 20.8041 40.7618 24.7521C40.7072 25.5628 40.6415 26.3728 40.5648 27.1817L40.4769 28.0501C40.2645 29.1224 40.0394 30.1922 39.8016 31.2593L39.9446 30.173Z" fill="#611618"/>
<path d="M36.1635 40.5376C36.0728 40.5999 35.9636 40.6706 35.8408 40.7452L35.9281 40.2523C36.4081 37.6019 37.1537 32.7911 37.4468 27.2007C37.7684 21.0596 37.7696 13.7595 37.7426 10.0227L37.7315 9.49348C37.8131 9.52249 37.91 9.55798 38.0172 9.60136L38.0306 10.0943C38.0571 13.8564 38.0539 21.1081 37.7337 27.2156C37.4488 32.652 36.7362 37.3543 36.2554 40.0588L36.1635 40.5376ZM32.6346 41.753C32.8616 39.2831 33.277 34.1707 33.4766 28.0034C33.7004 21.0796 33.7016 12.8748 33.6848 8.91129L33.676 8.34768C33.7763 8.36825 33.8747 8.38909 33.9714 8.41021L33.9725 8.95579C33.989 12.9388 33.9873 21.1112 33.7638 28.0127C33.5656 34.1397 33.1544 39.2273 32.927 41.7226L32.8974 42.0257C32.8021 42.0538 32.7072 42.0825 32.6017 42.1124L32.6346 41.753ZM31.6425 41.9865C31.8913 39.8893 32.2994 35.824 32.4669 30.5367C32.7123 22.844 32.6818 13.1421 32.65 8.65272L32.6446 8.15334C32.7396 8.16967 32.8334 8.18601 32.9267 8.20319L32.9372 8.72511C32.969 13.2489 32.9983 22.8907 32.7538 30.5465C32.5877 35.7522 32.1908 39.7769 31.94 41.9119L31.8936 42.2983C31.7981 42.3217 31.696 42.3476 31.5953 42.371L31.6425 41.9865ZM30.8372 42.1563C31.032 39.9388 31.3673 35.5466 31.5254 30.2032C31.7455 22.7352 31.6889 13.2793 31.6363 8.34881L31.6303 7.99645C31.7284 8.00969 31.8251 8.02349 31.9206 8.03757L31.9257 8.50879C31.9781 13.4846 32.0312 22.8206 31.8131 30.2114C31.6582 35.4722 31.33 39.8126 31.1341 42.0687L31.0983 42.478C30.9993 42.4986 30.906 42.518 30.8039 42.5374L30.8372 42.1563ZM29.9031 42.3448C30.068 39.7546 30.38 34.3428 30.5162 28.5375C30.6976 20.8211 30.7061 12.2129 30.6982 8.18348L30.6899 7.88013C30.7877 7.89111 30.8844 7.9021 30.9802 7.91336L30.9862 8.2553C30.9939 12.316 30.9845 20.8703 30.8039 28.5439C30.6689 34.2797 30.3635 39.6321 30.1968 42.2625L30.1718 42.6507C30.0692 42.6678 29.9864 42.6825 29.8809 42.6985L29.9031 42.3448ZM28.9147 8.04884C28.9024 12.1726 28.8612 21.528 28.7284 29.5081C28.6554 33.7949 28.5325 38.0808 28.3596 42.3648L28.3374 42.8754C28.2564 42.8822 28.1751 42.8895 28.094 42.8957L28.1173 42.4417C28.218 39.965 28.3957 35.0903 28.4896 29.5038C28.6235 21.4847 28.6644 12.0758 28.6761 7.98547L28.6778 7.7024C28.7588 7.70803 28.8393 7.71338 28.9195 7.7193L28.9147 8.04884ZM27.732 7.859C27.765 11.4983 27.8148 18.6207 27.7707 25.3327C27.7227 32.5982 27.566 39.5352 27.492 42.5217L27.4832 42.9396C27.4016 42.945 27.3206 42.9495 27.2395 42.9546L27.2506 42.6C27.3246 39.6619 27.4832 32.6638 27.5316 25.3307C27.5754 18.6587 27.527 11.5792 27.4937 7.92237L27.4909 7.63593L27.7298 7.64719L27.732 7.859ZM26.7925 7.84323C26.8414 12.0172 26.9097 19.488 26.8764 26.5337C26.8457 33.0885 26.7058 39.3668 26.6219 42.6473L26.6148 42.9867L26.3737 42.9968L26.3833 42.5997C26.4675 39.3087 26.6057 33.0581 26.637 26.5323C26.6702 19.5218 26.6026 12.091 26.5537 7.90632L26.548 7.60156L26.7891 7.6086L26.7925 7.84323ZM18.3326 42.3245C18.2496 42.3041 18.1668 42.2826 18.0844 42.26L18.0701 42.104C17.8691 39.9245 17.4647 35.023 17.2975 29.2701C17.084 21.9308 17.1551 12.7579 17.2074 8.43866L17.2054 8.24938C17.2853 8.23558 17.3655 8.22178 17.4468 8.20826L17.4474 8.39979C17.3951 12.6994 17.3228 21.9043 17.537 29.2633C17.7064 35.0909 18.1193 40.0428 18.317 42.1716L18.3326 42.3245ZM16.7103 41.8291C16.6258 41.7989 16.5414 41.7682 16.4573 41.7369L16.4376 41.5567C16.0717 38.4886 15.3639 31.8619 15.1395 24.8314C14.9496 18.8832 15.1137 12.2445 15.2243 8.90565L15.2286 8.66089C15.3079 8.64146 15.3884 8.62202 15.47 8.60287L15.4668 8.81383C15.3565 12.1155 15.187 18.8218 15.3787 24.824C15.6062 31.9537 16.3316 38.668 16.6919 41.6665L16.7103 41.8291ZM9.89656 29.6016C9.60424 28.1713 9.43334 27.1266 9.43022 27.1083L9.38899 26.4816C9.22036 24.3415 9.0688 21.9443 9.03354 19.8997C8.99202 17.4825 9.00937 15.0656 9.03723 13.2579L9.02728 13.0275C9.09752 12.7531 9.1851 12.4656 9.29401 12.1862L9.27354 13.4711C9.24766 15.2518 9.23287 17.5729 9.27325 19.8958C9.3179 22.482 9.54908 25.6361 9.76547 28.115L9.89656 29.6016ZM11.9775 37.2337C11.7865 36.6708 11.6022 36.1057 11.4247 35.5384L11.2788 34.6929C10.9057 32.4765 10.5748 30.1221 10.4809 28.3141C9.99296 22.3032 9.96822 15.3644 9.99893 11.6713L10.0049 10.9916C10.0808 10.9083 10.1593 10.8297 10.2392 10.7556L10.2406 11.3984C10.2065 15.0093 10.2199 22.1412 10.7198 28.2986C10.829 30.4068 11.2623 33.2606 11.7076 35.7697L11.9775 37.2337ZM13.1542 38.4987C12.6622 36.0623 12.0554 32.4683 11.7415 28.3592C11.2541 21.9829 11.2709 14.4797 11.3189 10.7677L11.3246 10.001C11.2547 10.0371 11.1713 10.0824 11.0789 10.1368L11.0792 10.7759C11.0314 14.4964 11.0152 21.999 11.5026 28.3772C11.8154 32.4703 12.4182 36.0541 12.9099 38.4981L13.2159 39.9481C13.269 40.0081 13.3248 40.0673 13.3842 40.1244C13.4274 40.1656 13.4726 40.2064 13.5193 40.2464L13.1542 38.4987ZM17.4855 41.955C17.2628 39.9447 16.8696 35.8744 16.7066 30.9617C16.4385 22.8789 16.4194 12.7903 16.4248 8.59977L16.4226 8.39557C16.341 8.4119 16.2602 8.42824 16.1806 8.44486L16.1854 8.62287C16.18 12.8292 16.1996 22.8983 16.4672 30.9696C16.6267 35.7733 17.0061 39.7738 17.2316 41.835L17.2503 42.0127C17.3322 42.0395 17.4153 42.0656 17.4994 42.0913L17.4855 41.955Z" fill="#611618"/>
<path d="M12.3975 9.53094C12.3091 9.56502 12.2277 9.59713 12.1535 9.62727L12.149 9.98864C12.0688 13.7609 11.9636 21.3033 12.2619 26.2596C12.685 33.2874 13.5617 38.2694 13.995 40.4089L14.0354 40.6196C14.1272 40.6776 14.2319 40.7396 14.3181 40.7889L14.2646 40.5303C13.8469 38.5015 12.9355 33.4541 12.5013 26.2453C12.201 21.2562 12.3105 13.6378 12.3907 9.90133L12.3978 9.52165L12.3975 9.53094ZM18.4773 8.04856L18.2354 8.08348L18.2393 8.28544C18.1978 12.2146 18.1446 19.9851 18.2712 26.788C18.3915 33.257 18.7864 39.1555 19.0091 42.0761L19.0375 42.4822C19.1191 42.4988 19.2007 42.5152 19.2826 42.5309L19.2565 42.1727C19.0358 39.2972 18.6323 33.3324 18.5103 26.7833C18.3835 19.9724 18.4373 12.1912 18.4788 8.26938L18.4773 8.04856ZM19.4939 7.91618L19.2494 7.94603L19.2488 8.14291C19.1868 11.3465 19.095 17.9749 19.2292 24.5745C19.3742 32.0796 19.7652 39.1654 19.954 42.278L19.9756 42.6549C20.0581 42.6681 20.1397 42.6813 20.2213 42.6937L20.1943 42.2822C20.0058 39.1814 19.6136 32.0864 19.4686 24.57C19.3344 17.9602 19.4268 11.3215 19.4888 8.12771L19.4939 7.91618ZM20.4732 7.80915C20.3936 7.81675 20.3137 7.8252 20.2341 7.83337L20.2324 8.03279C20.2057 11.471 20.1687 18.6993 20.2509 25.7124C20.3308 32.5131 20.535 39.2366 20.6373 42.3158L20.6518 42.7568C20.7329 42.7681 20.8133 42.7791 20.8927 42.7895L20.8768 42.3141C20.7744 39.2389 20.5699 32.5122 20.4903 25.7093C20.4076 18.6638 20.4454 11.4015 20.4724 7.98434L20.4732 7.80915ZM22.5502 7.64663L22.3002 7.66127L22.3062 7.79563L22.5354 42.5518L22.5394 42.9684C22.6241 42.9757 22.7046 42.9824 22.7802 42.9884L22.7751 42.5673L22.5456 7.77901L22.5502 7.64663ZM23.5582 7.60156L23.314 7.61001L23.32 7.84238L23.3825 42.4563L23.3788 43.0306C23.4411 43.0345 23.4863 43.0365 23.5122 43.0379L23.6217 43.0393L23.6222 42.4408L23.5594 7.84266L23.5582 7.60156ZM33.4479 41.4251C33.794 38.4995 34.4221 32.4531 34.6877 25.2026C34.8856 19.8048 34.7286 12.5642 34.6251 8.9434L34.6067 8.55358C34.7073 8.57752 34.8048 8.60146 34.9004 8.6254L34.9149 9.02592C35.0181 12.6794 35.1717 19.8524 34.9752 25.2127C34.709 32.4539 34.0829 38.4967 33.7357 41.4367L33.6942 41.7716C33.5939 41.8061 33.4932 41.8394 33.3922 41.8716L33.4479 41.4251Z" fill="#611618"/>
<path d="M34.6477 41.0082C34.9275 38.4615 35.4186 33.4276 35.7146 27.1488C35.999 21.1198 35.9839 13.3359 35.9495 9.20895L35.9435 8.9087C35.8469 8.88059 35.7501 8.85308 35.6532 8.82617L35.6614 9.18219C35.6961 13.2981 35.7115 21.099 35.4271 27.1356C35.1277 33.4904 34.6284 38.5674 34.3508 41.0764L34.2974 41.5313L34.5957 41.393L34.6477 41.0082ZM35.5283 40.4494C35.8667 38.1702 36.328 34.4433 36.5893 29.6824C36.9786 22.6011 37.0485 13.5674 37.0596 9.52892L37.0539 9.26078C36.9592 9.22774 36.8643 9.19554 36.769 9.16417L36.7724 9.43512C36.7622 13.4237 36.6942 22.5369 36.3021 29.6669C36.0299 34.6213 35.5417 38.4516 35.2013 40.6908L35.1348 41.1308C35.2409 41.0775 35.3469 41.0223 35.449 40.968L35.5283 40.4494ZM38.0429 37.4954C38.0429 37.4954 38.3008 36.7813 38.6187 35.76L38.7396 34.9663C39.1314 32.3322 39.5449 29.0466 39.8193 25.4867C40.1841 20.7481 40.1045 14.9757 40.003 11.5008L39.9808 10.8451C39.8853 10.7465 39.7852 10.6533 39.6802 10.566L39.7036 11.0997C39.8096 14.5093 39.9111 20.5472 39.5324 25.4656C39.2139 29.5995 38.7077 33.3617 38.2656 36.1609L38.0429 37.4954Z" fill="#611618"/>
<path d="M13.4351 15.7559L13.9679 34.9519L16.3418 34.9998V26.2176H18.3283V24.0099H16.3418V18.1551H19.0068V15.7559H13.4351Z" fill="black"/>
<path d="M13.2437 15.5664L13.7765 34.7625L16.1506 34.8104V26.0282H18.1369V23.8205H16.1506V17.9659H18.8153V15.5664H13.2437Z" fill="#929395"/>
<path d="M13.0518 15.377L13.5846 34.5727L15.9587 34.6209V25.8384H17.9453V23.6313H15.9587V17.7764H18.6235V15.377H13.0518Z" fill="white"/>
<path d="M20.2178 15.7559H22.74L22.8825 34.761H20.4117L20.2178 15.7559Z" fill="black"/>
<path d="M20.0264 15.6621H22.5489L22.6914 34.6669H20.2203L20.0264 15.6621Z" fill="#929395"/>
<path d="M19.835 15.4727H22.3572L22.4997 34.4775H20.0286L19.835 15.4727Z" fill="white"/>
<path d="M24.3447 15.791H29.9315C29.9315 15.791 31.3166 18.7361 31.7946 22.8692C32.3875 28.0019 32.0852 34.7606 32.0852 34.7606H30.2608L29.9699 26.1266H26.8911L26.8784 34.7606H24.5597L24.3447 15.791ZM29.8561 24.0738C29.8561 24.0738 29.609 21.7952 29.1342 20.083C28.7855 18.8265 28.1696 17.9925 28.1696 17.9925H26.7774V23.9984L29.8561 24.0738Z" fill="black"/>
<path d="M24.1533 15.6016H29.7401C29.7401 15.6016 31.1252 18.5469 31.6029 22.6797C32.1961 27.8124 31.8938 34.5715 31.8938 34.5715H30.0694L29.7785 25.9371H26.6995L26.6867 34.5715H24.3683L24.1533 15.6016ZM29.6645 23.8844C29.6645 23.8844 29.4173 21.606 28.9425 19.8935C28.5938 18.637 27.9779 17.803 27.9779 17.803H26.586V23.8089L29.6645 23.8844Z" fill="#929395"/>
<path d="M23.9614 15.4121H29.5485C29.5485 15.4121 30.9336 18.3574 31.4113 22.4903C32.0045 27.6233 31.7022 34.382 31.7022 34.382H29.8778L29.5869 25.748H26.5078L26.4951 34.382H24.1767L23.9614 15.4121ZM29.4728 23.6949C29.4728 23.6949 29.2255 21.4166 28.7506 19.7041C28.402 18.4476 27.7866 17.6139 27.7866 17.6139H26.3941V23.6194L29.4728 23.6949Z" fill="white"/>
<path d="M31.3321 15.9609H37.9459V17.8058H35.9696L35.6276 34.9739H33.076L33.4232 17.8436H31.3008L31.3321 15.9609Z" fill="black"/>
<path d="M31.5242 15.7715H38.1383V17.6164H36.1618L35.8194 34.7845H33.2681L33.6153 17.6541H31.4932L31.5242 15.7715Z" fill="#929395"/>
<path d="M31.7154 15.582H38.3295V17.4269H36.3524L36.01 34.5947H33.4593L33.8057 17.4647H31.6841L31.7154 15.582Z" fill="white"/>
<defs>
<linearGradient id="paint0_linear" x1="24.9996" y1="0.380859" x2="24.9996" y2="49.1474" gradientUnits="userSpaceOnUse">
<stop offset="0.006" stop-color="#D0D1D3"/>
<stop offset="0.528" stop-color="#F1F1F2"/>
<stop offset="1" stop-color="#D0D1D3"/>
</linearGradient>
<radialGradient id="paint1_radial" cx="0" cy="0" r="1" gradientUnits="userSpaceOnUse" gradientTransform="translate(39.8047 41.8951) scale(47.06 46.6138)">
<stop stop-color="#F1F1F2"/>
<stop offset="1" stop-color="#7E8083"/>
</radialGradient>
<radialGradient id="paint2_radial" cx="0" cy="0" r="1" gradientUnits="userSpaceOnUse" gradientTransform="translate(24.7221 25.9569) scale(23.8502 23.6241)">
<stop offset="0.006" stop-color="#AC5240"/>
<stop offset="1" stop-color="#842427"/>
</radialGradient>
</defs>
</svg>
