<svg width="50" height="50" viewBox="0 0 50 50" fill="none" xmlns="http://www.w3.org/2000/svg">
<path fill-rule="evenodd" clip-rule="evenodd" d="M24.9991 12C11.3645 12 0 17.7515 0 24.8766C0 32.0036 11.3645 38 24.9991 38C38.5159 38 50 32.0036 50 24.8766C50 17.7515 38.5159 12 24.9991 12ZM21.8141 15.4414C23.8473 14.4094 29.5888 14.557 34.6731 15.6863C37.7838 17.4556 31.1453 20.9447 26.2996 21.929C19.482 23.5997 16.8499 20.5521 21.8141 15.4414ZM7.40339 30.5582C-2.35374 25.5917 6.27084 15.9169 13.1324 15.0887H13.4467C16.9095 14.83 14.7683 17.003 14.7683 17.003C12.502 19.7965 10.0479 25.3311 9.35482 29.73C9.35544 31.903 7.40339 30.5582 7.40339 30.5582ZM25.8204 35.5919C22.4123 35.7395 17.4481 35.5919 15.1155 34.4613C13.8596 33.8219 14.0394 33.1844 16.0726 31.2675C22.4123 26.4003 32.0404 25.7629 31.9208 30.4811C30.4864 33.9212 29.7078 34.9531 25.8204 35.5919ZM36.5266 33.9212C34.8523 34.1661 34.3725 33.8219 35.4505 32.7899C37.6635 29.8417 39.936 23.8453 40.2943 20.159C39.936 17.9964 41.6699 18.6352 42.9252 19.274C51.7772 23.8453 43.5234 33.0368 36.5266 33.9212Z" fill="#2566AF"/>
</svg>
