<svg width="50" height="50" viewBox="0 0 50 50" fill="none" xmlns="http://www.w3.org/2000/svg">
<path fill-rule="evenodd" clip-rule="evenodd" d="M16.8503 24.729L20.3239 19.6451C20.457 19.4454 20.2972 19.2192 20.0178 19.2192L17.3362 19.1992C17.1364 19.1992 16.7372 19.4521 16.5642 19.6716L15.3534 21.2487L13.6699 23.4512L13.6831 19.6449C13.6831 19.3855 13.4102 19.2189 13.2439 19.2189H10.1693C9.95638 19.2189 9.76339 19.2988 9.7569 19.6913C9.75042 20.0773 10.2293 20.1572 10.2293 20.2635V30.438C10.2293 30.631 10.4954 30.9236 10.6819 30.9236L13.3168 30.9104C13.5033 30.9037 13.6629 30.6375 13.6629 30.4578L13.6694 26.219L15.3528 28.3017L17.1362 30.4977C17.2825 30.6707 17.5686 30.9104 17.8682 30.9104L20.7296 30.8904C21.0025 30.8904 20.9757 30.5576 20.9093 30.4712C19.549 28.5624 18.1959 26.6483 16.8503 24.729ZM26.725 19.2195H23.6841C23.3248 19.2195 23.2449 19.4324 23.185 19.6586C23.2514 20.071 23.6841 20.1841 23.6841 20.1909V30.4583C23.6841 30.7312 23.8506 30.9109 24.0836 30.9109L25.1748 30.9042L26.7984 30.8909C27.0977 30.8909 27.1774 30.7114 27.1774 30.4583V19.6451C27.1774 19.3857 26.9579 19.2195 26.725 19.2195Z" fill="#CC2229"/>
<path fill-rule="evenodd" clip-rule="evenodd" d="M35.9813 13.9767C32.7474 13.1583 29.1078 12.6992 25.2615 12.6992C25.2348 12.6992 25.2081 12.7057 25.1751 12.7057C21.6883 12.7057 18.3611 13.0917 15.3534 13.777C6.90903 15.7069 1 20.0188 1 25.0029C1 29.9871 6.90903 34.2988 15.3531 36.2284C18.3608 36.914 21.6878 37.2997 25.1749 37.2997H25.2612C29.1076 37.2997 32.7471 36.8474 35.981 36.029C43.9994 34.0194 49.5292 29.8274 49.5292 25.0029C49.5298 20.1786 44 15.9863 35.9813 13.9767ZM35.9813 33.3473C32.7941 34.0861 29.1408 34.5053 25.2615 34.5053C25.2348 34.5053 25.2081 34.4988 25.1751 34.4988C21.6616 34.4988 18.3279 34.146 15.3534 33.5271C7.90718 31.9767 2.77011 28.7361 2.77011 25.0031C2.77011 21.2702 7.90718 18.0295 15.3534 16.4791C18.3279 15.8602 21.6616 15.5074 25.1751 15.5009H25.2615C29.1408 15.5009 32.7941 15.9201 35.9813 16.6586C42.9881 18.269 47.7594 21.4097 47.7594 25.0029C47.7594 28.596 42.9881 31.737 35.9813 33.3473Z" fill="#CC2229"/>
<path fill-rule="evenodd" clip-rule="evenodd" d="M38.0771 19.6579C37.9777 19.4315 37.8044 19.2188 37.578 19.2188H33.4658C33.3195 19.2188 33.1198 19.3386 33.1198 19.5381C33.1133 20.1235 33.7257 20.1038 33.6922 20.1902L30.2254 30.4176C30.1658 30.5906 30.3185 30.9099 30.5315 30.9099L32.947 30.89C33.1597 30.89 33.4593 30.7105 33.5459 30.4508L34.6904 27.0175C35.0764 25.8728 35.4626 24.7283 35.8416 23.5838C35.8618 23.5374 35.9217 23.5107 35.9814 23.5107C36.0745 23.5107 36.1744 23.5439 36.1941 23.6106L38.4368 30.491C38.4835 30.6441 38.7961 30.8902 38.9621 30.8902L41.4775 30.9102C41.6238 30.9102 41.797 30.6173 41.7506 30.4843L38.0771 19.6579Z" fill="#CC2229"/>
</svg>
