<svg width="50" height="50" viewBox="0 0 50 50" fill="none" xmlns="http://www.w3.org/2000/svg">
<path fill-rule="evenodd" clip-rule="evenodd" d="M0 0H50V50H0V0Z" fill="white"/>
<path fill-rule="evenodd" clip-rule="evenodd" d="M46.8178 9.996C48.8206 29.4149 40.0709 41.5857 24.966 47.7933C8.85967 40.8666 1.61216 28.0857 3.08216 9.89302C17.6607 -0.390705 32.233 -0.358539 46.8178 9.996Z" fill="black"/>
<path fill-rule="evenodd" clip-rule="evenodd" d="M24.9534 2.98633C35.738 2.98633 44.5326 11.7873 44.5326 22.5719C44.5326 33.3568 35.738 42.1513 24.9534 42.1513C14.1688 42.1513 5.36776 33.3568 5.36776 22.5719C5.36776 11.7873 14.1688 2.98633 24.9534 2.98633Z" fill="white"/>
<path fill-rule="evenodd" clip-rule="evenodd" d="M24.9534 2.98633C35.738 2.98633 44.5326 11.7873 44.5326 22.5719C44.5326 33.3568 35.738 42.1513 24.9534 42.1513C14.1688 42.1513 5.36776 33.3568 5.36776 22.5719C5.36776 11.7873 14.1688 2.98633 24.9534 2.98633Z" fill="white"/>
<path fill-rule="evenodd" clip-rule="evenodd" d="M24.9532 4.07812C35.1345 4.07812 43.4475 12.3847 43.4475 22.5725C43.4475 32.7538 35.1342 41.0666 24.9532 41.0666C14.7657 41.0666 6.45239 32.7538 6.45239 22.5725C6.45239 12.385 14.7655 4.07812 24.9532 4.07812Z" fill="black"/>
<path fill-rule="evenodd" clip-rule="evenodd" d="M24.9532 4.50781C34.8966 4.50781 43.011 12.622 43.011 22.5721C43.011 32.5158 34.8969 40.6302 24.9532 40.6302C15.0031 40.6302 6.88898 32.516 6.88898 22.5721C6.88898 12.622 15.0031 4.50781 24.9532 4.50781Z" fill="white"/>
<path fill-rule="evenodd" clip-rule="evenodd" d="M26.3525 8.27542C33.3115 8.9623 38.8385 14.6371 39.2812 21.66L36.354 21.4032V24.2534L39.2366 24.0223C38.5622 30.7051 33.2731 36.052 26.6225 36.8289L26.9818 29.7487H23.1816L23.6501 36.8673C20.3635 36.5723 17.3976 35.1599 15.1188 33.0158V35.211H13.7516V31.5395C11.9926 29.3438 10.8564 26.6282 10.6318 23.6628L13.7516 24.0607V21.2748L10.6445 21.3453C10.8562 18.8738 11.6971 16.5756 13.0066 14.6114H12.3135L14.3806 10.1949L15.2856 11.9669C17.5904 9.8611 20.5752 8.50032 23.862 8.25L23.3806 15.8505H26.9945L26.3525 8.27542Z" fill="black"/>
<path fill-rule="evenodd" clip-rule="evenodd" d="M27.431 15.8515H36.3537V20.9678L38.8062 21.1798C38.1642 14.7794 33.1634 9.63745 26.8341 8.77107L27.431 15.8515ZM16.6464 14.6127H15.1185V15.8515H22.9437L23.3995 8.73242C20.363 9.07275 17.622 10.3951 15.4905 12.3658L16.6464 14.6127ZM36.3537 24.6912V29.7499H27.4183L27.0779 36.3295C33.1185 35.3988 37.8945 30.5649 38.7422 24.4985L36.3537 24.6912ZM13.7513 24.4985V30.828C12.3039 28.8766 11.3962 26.5784 11.1194 24.1646L13.7513 24.4985ZM15.1188 32.4137V29.7497H22.745L23.1816 36.3803C20.0551 35.9829 17.2435 34.5384 15.1188 32.4137Z" fill="white"/>
<path fill-rule="evenodd" clip-rule="evenodd" d="M35.8535 25.2693C35.6032 25.2825 35.5196 25.0062 35.2825 24.1269L34.1137 19.8194H33.9729L32.8108 24.3066C32.6502 24.9227 32.5796 25.2055 32.2974 25.2693V25.475H33.3563V25.2693C33.183 25.2501 32.9262 25.2309 32.9262 24.9165C32.9262 24.7881 33.0097 24.448 33.1573 23.8574H34.3389C34.4092 24.1207 34.5765 24.7305 34.5765 24.9489C34.5765 25.2184 34.4862 25.2311 34.1591 25.2695V25.4752H35.8537V25.2693H35.8535ZM32.1493 25.2693C31.8606 25.2374 31.6549 25.2114 31.6549 24.6854V20.7246C31.6549 20.1662 31.9057 20.1597 32.1493 20.1405V19.935H30.3198V20.1405C30.5574 20.1662 30.8077 20.1854 30.8077 20.7246V24.6854C30.8077 25.1925 30.602 25.2309 30.3198 25.2693V25.475H32.1493V25.2693ZM29.8705 24.2296C29.4404 24.987 29.0488 25.2374 28.6379 25.2374C28.4778 25.2374 28.0602 25.1152 27.8421 24.5248C27.6496 23.9985 27.6172 23.2154 27.6172 22.7274C27.6172 21.341 27.8229 20.0826 28.5868 20.0826C29.1836 20.0826 29.6202 21.0455 29.8062 21.7581H29.9349V19.8386H29.7935C29.7424 20.044 29.6972 20.2173 29.5559 20.2173C29.421 20.2173 29.0169 19.8129 28.5416 19.8129C27.4439 19.8129 26.6929 21.0904 26.6929 22.7594C26.6929 24.2872 27.3541 25.6288 28.5676 25.6288C29.2415 25.6288 29.6461 25.1152 30.0313 24.4348L29.8705 24.2296ZM22.7452 25.475H23.9327V25.2693C23.5475 25.2055 23.4383 25.0449 23.4383 24.4542V21.1804H23.4513L25.7684 25.6226H25.9163V20.7952C25.9163 20.4035 25.9482 20.2173 26.3272 20.1405V19.935H25.2035V20.1405C25.6276 20.1919 25.6852 20.4614 25.6852 20.9558V23.44H25.6787L23.8684 19.935H22.7644V20.1405C22.8287 20.1405 22.912 20.1662 23.2074 20.7311V24.6148C23.2074 25.1538 23.0598 25.2117 22.7452 25.2693V25.475ZM22.4884 25.2693C22.2381 25.2825 22.1546 25.0062 21.9234 24.1269L20.7551 19.8194H20.6075L19.4457 24.3066C19.2916 24.9227 19.2146 25.2055 18.9323 25.2693V25.475H19.9979V25.2693C19.8182 25.2501 19.5679 25.2309 19.5679 24.9165C19.5679 24.7881 19.6514 24.448 19.799 23.8574H20.9738C21.0443 24.1207 21.2176 24.7305 21.2176 24.9489C21.2176 25.2184 21.1214 25.2311 20.794 25.2695V25.4752H22.4889V25.2693H22.4884ZM18.7329 23.6198H18.5853C18.3414 24.5378 18.046 25.2182 17.2564 25.2182C16.9098 25.2182 16.7944 25.1538 16.7944 24.7624V20.8979C16.7944 20.1724 16.955 20.1662 17.3207 20.1405V19.935H15.4977V20.1405C15.7288 20.1662 15.947 20.1854 15.947 20.7246V24.6854C15.947 25.1863 15.7864 25.2117 15.4977 25.2693V25.475H18.5212L18.7329 23.6198ZM13.7514 14.6133H13.5333C12.2276 16.4814 11.4009 18.6416 11.1258 20.9042L13.7514 20.8401V14.6133Z" fill="white"/>
<path fill-rule="evenodd" clip-rule="evenodd" d="M33.2404 23.5408L33.7283 21.5508L34.2549 23.5408H33.2404ZM19.8753 23.5408L20.3697 21.5508L20.896 23.5408H19.8753Z" fill="black"/>
</svg>
