<svg width="50" height="50" viewBox="0 0 50 50" fill="none" xmlns="http://www.w3.org/2000/svg">
<path d="M50 25.0006C50 32.4798 38.8052 38.5423 25.001 38.5423C11.1927 38.5423 0 32.4798 0 25.0006C0 17.5215 11.1927 11.459 25.001 11.459C38.8052 11.459 50 17.5215 50 25.0006Z" fill="#FFF9C4"/>
<path d="M24.9917 36.4479C37.6482 36.4479 47.9083 31.3179 47.9083 24.9896C47.9083 18.6613 37.6482 13.5312 24.9917 13.5312C12.3351 13.5312 2.07501 18.6613 2.07501 24.9896C2.07501 31.3179 12.3351 36.4479 24.9917 36.4479Z" fill="#00695C"/>
<path d="M14.7177 22.4534C14.6729 22.5961 14.3115 22.5597 14.3115 22.5597H12.7437C12.7437 22.5597 14.1969 18.518 14.3135 18.2118C14.5208 17.6701 14.6448 17.7076 14.6448 17.7076H12.4792C12.7469 17.842 12.5094 18.369 12.5094 18.369C12.5094 18.369 10.775 23.4097 10.6542 23.6618C10.5333 23.9138 10.4427 23.9461 10.4427 23.9461H14.1927L14.7177 22.4534Z" fill="#FFF9C4"/>
<path d="M39.5833 19.791H35.4552L34.9521 21.2514H37.624L34.576 22.3233L34.375 22.916L39.0646 21.3535L39.5833 19.791Z" fill="#FFF9C4"/>
<path d="M22.6094 23.5488C22.7146 23.2645 23.651 20.603 23.651 20.603L24.0583 23.9405H25.6583L27.7552 18.004C27.7552 18.004 27.8406 17.7259 27.9583 17.7259L26.2583 17.7207C26.2583 17.7207 26.3073 17.9259 26.2469 18.0832C26.1865 18.2405 25.2208 20.9342 25.2208 20.9342L24.8438 17.7207H23.0177C23.0177 17.7207 23.1125 17.878 23.0521 18.0509L21.1167 23.5957C21.1167 23.5957 20.9958 23.9405 20.8896 23.9405H22.6552C22.6197 23.8824 22.5972 23.8173 22.5893 23.7497C22.5814 23.6821 22.5883 23.6135 22.6094 23.5488Z" fill="#FFF9C4"/>
<path d="M13.5417 26.041L8.85104 27.6046L8.33334 29.166H12.4615L12.9635 27.7056H10.2917L13.3396 26.6337L13.5417 26.041Z" fill="#FFF9C4"/>
<path d="M32.7365 29.8406L33.099 28.8312H34.426C34.426 28.8312 34.7073 28.8104 34.7687 28.8948L35.3115 27.299C35.3115 27.299 35.2719 27.4427 34.9094 27.4427H33.6219L34.0052 26.3281H35.6344C35.6344 26.3281 35.8552 26.2958 35.9354 26.475L36.4583 25H32.5354C32.5354 25 32.676 25.1302 32.4948 25.6562C32.3135 26.1823 30.724 30.6615 30.724 30.6615C30.724 30.6615 30.4427 31.25 30.3625 31.25H34.4062L34.8896 29.7562C34.8896 29.7562 34.8292 29.8406 34.4469 29.8406H32.7365Z" fill="#FFF9C4"/>
<path d="M32.1938 25.0031H29.8781C29.8781 25.0031 30.0594 25.1292 29.9188 25.3604C29.7781 25.5917 27.7198 28.8104 27.7198 28.8104L27.7458 25.5646C27.7458 25.5646 27.7417 25.0437 27.9417 25L25.9042 25.0031C25.9042 25.0031 26.0542 25.0875 26.0542 25.4865V30.8927C26.0542 30.8927 26.0333 31.1885 25.9271 31.25H27.5448C27.5448 31.25 27.5448 31.124 27.7052 30.9135C27.8667 30.7031 31.2271 25.9917 31.2271 25.9917C31.2271 25.9917 31.9927 25.0031 32.1938 25.0031Z" fill="#FFF9C4"/>
<path d="M41.5167 27.4114C42.2885 24.878 39.8312 25.001 39.8312 25.001H37.3562C37.5375 25.2114 37.3969 25.653 37.3969 25.653C37.3969 25.653 35.7833 30.302 35.6615 30.6603C35.5406 31.0187 35.3094 31.2468 35.3094 31.2468L37.3667 31.2499C37.2167 31.253 37.3208 30.8666 37.3208 30.8666L37.9521 29.0822L38.8635 31.0187C38.924 31.1458 38.8937 31.2499 38.8937 31.2499H41.0781C40.8771 31.2499 40.6552 30.8499 40.6552 30.8499L39.6052 28.8801C41.075 28.8791 41.5167 27.4114 41.5167 27.4114ZM39.7708 27.1468C39.5448 27.752 38.8052 27.6937 38.8052 27.6937H38.4229L38.825 26.453H39.3708C39.3708 26.453 40.0375 26.4333 39.7708 27.1468Z" fill="#FFF9C4"/>
<path d="M30.9687 17.7229H28.9625C28.9625 17.7239 29.1125 17.975 28.9167 18.5573C28.7208 19.1406 27.1812 23.4719 27.1812 23.4719C27.1812 23.4719 27.0594 23.8792 26.8948 23.9583L29.3094 23.9552C29.3094 23.9552 32.2364 24.0677 33.1427 20.8562C33.1417 20.8573 34.2885 17.6906 30.9687 17.7229ZM31.1802 21.1239C30.6687 22.4239 29.9083 22.5177 29.4979 22.5177C29.2271 22.5177 29.2187 22.5198 29.2187 22.5198L30.3958 19.0604H30.8489C30.8479 19.0614 32.0208 18.9885 31.1802 21.1239Z" fill="#FFF9C4"/>
<path d="M20.6844 23.9504C20.6844 23.9504 20.5406 23.866 20.5146 23.6181L20.2719 18.1369C20.2719 18.1369 20.2615 17.7868 20.4208 17.7129H18.5042C18.5042 17.7129 18.6385 17.8858 18.3823 18.2796C18.126 18.6733 14.8521 23.74 14.8521 23.74C14.8521 23.74 14.7875 23.8702 14.6219 23.9441H16.5573C16.5573 23.9441 16.551 23.7889 16.6021 23.6889C16.6938 23.5066 16.9344 23.0681 16.9344 23.0681H18.8823L18.8865 23.616C18.8865 23.616 18.8969 23.8046 18.7531 23.9504H20.6844ZM17.7698 21.6618L18.8458 19.8348L18.8615 21.6618H17.7698Z" fill="#FFF9C4"/>
<path d="M19.2219 27.3564C19.9458 24.9377 17.5083 25.0002 17.5083 25.0002H15.0135C15.1948 25.2106 15.0531 25.6522 15.0531 25.6522L13.3833 30.6418C13.2625 30.9991 13.0406 31.2491 13.0406 31.2491L15.0135 31.2502C14.9531 31.2502 14.9531 31.047 14.9531 31.047L15.6615 29.0824L16.6042 31.0179C16.6635 31.1439 16.6333 31.2502 16.6333 31.2502H18.7427C18.5417 31.2502 18.3344 30.8502 18.3344 30.8502L17.2844 28.8793C18.7521 28.8793 19.2219 27.3564 19.2219 27.3564ZM17.501 27.1439C17.226 27.7627 16.4813 27.6939 16.4813 27.6939H16.099L16.5083 26.4377C16.5083 26.4377 16.7281 26.4345 16.924 26.4345C17.8229 26.4345 17.501 27.1439 17.501 27.1439Z" fill="#FFF9C4"/>
<path d="M23.1344 25.0254C21.2094 25.0254 19.9542 26.4796 19.6292 28.2868C19.3313 29.9493 20.275 31.2754 21.8302 31.2754C24.0073 31.2754 25.3031 29.1493 25.3031 27.6233C25.3031 26.0243 24.6427 25.0254 23.1344 25.0254ZM23.4198 28.3379C23.1083 29.5806 22.5104 29.9702 21.9677 29.8702C21.2292 29.7337 21.3563 28.5931 21.476 28.0671C21.7375 26.915 22.3813 26.3629 22.8625 26.4212C23.0208 26.44 23.8927 26.4566 23.4198 28.3379Z" fill="#FFF9C4"/>
</svg>
