<svg width="50" height="50" viewBox="0 0 50 50" fill="none" xmlns="http://www.w3.org/2000/svg">
<path fill-rule="evenodd" clip-rule="evenodd" d="M4.46212 11.732C5.9292 13.5472 8.50191 14.941 8.61114 14.9997C8.63854 15.0143 8.66861 15.0231 8.6995 15.0255C8.7304 15.0279 8.76145 15.0239 8.79075 15.0137C8.82005 15.0035 8.84697 14.9873 8.86985 14.9662C8.89274 14.9451 8.9111 14.9194 8.92381 14.8909C8.95133 14.8289 11.8755 8.63801 24.8424 8.63801C37.8118 8.63801 40.814 14.8609 40.8423 14.9237C40.8553 14.952 40.8738 14.9773 40.8967 14.9981C40.9196 15.0189 40.9464 15.0348 40.9756 15.0448C41.0047 15.0548 41.0356 15.0588 41.0663 15.0564C41.097 15.054 41.1269 15.0453 41.1542 15.0309C41.2867 14.96 44.4339 13.2743 45.5404 11.6569C45.5446 11.651 45.5462 11.6438 45.5491 11.6375C45.5632 11.6125 45.5723 11.585 45.5758 11.5565L45.5792 11.5354C45.5801 11.5083 45.5765 11.4812 45.5687 11.4553C45.5679 11.4536 45.5687 11.4523 45.5679 11.4506C45.5662 11.446 45.5621 11.4431 45.5604 11.4388C45.5546 11.4249 45.55 11.411 45.5416 11.3979C45.3682 11.1369 41.0933 5 24.8424 5C8.58612 5 4.60637 11.2027 4.44503 11.4667C4.44544 11.4667 4.35039 11.594 4.46212 11.732Z" fill="#F7F7F7"/>
<path fill-rule="evenodd" clip-rule="evenodd" d="M24.8425 8.17779C12.7936 8.17779 9.26448 13.3223 8.62286 14.4808C8.09131 14.1755 6.60214 13.2742 5.44189 12.13L6.85645 12.6572C6.90103 12.6738 6.94967 12.6759 6.99546 12.663C7.04126 12.6501 7.08189 12.623 7.11159 12.5855C12.1186 6.26937 24.7057 6.79614 24.8325 6.80204C24.8362 6.80204 24.8396 6.80035 24.8429 6.80035C24.8466 6.80035 24.85 6.80204 24.8537 6.80204C24.9805 6.79614 37.5697 6.2719 42.5742 12.5855C42.6346 12.6614 42.7355 12.6905 42.826 12.6584L44.6395 12.0195C43.5493 13.1219 41.74 14.1789 41.143 14.5133C40.4943 13.3611 36.9097 8.17779 24.8425 8.17779Z" fill="black"/>
<path fill-rule="evenodd" clip-rule="evenodd" d="M3.90846 12.006C2.44889 14.1156 0 18.7253 0 25.8929C0 32.0256 2.90081 39.4965 9.38198 42.3648C16.0003 45.2938 23.3987 44.991 25 44.991C26.6013 44.991 33.9997 45.2942 40.618 42.3648C47.0996 39.4965 50 32.0252 50 25.8929C50 18.7253 47.5515 14.116 46.0915 12.006C46.067 11.9709 46.0331 11.9435 45.9937 11.927C45.9544 11.9106 45.9113 11.9058 45.8693 11.9132C45.8333 11.907 45.7962 11.9097 45.7614 11.9211C45.7266 11.9326 45.6951 11.9525 45.6696 11.979C45.663 11.9858 45.5045 12.1507 45.2039 12.4244C45.1733 12.4411 45.147 12.465 45.1272 12.494C44.1242 13.3961 41.7562 15.3104 38.2508 16.8173L37.0481 17.3272C34.6296 18.3453 32.0427 19.436 29.7781 21.1141L29.774 21.1175C27.8279 22.5603 26.1202 24.4383 24.9629 27.0797C22.459 21.3621 17.3773 19.2213 12.8794 17.3272L11.6766 16.8173C6.93977 14.7807 4.28576 12.0052 4.25825 11.979C4.04396 11.7787 3.90846 12.006 3.90846 12.006Z" fill="#F6F6F6"/>
<path fill-rule="evenodd" clip-rule="evenodd" d="M24.7534 27.7508C24.7534 27.7516 24.7543 27.7521 24.7547 27.7529C24.763 27.7731 24.7768 27.7913 24.7905 27.8086C24.7951 27.8145 24.798 27.8221 24.803 27.8271C24.8085 27.8322 24.816 27.8351 24.8214 27.8398C24.8379 27.8548 24.8566 27.8672 24.8768 27.8765L24.8785 27.8777C24.8885 27.882 24.8985 27.8807 24.9089 27.8832C24.9269 27.8879 24.9444 27.8933 24.9631 27.8933C24.9819 27.8933 24.9994 27.8879 25.0173 27.8832C25.0273 27.8811 25.0378 27.882 25.0478 27.8777C25.0482 27.8773 25.0486 27.8765 25.0494 27.8765C25.0695 27.8672 25.0881 27.8548 25.1045 27.8398C25.1103 27.8351 25.1182 27.8322 25.1228 27.8271C25.1282 27.8221 25.1307 27.8141 25.1353 27.8086C25.1501 27.792 25.1624 27.7732 25.1716 27.7529L25.1728 27.7508C25.8682 25.9993 26.8113 24.578 27.9094 23.3929C27.5617 24.583 27.5559 25.4211 27.5559 25.4645C27.5566 25.5157 27.5741 25.5653 27.6058 25.6052C27.6375 25.6452 27.6815 25.6733 27.7308 25.6851C27.7801 25.6968 27.8319 25.6916 27.8779 25.6702C27.9239 25.6488 27.9616 25.6125 27.9849 25.567C28.0549 25.4257 28.3855 25.0934 28.5981 24.9023C28.6414 24.8631 28.6682 24.8086 28.6732 24.75C28.7782 23.4764 29.8659 21.77 30.0556 21.4811C31.0032 20.7789 32.0092 20.1808 33.0365 19.6482C31.7703 20.6679 30.1848 22.1365 29.2785 23.6982C29.2513 23.7466 29.2423 23.8034 29.2533 23.8579C29.2644 23.9125 29.2946 23.9612 29.3384 23.9949C29.3822 24.0286 29.4367 24.0451 29.4916 24.0412C29.5465 24.0374 29.5982 24.0135 29.637 23.974C29.6566 23.9538 31.6599 21.9201 36.5451 20.5507C37.6762 20.2335 40.5662 19.1994 44.0373 17.151C44.0875 17.1213 44.1245 17.0733 44.1407 17.0169L45.5039 12.7669L45.5861 12.6914C45.5094 14.2038 45.2154 15.6698 44.8648 16.935C44.425 17.2239 41.4279 19.1636 38.8644 20.1142C38.332 20.3116 37.7245 20.5001 37.0804 20.6992C33.3037 21.8695 28.1616 23.4667 24.9623 30.3593C21.7638 23.4662 16.6222 21.8691 12.845 20.6987C12.2013 20.4992 11.5935 20.3111 11.0615 20.1138C8.49839 19.1631 5.50086 17.2231 5.06061 16.9346C4.49446 15.6521 4.29017 14.2304 4.19971 13.0157C5.42332 17.9447 10.7071 19.6886 13.1498 20.4857C16.8319 21.6873 18.9481 22.8998 18.9689 22.9121C19.0106 22.9366 19.0588 22.9469 19.1067 22.9417C19.1546 22.9365 19.1996 22.9159 19.2351 22.883C19.2706 22.8501 19.2948 22.8066 19.3042 22.7587C19.3135 22.7109 19.3075 22.6614 19.287 22.6173C18.7538 21.449 17.7599 20.4073 16.859 19.6326C20.0837 21.2993 23.1063 23.6046 24.7534 27.7508Z" fill="black"/>
<path fill-rule="evenodd" clip-rule="evenodd" d="M24.7561 30.9994C24.7607 31.0103 24.7691 31.0171 24.7753 31.0268C24.7841 31.0415 24.792 31.0559 24.8041 31.0681C24.8162 31.0803 24.8308 31.0884 24.8449 31.0972C24.8541 31.1031 24.8616 31.112 24.872 31.1166C24.8737 31.117 24.8754 31.1166 24.8775 31.1175C24.8933 31.1242 24.9108 31.1259 24.9279 31.1284C24.94 31.1305 24.9517 31.1352 24.9638 31.1352C24.9759 31.1352 24.9875 31.1305 24.9996 31.1284C25.0171 31.1259 25.0342 31.1242 25.0501 31.1175C25.0517 31.1166 25.0538 31.117 25.0555 31.1166C25.0659 31.112 25.073 31.1031 25.0822 31.0972C25.0963 31.0884 25.1109 31.0803 25.123 31.0681C25.1351 31.0559 25.143 31.0415 25.1518 31.0272C25.1576 31.0175 25.1664 31.0103 25.171 30.9998C28.2681 23.911 33.439 22.3092 37.2145 21.1393C37.8644 20.9381 38.4781 20.7479 39.0221 20.5463C41.1825 19.745 43.6373 18.2592 44.6708 17.6055C44.13 19.3629 43.5347 20.6138 43.4176 20.8546C42.171 21.8727 40.3533 22.3889 38.2509 22.9849C35.8699 23.6597 33.1705 24.4247 30.6587 26.132C27.4481 28.3141 25.5645 32.0424 24.9633 33.3848C24.3618 32.0419 22.4786 28.3141 19.268 26.132C16.7558 24.4243 14.0572 23.6597 11.6762 22.9849C9.57379 22.3889 7.7561 21.8727 6.50997 20.8546C6.39241 20.6142 5.79749 19.3629 5.25635 17.6055C6.29027 18.2588 8.74457 19.745 10.9054 20.5463C11.4494 20.7483 12.0631 20.9381 12.7127 21.1393C16.4881 22.3084 21.659 23.9106 24.7561 30.9994Z" fill="black"/>
<path fill-rule="evenodd" clip-rule="evenodd" d="M25.1744 34.0473C25.1936 33.9979 27.1493 29.069 30.9122 26.5119C33.364 24.8456 36.0251 24.0911 38.3731 23.4255C40.4122 22.8477 42.1894 22.3442 43.4923 21.375C43.7237 23.2062 44.5704 32.1056 39.9753 36.6731C35.5261 41.0964 27.9697 41.4359 24.9997 41.3764C24.9263 41.3747 25.0376 41.3764 24.9997 41.3764C24.9989 41.3764 25.0005 41.3764 24.9997 41.3764C24.9989 41.3764 25.0005 41.3764 24.9997 41.3764C24.9622 41.3764 25.0731 41.3747 24.9997 41.3764C22.0297 41.4359 14.4733 41.0964 10.0241 36.6731C5.46948 32.1444 6.26284 23.3581 6.50173 21.4222C7.7983 22.3594 9.5497 22.857 11.5538 23.4251C13.9022 24.0906 16.5637 24.8451 19.0155 26.5115C22.781 29.0707 24.7333 33.9975 24.7529 34.0469C24.7529 34.0473 24.9247 34.5555 25.1744 34.0473Z" fill="white"/>
<path fill-rule="evenodd" clip-rule="evenodd" d="M4.60055 16.9688C5.18463 19.1095 5.93047 20.7 6.09515 21.0386C5.9484 22.0002 4.76856 30.6617 8.78042 35.9394C7.8724 35.5729 6.15601 34.6527 4.74938 32.5794C4.71812 32.5245 0.888862 25.6859 4.60055 16.9688ZM43.8937 20.9648C43.8911 20.9539 43.8853 20.9446 43.8824 20.934C44.0662 20.5448 44.529 19.5165 44.9818 18.1214C47.2935 25.0937 45.1494 31.1319 45.1268 31.1935L45.1193 31.2175C44.2676 33.8657 42.4282 35.117 41.4585 35.6109C45.3195 30.1168 43.9591 21.3672 43.8937 20.9648Z" fill="black"/>
<path fill-rule="evenodd" clip-rule="evenodd" d="M49.5471 25.8924C49.5471 31.8758 46.6896 39.0695 40.4361 41.9442C34.7941 44.5388 26.2159 44.5957 24.9998 44.5957C23.7837 44.5957 15.9389 44.7218 9.56316 41.9442C3.56268 39.3306 0.738997 32.5784 0.475098 26.7802C1.83337 30.8847 3.8591 32.6425 4.23473 32.9415C5.83355 37.7448 9.93004 41.0906 16.0885 42.6177C18.6371 43.2495 22.2266 43.4431 24.2515 43.4933C24.0722 43.5017 24.3795 43.5123 24.9998 43.5063C25.6206 43.5123 25.9279 43.5013 25.7486 43.4933C27.7726 43.4431 31.3622 43.2495 33.9107 42.6177C40.0992 41.083 44.2061 37.7132 45.7883 32.8724C45.815 32.7931 48.416 24.7259 45.4301 16.7633C45.4218 16.7417 45.4089 16.7249 45.396 16.7076C45.7095 15.5056 45.9642 14.1467 46.0376 12.7461C47.478 14.989 49.5471 19.3503 49.5471 25.8924Z" fill="black"/>
</svg>
