<svg width="50" height="50" viewBox="0 0 50 50" fill="none" xmlns="http://www.w3.org/2000/svg">
<path fill-rule="evenodd" clip-rule="evenodd" d="M0 0H50V50H0V0Z" fill="white"/>
<path fill-rule="evenodd" clip-rule="evenodd" d="M35.6982 0.734375H14.522L0.735107 14.521V35.532L14.4117 49.2639H35.4777L49.2646 35.477V14.411L35.6982 0.734375ZM45.0735 33.6021L33.6028 45.0728H16.3969L4.92642 33.6573V16.3961L16.3969 4.98068H33.8231L45.0733 16.2859V33.6021H45.0735Z" fill="black"/>
<path fill-rule="evenodd" clip-rule="evenodd" d="M14.6963 19.485L11.7734 13.5291L7.41663 17.6101V32.2242L11.6079 36.4705V22.2424L15.2478 30.349L19.3836 19.5403V42.2057H24.0158V7.68359H19.1081L14.6963 19.485ZM27.2552 7.68359V42.2057H32.5494L42.5862 32.2242V24.9445H34.8656V29.1358H37.7332C38.5054 29.0253 38.5604 29.908 38.0086 30.5695C37.4574 31.2312 31.8874 36.691 31.8874 36.691V13.1983L38.3946 19.9813V21.6357H42.5859V17.7754L32.6594 7.68359H27.2552Z" fill="black"/>
</svg>
