<svg width="50" height="50" viewBox="0 0 50 50" fill="none" xmlns="http://www.w3.org/2000/svg">
<path d="M25 19.791H0C3.125 24.6525 8.33333 30.2077 12.5 34.3743H37.5C41.6667 30.2077 46.875 24.6525 50 19.791H25Z" fill="#B3BDE2"/>
<path d="M4.74271 26.041C5.33963 26.7436 5.94593 27.4381 6.56146 28.1244H43.4385C44.0541 27.4381 44.6604 26.7436 45.2573 26.041H4.74271Z" fill="#7986CB"/>
<path d="M39.5479 32.2923C40.2153 31.6039 40.8765 30.9094 41.5312 30.209H8.46875C9.12351 30.9094 9.78465 31.6039 10.4521 32.2923H39.5479Z" fill="#7986CB"/>
<path d="M1.4375 21.875C1.93854 22.5635 2.47292 23.2594 3.02813 23.9583H46.9719C47.5163 23.2749 48.0466 22.5803 48.5625 21.875H1.4375Z" fill="#7986CB"/>
<path d="M25 37.5007C31.3283 37.5007 36.4583 32.3706 36.4583 26.0423C36.4583 19.7141 31.3283 14.584 25 14.584C18.6717 14.584 13.5417 19.7141 13.5417 26.0423C13.5417 32.3706 18.6717 37.5007 25 37.5007Z" fill="#B3BDE2"/>
<path d="M25 35.416C30.1777 35.416 34.375 31.2187 34.375 26.041C34.375 20.8633 30.1777 16.666 25 16.666C19.8223 16.666 15.625 20.8633 15.625 26.041C15.625 31.2187 19.8223 35.416 25 35.416Z" fill="#263238"/>
<path d="M23.9583 23.959H25V28.1257H23.9583V23.959Z" fill="white"/>
<path d="M26.0417 23.959H27.0833V28.1257H26.0417V23.959Z" fill="white"/>
<path d="M31.25 23.959H32.2917V28.1257H31.25V23.959Z" fill="white"/>
<path d="M29.1667 23.959H30.2083V28.1257H29.1667V23.959Z" fill="white"/>
<path d="M21.875 23.959H22.9167V28.1257H21.875V23.959Z" fill="white"/>
<path d="M17.7083 23.959H18.75V28.1257H17.7083V23.959Z" fill="white"/>
<path d="M26.2785 24.6191L27.0841 23.9571L29.9729 27.4725L29.1673 28.1345L26.2785 24.6191Z" fill="white"/>
<path d="M22.8031 24.4486L21.8833 23.959L20.3167 26.8965L18.75 23.959L17.8302 24.4486L19.7917 28.1257H20.8417L22.8031 24.4486Z" fill="white"/>
</svg>
