<svg width="50" height="50" viewBox="0 0 50 50" fill="none" xmlns="http://www.w3.org/2000/svg">
<path fill-rule="evenodd" clip-rule="evenodd" d="M42.1693 28.4931C40.5784 36.6996 33.4951 42.8945 25 42.8945C15.3354 42.8945 7.49256 34.8778 7.49271 25.001C7.49271 24.5534 7.51086 24.1083 7.54235 23.6692L7.55051 23.5555L8.44653 24.0907L8.44439 24.1336C8.43004 24.42 8.42466 24.7098 8.42466 25.0009C8.42466 34.3532 15.8509 41.9428 25 41.9428C32.8214 41.9428 39.3814 36.3969 41.1215 28.9441L41.1288 28.9126L42.1973 28.3487L42.1693 28.4931ZM42.0037 28.6105L41.2498 29.0084C39.4842 36.507 32.8771 42.0844 25 42.0844C15.773 42.0844 8.28518 34.4306 8.28518 25.0009C8.28518 24.7225 8.29006 24.4447 8.303 24.1693L7.67361 23.7934C7.64719 24.1925 7.6322 24.5958 7.6322 25.001C7.63204 34.8004 15.4133 42.7529 25 42.7529C33.3765 42.7529 40.3706 36.6806 42.0037 28.6105Z" fill="#3B4949"/>
<path d="M24.9998 44.9297C34.4715 44.9297 42.3719 38.0147 44.1318 28.8587L43.4086 28.4131C41.8324 37.3401 34.1858 44.1196 24.9998 44.1196C14.674 44.1196 6.29386 35.5542 6.29386 25.0005C6.29386 24.528 6.31034 24.0617 6.34332 23.598L5.53088 23.9321C5.51265 24.2866 5.50107 24.6413 5.50107 25.0007C5.50123 36.0014 14.2366 44.9297 24.9998 44.9297Z" fill="url(#paint0_linear)"/>
<path fill-rule="evenodd" clip-rule="evenodd" d="M44.2006 28.8717C42.4345 38.0601 34.5062 45 25.0001 45C14.198 45 5.43185 36.0396 5.43169 25.0002C5.43169 24.6393 5.44331 24.2833 5.46159 23.9279L5.4639 23.8829L6.4213 23.4892L6.41323 23.6026C6.38039 24.0646 6.36395 24.5292 6.36395 25C6.36395 35.5151 14.7133 44.0482 25.0001 44.0482C34.1515 44.0482 41.7699 37.2943 43.3403 28.4001L43.3583 28.2985L44.21 28.8232L44.2006 28.8717ZM44.0544 28.893L43.4595 28.5265C41.8376 37.4362 34.1861 44.1899 25.0001 44.1899C14.6354 44.1899 6.22447 35.5924 6.22447 25C6.22447 24.5643 6.23845 24.1338 6.26638 23.7057L5.5986 23.9803C5.58174 24.3189 5.57117 24.6575 5.57117 25.0002C5.57133 35.9622 14.2759 44.8584 25.0001 44.8584C34.4208 44.8584 42.2821 37.9928 44.0544 28.893Z" fill="#3B4949"/>
<path d="M42.3884 26.332C42.421 25.8889 42.4375 25.4447 42.438 25.0003C42.438 15.1618 34.626 7.1775 25.0002 7.1775C16.5377 7.1775 9.48208 13.35 7.89937 21.5268L8.81088 21.0357C10.5597 13.5545 17.1474 7.98763 25.0002 7.98763C34.1883 7.98763 41.6454 15.6093 41.6454 25.0003C41.6454 25.2904 41.6397 25.5796 41.6255 25.8662L42.3884 26.332Z" fill="url(#paint1_linear)"/>
<path fill-rule="evenodd" clip-rule="evenodd" d="M42.4491 26.4512L41.5534 25.9042L41.5555 25.8619C41.5695 25.5766 41.5752 25.2886 41.5752 24.9995C41.5752 15.6472 34.149 8.05762 24.9998 8.05762C17.1803 8.05763 10.62 13.6009 8.87833 21.0513L8.87104 21.0825L7.80228 21.6583L7.83052 21.5124C9.41946 13.3034 16.503 7.10586 24.9998 7.10586C34.6646 7.10586 42.5073 15.1223 42.5073 24.9995L42.5073 24.9996C42.5068 25.4457 42.4902 25.8916 42.4575 26.3365L42.4491 26.4512ZM42.3265 26.211C42.3536 25.8078 42.3674 25.4037 42.3678 24.9995C42.3678 15.1996 34.5867 7.24749 24.9998 7.24749C16.6222 7.2475 9.62819 13.3216 7.99633 21.3934L8.74993 20.9874C10.517 13.491 17.1245 7.916 24.9998 7.91599C34.2269 7.91599 41.7147 15.5698 41.7147 24.9995C41.7147 25.2762 41.7095 25.5524 41.6968 25.8265L42.3265 26.211Z" fill="#3B4949"/>
<path d="M43.6563 26.4023L44.4687 26.0682C44.4879 25.7124 44.4979 25.3562 44.4985 24.9999C44.4985 13.999 35.7632 5.07073 25 5.07073C15.5302 5.07073 7.62991 11.9827 5.86791 21.1364L6.59617 21.5568C8.18427 12.6446 15.8242 5.88086 25 5.88086C35.3258 5.88086 43.7059 14.4458 43.7059 24.9999C43.7059 25.4722 43.6894 25.9386 43.6563 26.4023Z" fill="url(#paint2_linear)"/>
<path fill-rule="evenodd" clip-rule="evenodd" d="M43.5787 26.5098L43.5868 26.3963C43.6198 25.9343 43.6362 25.4696 43.6362 24.9989C43.6362 14.4836 35.2869 5.95076 25 5.95076C15.859 5.95076 8.24715 12.6891 6.66488 21.5685L6.64735 21.6669L5.78993 21.1718L5.79954 21.1219C7.56776 11.936 15.4959 4.99901 25 4.999C35.8022 4.999 44.5684 13.9594 44.5684 24.9989L44.5684 24.9991C44.5677 25.3567 44.5577 25.7142 44.5385 26.0712L44.536 26.1161L43.5787 26.5098ZM44.4015 26.0186C44.4191 25.679 44.4282 25.339 44.4289 24.9989C44.4288 14.0367 35.7243 5.14063 25 5.14063C15.5818 5.14064 7.72099 12.0025 5.94612 21.0991L6.54539 21.4451C8.17777 12.5487 15.8234 5.80913 25 5.80913C35.3648 5.80913 43.7757 14.4063 43.7757 24.9989C43.7757 25.4345 43.7618 25.8651 43.7337 26.2932L44.4015 26.0186Z" fill="#3B4949"/>
<path d="M49.8887 26.4582L48.6205 27.1063L47.9864 27.9164L48.3034 28.7266L49.8887 26.4582Z" fill="#B4BEC2"/>
<path d="M14.2204 29.8613L16.9153 28.7272L47.9862 27.917L48.3032 28.7271L44.1364 28.8658L43.4054 28.4397L42.1087 28.4724L41.1855 28.964L14.2204 29.8613Z" fill="url(#paint3_linear)"/>
<path d="M27.0611 25.8092L29.5975 24.9991L41.6238 25.8634L42.3914 26.3287L43.655 26.4006L44.4689 26.0675L49.8887 26.4574L48.6205 27.1055L27.0611 25.8092Z" fill="#3B4949"/>
<path d="M27.0609 25.8105L29.5973 25.0004L35.7798 20.1397L33.0849 21.2738L27.0609 25.8105Z" fill="url(#paint4_linear)"/>
<path d="M0.111901 23.541L1.38007 22.8929L2.01416 22.0828L1.69712 21.2726L0.111901 23.541Z" fill="#3B4949"/>
<path d="M35.7798 20.1397L33.0849 21.2739L2.01395 22.084L1.6969 21.2739L5.86753 21.1352L6.60007 21.5598L7.89554 21.5278L8.81166 21.0373L35.7798 20.1397Z" fill="#3B4949"/>
<path d="M22.9395 24.1899L20.4031 25L8.37991 24.1359L7.6125 23.6748L6.34873 23.5965L5.52758 23.9308L0.1119 23.5418L1.3801 22.8937L22.9395 24.1899Z" fill="url(#paint5_linear)"/>
<path d="M22.939 24.1904L20.4026 25.0006L14.2201 29.8613L16.915 28.7271L22.939 24.1904Z" fill="#3B4949"/>
<path d="M16.9152 28.7266L22.9391 24.1898L1.37976 22.8936L2.01386 22.0834L33.0847 21.2733L27.0608 25.8101L48.6201 27.1063L47.986 27.9164L16.9152 28.7266Z" fill="url(#paint6_linear)"/>
<path fill-rule="evenodd" clip-rule="evenodd" d="M16.8099 28.7635C16.7941 28.7167 16.8098 28.665 16.8489 28.6355L22.6263 24.2845L1.37339 23.0067C1.33182 23.0042 1.29508 22.9784 1.2781 22.9398C1.26112 22.9012 1.26672 22.8562 1.29263 22.8231L1.92673 22.0129C1.94728 21.9867 1.97821 21.971 2.01122 21.9702L33.0821 21.16C33.1307 21.1587 33.1746 21.1896 33.1904 21.2364C33.2063 21.2831 33.1905 21.3348 33.1514 21.3643L27.374 25.7154L48.6269 26.9932C48.6685 26.9957 48.7052 27.0214 48.7222 27.0601C48.7392 27.0987 48.7336 27.1437 48.7077 27.1768L48.0736 27.9869C48.0531 28.0131 48.0221 28.0288 47.9891 28.0297L16.9183 28.8398C16.8696 28.8411 16.8258 28.8102 16.8099 28.7635ZM47.9313 27.8045L48.3994 27.2065L27.0544 25.9232C27.0075 25.9203 26.9674 25.8881 26.954 25.8424C26.9406 25.7967 26.9568 25.7474 26.9945 25.719L32.735 21.3957L2.06903 22.1953L1.60097 22.7933L22.9459 24.0767C22.9928 24.0795 23.0329 24.1118 23.0463 24.1574C23.0597 24.2031 23.0435 24.2524 23.0058 24.2808L17.2653 28.6041L47.9313 27.8045Z" fill="white"/>
<path fill-rule="evenodd" clip-rule="evenodd" d="M14.1172 29.9047C14.0936 29.8469 14.1207 29.7806 14.1776 29.7566L16.8725 28.6224C16.9294 28.5985 16.9947 28.6259 17.0183 28.6837C17.0419 28.7415 17.0149 28.8078 16.958 28.8318L14.263 29.966C14.2061 29.9899 14.1408 29.9625 14.1172 29.9047ZM44.2404 28.9069C44.221 28.958 44.1684 28.9877 44.1154 28.9774L42.0877 28.584C42.0323 28.5733 41.9935 28.5222 41.9973 28.4651C42.0011 28.4079 42.0463 28.3626 42.1027 28.3596L43.3829 28.2899C43.4054 28.2887 43.4278 28.2944 43.447 28.3063L44.1944 28.7694C44.2405 28.7979 44.2598 28.8558 44.2404 28.9069ZM43.5533 28.6376L43.3603 28.5181L43.0297 28.5361L43.5533 28.6376ZM48.3443 28.8324C48.2871 28.8555 48.2222 28.8271 48.1994 28.7689L47.8824 27.9588C47.8596 27.9007 47.8876 27.8348 47.9449 27.8117C48.0022 27.7886 48.067 27.817 48.0898 27.8751L48.4068 28.6853C48.4296 28.7434 48.4016 28.8093 48.3443 28.8324ZM48.5205 27.1578C48.4928 27.1019 48.515 27.0338 48.57 27.0056L49.8382 26.3575C49.8933 26.3294 49.9604 26.3519 49.9881 26.4078C50.0158 26.4637 49.9936 26.5318 49.9386 26.5599L48.6704 27.2081C48.6153 27.2362 48.5482 27.2137 48.5205 27.1578ZM8.47566 24.1941C8.44427 24.248 8.37584 24.2658 8.3228 24.2339L7.57855 23.7867L6.34165 23.7101C6.28014 23.7063 6.23332 23.6526 6.23707 23.5902C6.24082 23.5277 6.29373 23.4802 6.35524 23.484L7.619 23.5622C7.63666 23.5633 7.65382 23.5687 7.66904 23.5778L8.43646 24.0389C8.4895 24.0708 8.50705 24.1403 8.47566 24.1941ZM0.0119351 23.5932C-0.0157711 23.5373 0.00639611 23.4692 0.0614422 23.4411L1.32964 22.793C1.38469 22.7648 1.45178 22.7874 1.47949 22.8433C1.50719 22.8991 1.48503 22.9673 1.42997 22.9954L0.16178 23.6435C0.10673 23.6716 0.0396412 23.6491 0.0119351 23.5932ZM2.05512 22.1894C1.99784 22.2125 1.93296 22.1841 1.91021 22.1259L1.59316 21.3158C1.5704 21.2576 1.59838 21.1917 1.65565 21.1686C1.71292 21.1455 1.7778 21.1739 1.80056 21.2321L2.11761 22.0422C2.14037 22.1004 2.11239 22.1662 2.05512 22.1894ZM32.9817 21.3173C32.9581 21.2595 32.9851 21.1932 33.042 21.1693L35.737 20.0351C35.7939 20.0111 35.8592 20.0386 35.8828 20.0964C35.9064 20.1542 35.8793 20.2205 35.8224 20.2444L33.1275 21.3786C33.0706 21.4026 33.0053 21.3751 32.9817 21.3173Z" fill="white"/>
<path fill-rule="evenodd" clip-rule="evenodd" d="M14.1546 29.8848C14.1443 29.8559 14.1536 29.8236 14.1775 29.8048L19.3162 25.7647L5.52067 24.0017L0.106578 23.6125C0.0814351 23.6107 0.0592144 23.5952 0.0484494 23.5721C0.0376766 23.549 0.0400418 23.5217 0.0546253 23.5009L1.63987 21.2325C1.65248 21.2145 1.67268 21.2034 1.69446 21.2027L5.86509 21.064C5.87799 21.0636 5.89075 21.0668 5.90195 21.0733L6.61763 21.4882L7.87733 21.457L8.77897 20.9743C8.78832 20.9693 8.79865 20.9665 8.80921 20.9662L35.7773 20.0685C35.8075 20.0675 35.8349 20.0864 35.8452 20.1153C35.8554 20.1442 35.8462 20.1765 35.8223 20.1953L29.7842 24.9425L41.6283 25.7937C41.6392 25.7945 41.6498 25.7978 41.6592 25.8035L42.412 26.2599L43.643 26.33L44.4424 26.0028C44.4522 25.9988 44.4628 25.9971 44.4734 25.9978L49.8932 26.3877C49.9183 26.3895 49.9406 26.4049 49.9513 26.428C49.9621 26.4512 49.9597 26.4784 49.9451 26.4993L48.3599 28.7676C48.3473 28.7857 48.3271 28.7967 48.3053 28.7974L44.1385 28.9361C44.1348 28.9362 44.1311 28.9361 44.1275 28.9356L19.5121 25.7898L14.4333 29.7829L41.1828 28.8931C41.2213 28.8918 41.2535 28.9224 41.2548 28.9615C41.2561 29.0006 41.2259 29.0334 41.1874 29.0346L14.2225 29.9316C14.1923 29.9326 14.1648 29.9137 14.1546 29.8848ZM19.6683 25.667L44.1394 28.7944L48.2662 28.657L49.7596 26.52L44.4796 26.1403L43.6807 26.4673C43.6712 26.4712 43.6609 26.4729 43.6507 26.4723L42.3871 26.4003C42.3758 26.3997 42.3649 26.3963 42.3552 26.3904L41.6019 25.9338L29.5922 25.0707C29.5633 25.0686 29.5387 25.0487 29.5304 25.0206C29.522 24.9925 29.5315 24.9621 29.5544 24.9441L35.5665 20.2173L8.82982 21.1072L7.92791 21.59C7.91839 21.5951 7.90784 21.5979 7.89708 21.5982L6.60162 21.6303C6.58892 21.6306 6.57637 21.6274 6.56534 21.621L5.84993 21.2062L1.73361 21.3431L0.240168 23.4801L5.53243 23.8606C5.53315 23.8606 5.53387 23.8607 5.53459 23.8607C5.53513 23.8608 5.53567 23.8609 5.53621 23.8609L19.4723 25.642L20.2156 25.0576L8.37459 24.2066C8.33617 24.2039 8.30723 24.17 8.30995 24.131C8.31267 24.092 8.34602 24.0626 8.38444 24.0654L20.4076 24.9294C20.4364 24.9315 20.461 24.9514 20.4694 24.9795C20.4778 25.0076 20.4682 25.0381 20.4454 25.0561L19.6683 25.667Z" fill="#3B4949"/>
<path d="M25.0001 44.1191C35.326 44.1191 43.7061 35.5538 43.7061 25.0001C43.706 14.446 35.326 5.88102 25.0001 5.88103C14.6743 5.88103 6.29422 14.446 6.29422 25.0001C6.29423 35.5538 14.6745 44.1191 25.0001 44.1191ZM25.0001 7.50129C34.4885 7.50128 42.1802 15.3629 42.1803 25.0608C42.1803 34.7587 34.4885 42.6204 25.0001 42.6204C15.5118 42.6204 7.82003 34.7587 7.82003 25.0608C7.82003 15.3631 15.512 7.50129 25.0001 7.50129Z" fill="url(#paint7_linear)"/>
<path fill-rule="evenodd" clip-rule="evenodd" d="M43.8452 24.9991C43.8452 35.6301 35.4035 44.2598 24.9998 44.2598C14.5962 44.2598 6.1544 35.6301 6.1544 24.9991C6.15439 14.3677 14.5961 5.73839 24.9998 5.73839C35.4035 5.73839 43.8452 14.3677 43.8452 24.9991ZM24.9998 43.9765C35.2477 43.9765 43.5662 35.4755 43.5662 24.9991C43.5662 14.5224 35.2477 6.02165 24.9998 6.02165C14.7519 6.02165 6.43336 14.5224 6.43337 24.9991C6.43337 35.4755 14.752 43.9765 24.9998 43.9765ZM24.9998 42.4778C34.4102 42.4778 42.0404 34.6804 42.0404 25.0598C42.0404 15.4393 34.4102 7.64191 24.9998 7.64191C15.5895 7.64191 7.95917 15.4394 7.95917 25.0598C7.95917 34.6804 15.5894 42.4778 24.9998 42.4778ZM42.3194 25.0598C42.3194 34.8351 34.566 42.761 24.9998 42.761C15.4336 42.761 7.6802 34.8351 7.6802 25.0598C7.6802 15.2848 15.4337 7.35865 24.9998 7.35865C34.566 7.35865 42.3194 15.2846 42.3194 25.0598Z" fill="white"/>
<path d="M25.0002 42.8223C33.461 42.8223 40.5165 36.6523 42.1011 28.4779L41.1896 28.959C39.4423 36.4427 32.855 42.0121 25.0002 42.0121C15.8121 42.0121 8.35515 34.3904 8.35515 24.9994C8.35515 24.7075 8.36053 24.4165 8.37496 24.1285L7.61214 23.6729C7.58075 24.1105 7.56268 24.5539 7.56268 24.9996C7.56253 34.8376 15.3746 42.8223 25.0002 42.8223Z" fill="url(#paint8_linear)"/>
<defs>
<linearGradient id="paint0_linear" x1="44.1317" y1="34.2638" x2="5.50107" y2="34.2638" gradientUnits="userSpaceOnUse">
<stop stop-color="#D7DCDF"/>
<stop offset="0.2" stop-color="#D6DADE"/>
<stop offset="0.67" stop-color="#DEDFE1"/>
<stop offset="1" stop-color="#3A4A49"/>
</linearGradient>
<linearGradient id="paint1_linear" x1="39.2974" y1="14.7702" x2="9.30668" y2="23.1171" gradientUnits="userSpaceOnUse">
<stop stop-color="#4F5A57"/>
<stop offset="0.15" stop-color="#969E9D"/>
<stop offset="0.7" stop-color="#DEE2E3"/>
<stop offset="1" stop-color="#666B6F"/>
</linearGradient>
<linearGradient id="paint2_linear" x1="39.8576" y1="31.7576" x2="16.0774" y2="11.2912" gradientUnits="userSpaceOnUse">
<stop stop-color="#667173"/>
<stop offset="0.15" stop-color="#E0E0E1"/>
<stop offset="0.3" stop-color="#E0E0E1"/>
<stop offset="1" stop-color="#3B4B4A"/>
</linearGradient>
<linearGradient id="paint3_linear" x1="48.3429" y1="28.8892" x2="14.1808" y2="28.8892" gradientUnits="userSpaceOnUse">
<stop stop-color="#B1BCC0"/>
<stop offset="1" stop-color="#848E91"/>
</linearGradient>
<linearGradient id="paint4_linear" x1="35.8288" y1="20.2183" x2="27.0011" y2="25.7145" gradientUnits="userSpaceOnUse">
<stop stop-color="#C2CFD6"/>
<stop offset="1" stop-color="#DCE3E6"/>
</linearGradient>
<linearGradient id="paint5_linear" x1="22.9791" y1="23.9468" x2="0.0722685" y2="23.9468" gradientUnits="userSpaceOnUse">
<stop stop-color="#A4ABB3"/>
<stop offset="1" stop-color="#969EA2"/>
</linearGradient>
<linearGradient id="paint6_linear" x1="47.8752" y1="30.4024" x2="2.39115" y2="20.1197" gradientUnits="userSpaceOnUse">
<stop stop-color="#EAEFF2"/>
<stop offset="0.18" stop-color="#D3DDDF"/>
<stop offset="0.56" stop-color="white"/>
<stop offset="0.83" stop-color="#D3DDDF"/>
<stop offset="1" stop-color="#EAEFF2"/>
</linearGradient>
<linearGradient id="paint7_linear" x1="41.7552" y1="16.652" x2="8.01387" y2="32.7449" gradientUnits="userSpaceOnUse">
<stop stop-color="#D2D7DD"/>
<stop offset="0.304" stop-color="white"/>
<stop offset="0.577" stop-color="white"/>
<stop offset="1" stop-color="#ABB5B8"/>
</linearGradient>
<linearGradient id="paint8_linear" x1="40.9957" y1="36.7696" x2="6.47969" y2="32.1678" gradientUnits="userSpaceOnUse">
<stop stop-color="#4F5855"/>
<stop offset="1" stop-color="#F7F7FA"/>
</linearGradient>
</defs>
</svg>
