<svg width="50" height="50" viewBox="0 0 50 50" fill="none" xmlns="http://www.w3.org/2000/svg">
<path fill-rule="evenodd" clip-rule="evenodd" d="M31.2675 38.1966C32.8966 39.2913 33.6272 39.7857 35.2305 40.613C36.5615 40.0566 38.1145 40.5874 37.8737 41.7023C37.7145 42.441 37.5816 44.0168 36.7359 43.9572C35.7999 43.8814 34.7671 43.4259 33.5152 44.1729C32.6725 44.653 31.5129 46.8567 30.764 47.034C31.0921 47.4794 31.419 47.9258 31.7446 48.3729C33.861 48.3729 35.4551 49.4794 36.2831 50C39.7411 48.5162 41.1 49.1402 44.5256 49.7665C44.9494 49.8448 45.1761 49.1791 45.0417 48.6389C44.813 47.718 44.2406 46.4091 44.2031 45.8255L44.2011 38.1203C43.695 37.5166 42.9968 36.412 42.9938 36.413C41.5411 36.7878 40.8627 36.7035 40.5955 35.8541C40.3075 34.9377 39.6052 33.0467 39.0556 31.8555C39.0556 31.8555 42.1663 31.4827 44.0251 29.2037C44.7203 28.3503 45.4651 26.9335 45.4494 25.2297C45.4159 21.4128 42.4381 15.792 41.6922 13.8528C41.2435 12.6862 39.9455 9.61582 41.2029 8.35862C41.6963 7.86667 42.7134 7.5978 43.439 9.13816C43.7904 9.8842 43.945 9.56116 43.8755 9.69708C42.9715 11.1197 42.4345 11.8825 42.8128 13.1836C43.3396 14.9987 45.6441 16.7296 46.3798 17.2053C46.3798 17.2053 47.6099 18.0218 47.8583 17.8302C48.4465 17.3747 47.0055 14.9672 47.0354 14.4802C47.0633 14.034 47.081 13.6292 47.2245 13.1604C47.3848 12.6345 47.6327 11.8589 47.7762 11.0611C48.2376 8.52113 46.175 4.99869 43.7762 4.6663C43.1363 4.57766 41.0975 5.36359 39.3157 8.07596C38.977 8.58958 38.4908 9.91178 38.5435 10.9237C37.6699 8.79689 36.5975 6.3795 35.4272 4.59341C35.05 3.74937 33.0634 1.39796 32.4661 1.23546C30.8213 0.787828 29.3762 1.0631 27.8226 0.818359C27.1828 0.884347 22.6108 1.89828 22.4571 2.11594C22.4571 2.11594 21.3442 3.88972 21.3442 3.89956C20.2094 4.18321 18.7481 4.67861 18.5773 4.90513C18.0728 5.52856 17.5936 5.793 17.7559 6.04809C17.9714 6.77395 18.453 6.91528 18.453 6.91528L20.9502 6.91872C21.6013 5.80137 23.5904 5.96831 24.753 6.94433C25.1647 7.29052 24.754 7.00047 24.9421 7.53231C24.2668 7.81595 23.1863 8.16559 22.412 7.96664C21.3482 7.81349 19.2025 7.66477 18.6118 7.87701L19.0397 8.59155C19.6912 8.87421 21.0699 8.99732 21.5835 9.00667C22.412 9.02539 23.6456 9.11058 24.7261 9.02539C24.1856 9.80985 23.8632 10.8509 23.1335 10.8509H20.2343C20.2764 11.0459 19.6203 11.0016 19.6852 11.1862C19.6852 11.1862 20.1121 11.7053 20.3463 12.0362L22.0789 12.1258C22.8714 12.1731 22.8187 12.9403 22.5312 13.3756C22.0444 14.1034 20.6845 15.4641 19.5138 15.5778C16.578 12.9689 14.3805 11.069 11.499 8.73435C11.0127 8.33695 10.4722 8.14884 9.6706 8.00603C8.86948 7.8647 7.52734 7.74159 6.34746 7.74159C5.84346 7.74159 3.22004 7.45351 3.04004 7.6239L3.53187 8.3729C3.5988 8.77178 3.50297 8.97368 3.42792 9.71776C3.40207 10.0157 3.28342 10.5406 3.28342 10.5406C3.28342 10.5406 3.66167 11.0661 3.9664 11.5324C5.24566 11.0257 6.31298 11.9992 6.31298 11.9992L5.37293 12.6867L6.27546 13.9705C7.80571 14.5555 8.871 14.6116 11.0923 14.1547L15.3682 19.476L7.5532 19.8822C6.47219 19.9202 5.64369 20.78 5.38307 21.5078C5.11282 22.2263 3.68043 22.5109 3.61654 23.0871L4.53682 24.4541L5.07124 24.2906C5.38916 24.6796 5.91039 25.4577 6.71101 25.8334C6.99039 25.3149 7.7403 24.6791 8.63168 24.8662C8.86492 25.1656 9.4257 26.0151 9.4257 26.0151C10.7582 26.2323 12.3534 25.1942 12.6322 23.871L19.0874 23.7789L22.6554 28.0489C20.1648 31.4753 17.5941 35.4862 15.1618 39.4253C16.2246 40.4087 15.8565 42.4154 14.1118 42.6035C12.9207 42.7325 11.608 41.6107 10.0047 41.9796C8.40706 42.3351 6.52949 43.4057 5.57575 44.815C5.74459 45.0682 6.48741 46.1156 6.48741 46.1156C7.85489 46.4598 9.49922 47.2374 10.6512 48.7728C12.6388 47.4407 17.1358 48.6556 18.8105 49.2229C19.2704 49.4154 19.6451 49.0638 19.6116 48.4054C19.5731 47.6668 18.8485 46.6169 19.2486 45.4104C19.964 43.2575 25.2814 38.792 28.1953 35.9816C28.1948 35.9811 30.2326 37.5033 31.2675 38.1966ZM41.3469 19.31C42.2642 21.6703 42.5937 22.6808 42.8899 24.2847C43.1256 25.566 42.9989 26.7282 42.5086 27.3979C41.9361 28.1823 40.416 29.4223 37.4402 28.7073L37.4422 28.7014C36.5153 27.3211 34.6773 24.6796 33.8422 23.3668C34.4375 21.1552 34.7067 20.6165 35.1752 18.5083L36.3485 19.1175C36.8982 17.5476 38.2362 13.643 38.4974 12.2253C38.4974 12.2253 38.9142 12.9999 39.2163 13.9129C39.8861 15.9284 40.6726 17.5752 41.3469 19.31ZM25.5775 3.48444C25.0086 3.74051 23.9702 4.10984 23.1219 4.40383C22.9322 3.93059 22.9145 3.55092 22.9956 2.992C23.6963 2.88021 24.7469 2.73593 25.4243 2.73593C25.8568 2.73593 25.9745 3.29534 25.5775 3.48444Z" fill="#A6A8AA"/>
<path fill-rule="evenodd" clip-rule="evenodd" d="M45.7462 13.1122C45.7807 12.6655 45.9044 12.2593 46.0484 11.789C46.2116 11.2527 46.5118 10.4889 46.6021 9.68527C46.8865 7.14624 45.4415 4.80616 43.0371 4.47278C42.3962 4.38414 39.8483 3.97394 38.062 6.69271C37.7233 7.20829 37.236 8.53345 37.2877 9.54788C36.4131 7.41561 35.3367 4.9928 34.1644 3.20179C33.9119 2.85068 32.5936 1.26895 32.232 1.16456C30.5892 0.718897 28.63 0.254526 27.0683 0.0078125C26.4274 0.0742921 21.6344 1.81803 21.4813 2.03569C21.4813 2.03569 20.9301 2.62317 20.9301 2.63252C19.7933 2.91716 17.4462 3.28698 17.2744 3.51449C16.7683 4.13989 17.1207 4.72737 17.2835 4.98344C17.3372 5.07799 17.717 6.43319 18.3939 6.43319L20.2081 6.4386C21.0929 4.92238 23.6783 4.84753 24.4003 6.88476C23.7204 7.17087 23.1814 7.49243 21.8463 7.32008C20.2269 7.08617 18.6084 7.64804 18.6165 7.87653C18.6292 8.23848 20.5225 8.35863 21.0123 8.3675C21.8468 8.38621 23.0947 8.4714 24.1833 8.38572C23.6418 9.17215 22.5734 9.47451 21.8428 9.47451H18.9359C19.0631 10.0779 19.3114 10.651 19.6666 11.1611H20.8586C21.6527 11.2084 21.4072 11.5078 21.2374 12.0047C20.9311 12.9024 20.3754 14.2605 19.5008 15.0509C16.5579 12.4356 12.6136 9.16181 9.82796 7.08272C9.01416 6.47505 5.6677 6.04958 3.99142 6.69812C3.51024 6.88377 3.20653 7.28413 3.03819 7.60963L3.87227 7.85241C2.34253 8.78706 3.29019 10.5397 3.29019 10.5397C4.03148 10.3776 5.19615 9.99945 6.41356 11.8358L5.38122 12.6729C5.90398 13.0511 9.04712 13.4224 9.94762 12.8551C9.94762 12.8551 13.6612 17.9046 14.0577 18.1198C14.2737 18.2365 12.5472 18.3355 10.62 18.4768C8.96397 18.5039 7.41395 18.531 6.19908 18.5581C5.1059 18.5822 4.31086 19.4277 4.04923 20.1575C3.77847 20.878 3.48945 22.406 3.61571 23.0698L4.22061 22.8709C4.98827 24.169 5.02427 24.4605 6.01705 24.8406C6.57277 23.4081 8.66076 23.5618 8.66076 23.5618L8.63743 24.8663C11.5362 24.8475 11.814 22.7084 11.814 22.7084L17.468 22.6183L21.0452 27.0389C18.1105 30.1516 16.0641 34.003 13.8513 38.1184C14.9171 39.1047 14.548 41.1158 12.7977 41.3044C11.6046 41.433 10.2884 40.3097 8.68154 40.679C6.72285 41.1153 7.12899 42.7158 5.58556 44.8111C7.12899 45.1997 8.73985 46.2239 9.80058 47.4718C11.9195 46.1023 16.2106 47.1606 17.8894 47.7288C18.2626 47.8524 18.4177 47.1635 18.1744 46.5814C17.9761 46.1077 17.6922 45.3705 18.1962 44.166C18.6479 43.0861 23.6935 37.8544 27.2676 34.5324C27.2884 34.5137 28.5195 35.4656 29.7602 36.3943C31.6981 37.847 34.2769 39.3165 34.2769 39.3165L34.7941 39.2741C37.1402 38.7615 37.5402 40.8736 37.2786 41.5832C37.018 42.2933 36.3249 42.7212 35.4781 42.6606C34.5391 42.5853 33.5032 42.1283 32.2488 42.8768C30.9852 43.5973 31.5267 46.0038 30.7591 47.0177C32.8805 47.0177 34.5867 48.1257 35.4178 48.6472C38.8839 47.1601 39.897 47.6151 43.4077 48.2213C43.6521 48.2686 43.8453 47.5752 43.5761 47.1748C43.3236 46.8016 42.9316 45.8054 43.0026 44.981V36.4145C40.7635 36.7178 39.7347 35.7704 39.3463 34.5383C39.0573 33.6194 38.2085 31.7437 37.6589 30.5485C37.6589 30.5485 41.1113 30.4589 42.9747 28.174C43.6719 27.3181 44.2702 25.5877 43.9492 23.9607C43.5056 21.7058 43.2166 20.9504 42.4398 18.9796C41.7943 17.3383 40.5977 14.3398 40.1038 12.632C39.4046 10.2176 39.3007 9.14112 40.0435 7.80661C40.4943 6.99654 41.4713 6.23375 42.5838 6.78972C43.3144 7.15412 43.1542 7.3639 43.0847 7.49982C42.1786 8.92593 41.8141 10.7736 42.1934 12.0776C42.7212 13.8971 44.4066 15.3666 45.1443 15.8433C45.1443 15.8433 46.3775 16.6622 46.6249 16.4701C47.2151 16.0136 45.6889 13.8257 45.7462 13.1122ZM25.2339 2.90238C24.6665 3.15747 23.6311 3.52631 22.7844 3.81931C22.5952 3.34656 22.577 2.96837 22.6581 2.41093C23.3695 2.29767 24.4049 2.15535 25.0802 2.15535C25.5133 2.15535 25.6289 2.71328 25.2339 2.90238ZM39.9492 18.2405C40.8674 20.6061 41.1991 21.6196 41.4952 23.2264C41.7319 24.5107 41.6052 25.6768 41.1139 26.348C40.5394 27.134 39.0162 28.3764 36.0328 27.6609L36.0348 27.6545C35.1049 26.2707 33.452 23.7701 32.6164 22.4543C33.2127 20.2368 33.4839 19.6966 33.9524 17.584C33.9524 17.584 35.2565 18.3133 35.3154 18.0578C35.5334 17.1206 37.0226 12.7074 37.2842 11.2857C37.2842 11.2857 37.5108 11.9146 37.8151 12.8305C38.4844 14.8505 39.2738 16.5012 39.9492 18.2405Z" fill="#E3E3E3"/>
<path fill-rule="evenodd" clip-rule="evenodd" d="M45.7462 13.1122C45.7807 12.6655 45.9044 12.2593 46.0484 11.789C46.2116 11.2527 46.5118 10.4889 46.6021 9.68527C46.8865 7.14624 45.4415 4.80616 43.0371 4.47278C42.3962 4.38414 39.8483 3.97394 38.062 6.69271C37.7233 7.20829 37.236 8.53345 37.2877 9.54788C36.4131 7.41561 35.3367 4.9928 34.1644 3.20179C33.9119 2.85068 32.5936 1.26895 32.232 1.16456C30.5892 0.718897 28.63 0.254526 27.0683 0.0078125C26.4274 0.0742921 21.6344 1.81803 21.4813 2.03569C21.4813 2.03569 20.9301 2.62317 20.9301 2.63252C19.7933 2.91716 17.4462 3.28698 17.2744 3.51449C16.7683 4.13989 17.1207 4.72737 17.2835 4.98344C17.3372 5.07799 17.717 6.43319 18.3939 6.43319L20.2081 6.4386C21.0929 4.92238 23.6783 4.84753 24.4003 6.88476C23.7204 7.17087 23.1814 7.49243 21.8463 7.32008C20.2269 7.08617 18.6084 7.64804 18.6165 7.87653C18.6292 8.23848 20.5225 8.35863 21.0123 8.3675C21.8468 8.38621 23.0947 8.4714 24.1833 8.38572C23.6418 9.17215 22.5734 9.47451 21.8428 9.47451H18.9359C19.0631 10.0779 19.3114 10.651 19.6666 11.1611H20.8586C21.6527 11.2084 21.4072 11.5078 21.2374 12.0047C20.9311 12.9024 20.3754 14.2605 19.5008 15.0509C16.5579 12.4356 12.6136 9.16181 9.82796 7.08272C9.01416 6.47505 5.6677 6.04958 3.99142 6.69812C3.51024 6.88377 3.20653 7.28413 3.03819 7.60963L3.87227 7.85241C2.34253 8.78706 3.29019 10.5397 3.29019 10.5397C4.03148 10.3776 5.19615 9.99945 6.41356 11.8358L5.38122 12.6729C5.90398 13.0511 9.04712 13.4224 9.94762 12.8551C9.94762 12.8551 13.6612 17.9046 14.0577 18.1198C14.2737 18.2365 12.5472 18.3355 10.62 18.4768C8.96397 18.5039 7.41395 18.531 6.19908 18.5581C5.1059 18.5822 4.31086 19.4277 4.04923 20.1575C3.77847 20.878 3.48945 22.406 3.61571 23.0698L4.22061 22.8709C4.98827 24.169 5.02427 24.4605 6.01705 24.8406C6.57277 23.4081 8.66076 23.5618 8.66076 23.5618L8.63743 24.8663C11.5362 24.8475 11.814 22.7084 11.814 22.7084L17.468 22.6183L21.0452 27.0389C18.1105 30.1516 16.0641 34.003 13.8513 38.1184C14.9171 39.1047 14.548 41.1158 12.7977 41.3044C11.6046 41.433 10.2884 40.3097 8.68154 40.679C6.72285 41.1153 7.12899 42.7158 5.58556 44.8111C7.12899 45.1997 8.73985 46.2239 9.80058 47.4718C11.9195 46.1023 16.2106 47.1606 17.8894 47.7288C18.2626 47.8524 18.4177 47.1635 18.1744 46.5814C17.9761 46.1077 17.6922 45.3705 18.1962 44.166C18.6479 43.0861 23.6935 37.8544 27.2676 34.5324C27.2884 34.5137 28.5195 35.4656 29.7602 36.3943C31.6981 37.847 34.2769 39.3165 34.2769 39.3165L34.7941 39.2741C37.1402 38.7615 37.5402 40.8736 37.2786 41.5832C37.018 42.2933 36.3249 42.7212 35.4781 42.6606C34.5391 42.5853 33.5032 42.1283 32.2488 42.8768C30.9852 43.5973 31.5267 46.0038 30.7591 47.0177C32.8805 47.0177 34.5867 48.1257 35.4178 48.6472C38.8839 47.1601 39.897 47.6151 43.4077 48.2213C43.6521 48.2686 43.8453 47.5752 43.5761 47.1748C43.3236 46.8016 42.9316 45.8054 43.0026 44.981V36.4145C40.7635 36.7178 39.7347 35.7704 39.3463 34.5383C39.0573 33.6194 38.2085 31.7437 37.6589 30.5485C37.6589 30.5485 41.1113 30.4589 42.9747 28.174C43.6719 27.3181 44.2702 25.5877 43.9492 23.9607C43.5056 21.7058 43.2166 20.9504 42.4398 18.9796C41.7943 17.3383 40.5977 14.3398 40.1038 12.632C39.4046 10.2176 39.3007 9.14112 40.0435 7.80661C40.4943 6.99654 41.4713 6.23375 42.5838 6.78972C43.3144 7.15412 43.1542 7.3639 43.0847 7.49982C42.1786 8.92593 41.8141 10.7736 42.1934 12.0776C42.7212 13.8971 44.4066 15.3666 45.1443 15.8433C45.1443 15.8433 46.3775 16.6622 46.6249 16.4701C47.2151 16.0136 45.6889 13.8257 45.7462 13.1122ZM25.2339 2.90238C24.6665 3.15747 23.6311 3.52631 22.7844 3.81931C22.5952 3.34656 22.577 2.96837 22.6581 2.41093C23.3695 2.29767 24.4049 2.15535 25.0802 2.15535C25.5133 2.15535 25.6289 2.71328 25.2339 2.90238ZM39.9492 18.2405C40.8674 20.6061 41.1991 21.6196 41.4952 23.2264C41.7319 24.5107 41.6052 25.6768 41.1139 26.348C40.5394 27.134 39.0162 28.3764 36.0328 27.6609L36.0348 27.6545C35.1049 26.2707 33.452 23.7701 32.6164 22.4543C33.2127 20.2368 33.4839 19.6966 33.9524 17.584C33.9524 17.584 35.2565 18.3133 35.3154 18.0578C35.5334 17.1206 37.0226 12.7074 37.2842 11.2857C37.2842 11.2857 37.5108 11.9146 37.8151 12.8305C38.4844 14.8505 39.2738 16.5012 39.9492 18.2405Z" fill="url(#paint0_radial)"/>
<path fill-rule="evenodd" clip-rule="evenodd" d="M39.9505 18.2538C40.8688 20.6185 41.1993 21.6305 41.4955 23.2368C41.7282 24.4999 41.6095 25.6636 41.1142 26.3392C40.5397 27.1247 39.0176 28.373 36.0377 27.657L36.0397 27.6599C35.1108 26.2777 33.4599 23.7795 32.6243 22.4647C33.2195 20.2487 33.4898 19.71 33.9593 17.5989C33.9593 17.5989 35.2624 18.3282 35.3212 18.0721C35.5393 17.1365 37.0254 12.7262 37.287 11.3065C37.287 11.3065 37.5147 11.9343 37.8179 12.8493C38.4882 14.8678 39.2761 16.517 39.9505 18.2538ZM29.5425 9.06141C29.5425 15.311 26.6549 19.9232 26.2822 25.4912C26.0444 29.055 26.2792 31.2661 27.2882 34.5379C27.2882 34.5379 28.5183 35.4661 29.758 36.3944C31.6959 37.8456 34.2422 39.3539 34.2422 39.3539L34.9009 39.2904C37.1121 38.7724 37.5025 40.9105 37.2409 41.6197C36.9803 42.3288 36.3226 42.7001 35.4764 42.6405C34.5384 42.5656 33.5035 42.1082 32.2501 42.8567C30.9876 43.5761 31.5164 46.0088 30.7498 47.0222C32.8692 47.0222 34.586 48.1421 35.416 48.6635C38.8791 47.1764 39.9201 47.6516 43.4288 48.2573C43.6722 48.305 43.8507 47.5885 43.5743 47.1114C43.3497 46.7214 42.9456 45.77 43.0029 45.0022L42.9938 36.3998C40.7577 36.7026 39.7289 35.7562 39.3405 34.5251C39.0536 33.6067 38.2321 31.76 37.682 30.5673C37.682 30.5673 41.1324 30.4777 42.9943 28.1947C43.6915 27.3403 44.2796 25.9275 44.021 24.0031C43.7396 21.9018 42.9892 20.1344 42.5435 18.9452C41.9244 17.295 40.6588 14.4349 40.165 12.7286C39.4668 10.3162 39.2477 9.29237 40.0382 7.82982C40.4778 7.01434 41.465 6.24563 42.5765 6.80062C43.3061 7.16502 43.1459 7.37431 43.0764 7.51022C42.1713 8.93535 41.8068 10.7815 42.185 12.084C42.7139 13.9021 44.3972 15.3706 45.135 15.8468C45.135 15.8468 46.3909 16.68 46.6384 16.4879C47.2286 16.0319 45.6948 13.8307 45.7521 13.1172C45.7865 12.671 45.9047 12.2652 46.0482 11.7954C46.2114 11.2592 46.5324 10.4624 46.6227 9.65874C46.9071 7.12218 45.4331 4.78358 43.0298 4.45069C42.3889 4.36155 39.845 3.95824 38.0582 6.67553C37.7256 7.18324 37.2292 8.42469 37.286 9.53071C36.4114 7.40041 35.3491 4.97957 34.1763 3.19053C33.9238 2.83991 32.6065 1.25917 32.246 1.15477C30.7756 0.755897 27.8835 0.0482593 27.0874 0C27.0874 0.00147732 29.5425 2.81184 29.5425 9.06141Z" fill="#979895"/>
<defs>
<radialGradient id="paint0_radial" cx="0" cy="0" r="1" gradientUnits="userSpaceOnUse" gradientTransform="translate(-9.37522 19.4425) scale(82.689 91.753)">
<stop stop-color="white"/>
<stop offset="0.041" stop-color="#FAFAF8"/>
<stop offset="0.225" stop-color="#F8F8F5"/>
<stop offset="0.287" stop-color="#DADAD7"/>
<stop offset="0.413" stop-color="#A3A4A1"/>
<stop offset="0.52" stop-color="#7E7F7D"/>
<stop offset="0.6" stop-color="#686866"/>
<stop offset="0.646" stop-color="#5F5F5D"/>
<stop offset="0.739" stop-color="#565754"/>
<stop offset="0.899" stop-color="#3B3A37"/>
<stop offset="1"/>
</radialGradient>
</defs>
</svg>
