<svg width="50" height="50" viewBox="0 0 50 50" fill="none" xmlns="http://www.w3.org/2000/svg">
<g clip-path="url(#clip0)">
<path d="M45.4559 24.8057L31.3758 0.196289C31.3066 0.0751953 31.177 0 31.0376 0H18.9626C18.8232 0 18.6935 0.0751953 18.6243 0.196289L4.54412 24.8057C4.47488 24.9258 4.47488 25.0742 4.54412 25.1943L18.6243 49.8037C18.6331 49.8184 18.6419 49.833 18.6515 49.8457C18.6515 49.8467 18.6525 49.8467 18.6525 49.8467C18.6837 49.8877 18.7227 49.9209 18.7656 49.9463C18.8114 49.9736 18.8621 49.9902 18.9157 49.9961C18.9313 49.999 18.9468 50 18.9625 50H31.0376C31.1769 50 31.3066 49.9248 31.3758 49.8037L45.4559 25.1943C45.5252 25.0742 45.5252 24.9258 45.4559 24.8057ZM17.9478 25.1846C17.8864 25.0693 17.8864 24.9307 17.9478 24.8154L25.0001 11.6729L32.0523 24.8154C32.1137 24.9307 32.1137 25.0693 32.0523 25.1846L25.0001 38.3271L17.9478 25.1846Z" fill="#CCCCCC"/>
<path d="M45.4559 24.8057L31.3758 0.196289C31.3066 0.0751953 31.177 0 31.0376 0H18.9626C18.8232 0 18.6935 0.0751953 18.6243 0.196289L4.54412 24.8057C4.47488 24.9258 4.47488 25.0742 4.54412 25.1943L18.6243 49.8037C18.6331 49.8184 18.6419 49.833 18.6515 49.8457C18.6515 49.8467 18.6525 49.8467 18.6525 49.8467C18.6837 49.8877 18.7227 49.9209 18.7656 49.9463C18.8114 49.9736 18.8621 49.9902 18.9157 49.9961C18.9313 49.999 18.9468 50 18.9625 50H31.0376C31.1769 50 31.3066 49.9248 31.3758 49.8037L45.4559 25.1943C45.5252 25.0742 45.5252 24.9258 45.4559 24.8057ZM17.9478 25.1846C17.8864 25.0693 17.8864 24.9307 17.9478 24.8154L25.0001 11.6729L32.0523 24.8154C32.1137 24.9307 32.1137 25.0693 32.0523 25.1846L25.0001 38.3271L17.9478 25.1846Z" fill="url(#paint0_radial)"/>
<path d="M31.0376 0H28.7554L43.059 25L28.7554 50H31.0376C31.1773 50 31.3064 49.9251 31.3759 49.8036L45.456 25.1942C45.5248 25.0739 45.5248 24.9261 45.456 24.8058L31.3759 0.196387C31.3064 0.0749023 31.1773 0 31.0376 0Z" fill="#8C8C8C"/>
<path d="M31.0319 0.431641L30.0504 2.26172L26.2547 9.33594L25.0002 11.6729L17.9479 24.8154C17.8855 24.9307 17.8855 25.0693 17.9479 25.1846L25.0002 38.3271L23.7457 40.6641L19.8214 47.9785V47.9795L18.9821 49.543L18.7657 49.9463L18.754 49.9668C18.7228 49.9482 18.6965 49.9228 18.676 49.8936C18.672 49.8867 18.6681 49.8809 18.6642 49.874L18.6243 49.8037L4.54412 25.1943C4.47488 25.0742 4.47488 24.9258 4.54412 24.8057L18.6243 0.196289C18.6935 0.0751953 18.8231 0 18.9626 0H30.7745C30.9958 0 31.1372 0.236328 31.0319 0.431641Z" fill="#CCCCCC"/>
<path d="M31.0319 0.431641L30.0504 2.26172L26.2547 9.33594L25.0002 11.6729L17.9479 24.8154C17.8855 24.9307 17.8855 25.0693 17.9479 25.1846L25.0002 38.3271L23.7457 40.6641L19.8214 47.9785V47.9795L18.9821 49.543L18.7657 49.9463L18.754 49.9668C18.7228 49.9482 18.6965 49.9228 18.676 49.8936C18.672 49.8867 18.6681 49.8809 18.6642 49.874L18.6243 49.8037L4.54412 25.1943C4.47488 25.0742 4.47488 24.9258 4.54412 24.8057L18.6243 0.196289C18.6935 0.0751953 18.8231 0 18.9626 0H30.7745C30.9958 0 31.1372 0.236328 31.0319 0.431641Z" fill="#E3E3E3"/>
<path d="M31.0319 0.431641L30.0504 2.26172L26.2547 9.33594L25.0002 11.6729L17.9479 24.8154C17.8855 24.9307 17.8855 25.0693 17.9479 25.1846L25.0002 38.3271L23.7457 40.6641L19.8214 47.9785V47.9795L18.9821 49.543L18.7657 49.9463L18.754 49.9668C18.7228 49.9482 18.6965 49.9228 18.676 49.8936C18.672 49.8867 18.6681 49.8809 18.6642 49.874L18.6243 49.8037L4.54412 25.1943C4.47488 25.0742 4.47488 24.9258 4.54412 24.8057L18.6243 0.196289C18.6935 0.0751953 18.8231 0 18.9626 0H30.7745C30.9958 0 31.1372 0.236328 31.0319 0.431641Z" fill="url(#paint1_radial)"/>
<path d="M31.0319 0.431641L30.0504 2.26172L26.2547 9.33594L25.0002 11.6729L17.9479 24.8154C17.8855 24.9307 17.8855 25.0693 17.9479 25.1846L25.0002 38.3271L23.7457 40.6641L19.8214 47.9785V47.9795L18.9821 49.543L18.7657 49.9463L18.754 49.9668C18.7228 49.9482 18.6965 49.9228 18.676 49.8936C18.672 49.8867 18.6681 49.8809 18.6642 49.874L18.6243 49.8037L4.54412 25.1943C4.47488 25.0742 4.47488 24.9258 4.54412 24.8057L18.6243 0.196289C18.6935 0.0751953 18.8231 0 18.9626 0H30.7745C30.9958 0 31.1372 0.236328 31.0319 0.431641Z" fill="url(#paint2_radial)"/>
<path d="M31.0319 0.431641L30.0504 2.26172L26.2547 9.33594L25.0002 11.6729L17.9479 24.8154C17.8855 24.9307 17.8855 25.0693 17.9479 25.1846L25.0002 38.3271L23.7457 40.6641L19.8214 47.9785V47.9795L18.9821 49.543L18.7657 49.9463L18.754 49.9668C18.7228 49.9482 18.6965 49.9228 18.676 49.8936C18.672 49.8867 18.6681 49.8809 18.6642 49.874L18.6243 49.8037L4.54412 25.1943C4.47488 25.0742 4.47488 24.9258 4.54412 24.8057L18.6243 0.196289C18.6935 0.0751953 18.8231 0 18.9626 0H30.7745C30.9958 0 31.1372 0.236328 31.0319 0.431641Z" fill="url(#paint3_radial)"/>
<path d="M28.7553 0L15.4398 24.815C15.3778 24.9306 15.3778 25.0694 15.4398 25.185L23.7459 40.6643L25 38.3269L17.9479 25.185C17.8859 25.0694 17.8859 24.9306 17.9479 24.815L31.0317 0.431738C31.1365 0.236523 30.9954 0 30.7742 0H28.7553Z" fill="#8C8C8C"/>
<path d="M34.5603 25.1846L21.2444 50H18.8758C18.8319 50 18.79 49.9873 18.7539 49.9668L18.7656 49.9463L18.982 49.543L19.8213 47.9795V47.9785L23.7456 40.6641L25.0001 38.3271L32.0523 25.1846C32.1138 25.0693 32.1138 24.9307 32.0523 24.8154L25.0001 11.6729L26.2546 9.33594L34.5603 24.8154C34.6228 24.9307 34.6228 25.0693 34.5603 25.1846Z" fill="#A6A6A6"/>
</g>
<defs>
<radialGradient id="paint0_radial" cx="0" cy="0" r="1" gradientUnits="userSpaceOnUse" gradientTransform="translate(10.3365 20.0374) rotate(0.344046) scale(51.8737 63.1302)">
<stop stop-color="white"/>
<stop offset="0.041" stop-color="#FAFAF8"/>
<stop offset="0.225" stop-color="#F8F8F5"/>
<stop offset="0.287" stop-color="#DADAD7"/>
<stop offset="0.413" stop-color="#A3A4A1"/>
<stop offset="0.52" stop-color="#7E7F7D"/>
<stop offset="0.6" stop-color="#686866"/>
<stop offset="0.646" stop-color="#5F5F5D"/>
<stop offset="0.739" stop-color="#565754"/>
<stop offset="0.899" stop-color="#3B3A37"/>
<stop offset="1"/>
</radialGradient>
<radialGradient id="paint1_radial" cx="0" cy="0" r="1" gradientUnits="userSpaceOnUse" gradientTransform="translate(-11.6278 20.3488) rotate(0.502584) scale(66.2816 124.413)">
<stop stop-color="white"/>
<stop offset="0.041" stop-color="#FAFAF8"/>
<stop offset="0.149004" stop-color="#F8F8F5"/>
<stop offset="0.280991" stop-color="#DADAD7"/>
<stop offset="0.413" stop-color="#A3A4A1"/>
<stop offset="0.52" stop-color="#7E7F7D"/>
<stop offset="0.6" stop-color="#686866"/>
<stop offset="0.646" stop-color="#5F5F5D"/>
<stop offset="0.739" stop-color="#565754"/>
<stop offset="0.899" stop-color="#3B3A37"/>
<stop offset="1"/>
</radialGradient>
<radialGradient id="paint2_radial" cx="0" cy="0" r="1" gradientUnits="userSpaceOnUse" gradientTransform="translate(-8.72079 24.4186) rotate(-4.3987) scale(60.6437 113.831)">
<stop stop-color="white"/>
<stop offset="0.041" stop-color="#FAFAF8"/>
<stop offset="0.225" stop-color="#F8F8F5"/>
<stop offset="0.287" stop-color="#DADAD7"/>
<stop offset="0.413" stop-color="#A3A4A1"/>
<stop offset="0.52" stop-color="#7E7F7D"/>
<stop offset="0.6" stop-color="#686866"/>
<stop offset="0.646" stop-color="#5F5F5D"/>
<stop offset="0.739" stop-color="#565754"/>
<stop offset="0.899" stop-color="#3B3A37"/>
<stop offset="1"/>
</radialGradient>
<radialGradient id="paint3_radial" cx="0" cy="0" r="1" gradientUnits="userSpaceOnUse" gradientTransform="translate(-6.84658 24.9834) rotate(0.72061) scale(47.5482 88.405)">
<stop stop-color="white"/>
<stop offset="0.041" stop-color="#FAFAF8"/>
<stop offset="0.225" stop-color="#F8F8F5"/>
<stop offset="0.287" stop-color="#DADAD7"/>
<stop offset="0.413" stop-color="#A3A4A1"/>
<stop offset="0.52" stop-color="#7E7F7D"/>
<stop offset="0.6" stop-color="#686866"/>
<stop offset="0.646" stop-color="#5F5F5D"/>
<stop offset="0.739" stop-color="#565754"/>
<stop offset="0.899" stop-color="#3B3A37"/>
<stop offset="1"/>
</radialGradient>
<clipPath id="clip0">
<rect width="50" height="50" fill="white"/>
</clipPath>
</defs>
</svg>
