<svg width="50" height="50" viewBox="0 0 50 50" fill="none" xmlns="http://www.w3.org/2000/svg">
<path fill-rule="evenodd" clip-rule="evenodd" d="M0 0H50V50H0V0Z" fill="white"/>
<path fill-rule="evenodd" clip-rule="evenodd" d="M23.8713 45.8671H27.9981L28.9215 45.8331L29.6172 45.7989L30.301 45.6793L30.9622 45.4402L31.5777 45.1037L32.1022 44.6589L32.5637 44.1289L33.0085 43.365L33.43 42.5331L34.0627 41.0512L34.8951 38.9703L35.7615 36.5022L36.2575 35.1058L36.7018 33.7152L37.1238 32.3015L37.5171 30.871L37.9274 29.3374L38.2979 27.8041L38.6569 26.2594L38.9821 24.7147L39.2724 23.1814L39.5577 21.6484L39.814 20.1149L40.0537 18.6387L40.2418 17.2934L40.4296 16.0338L40.5608 14.8598L40.7149 13.5143L40.8856 11.8101L41.0397 10.1743L41.1082 9.25659L41.1424 8.47581L41.0568 7.70618L40.8005 6.95964L40.4296 6.27562L39.917 5.68264L39.3069 5.18693L38.6229 4.83338L37.8763 4.59396L37.0893 4.52548L35.9322 4.45726L34.0456 4.37166L31.3725 4.26893L27.9981 4.20071L24.1279 4.18359L20.1264 4.20071L16.5525 4.26893L13.999 4.37166L12.5684 4.45726L11.9869 4.52548L11.4284 4.66244L10.8982 4.87903L10.4025 5.16981L9.96359 5.54594L9.57035 5.97342L9.24532 6.46342L9.01161 6.99362L8.85753 7.55236L8.78931 8.1168V8.69214L8.87465 10.1058L9.06297 12.2207L9.3138 14.7913L9.65569 17.4929L10.0832 20.2347L10.5221 22.9423L11.0523 25.6099L11.6621 28.3341L12.329 31.0077L13.0073 33.4755L13.6742 35.5847L14.3012 37.4085L14.9339 39.0899L15.5951 40.6919L16.6495 43.1598L17.2139 44.1629L17.8806 44.864L18.9011 45.4228L19.9555 45.7475L21.2494 45.8331L22.0475 45.8505L23.8713 45.8671Z" fill="black"/>
<path fill-rule="evenodd" clip-rule="evenodd" d="M11.9643 8.62424V6.65777L12.1182 6.62923L12.3119 6.6007H12.5171L12.6709 6.62923H12.6823L12.819 6.67489L12.9557 6.75452L13.0924 6.86269L13.2009 6.98824L13.2865 7.12494L13.3378 7.27331L13.3775 7.43855V7.57525L13.3661 7.72907L13.3378 7.87719L13.2694 8.01959L13.1895 8.13943L13.0639 8.26472L12.9158 8.39027L12.7218 8.49844L12.6704 8.51556L12.5166 8.56666L12.3228 8.60661L12.0891 8.62373H11.9643V8.62424ZM36.3999 8.52152L36.4282 8.51011L36.6051 8.41336L36.7703 8.29352L36.8959 8.15681L36.9872 8.02011L37.044 7.8777L37.0839 7.72959L37.101 7.6043V7.48472L37.0728 7.3309L37.0328 7.20535L36.9755 7.09718L36.8959 6.96048L36.7703 6.83519L36.6336 6.74389L36.4795 6.67567L36.3999 6.65855L36.3314 6.64713L36.1374 6.63001H35.9439L35.7786 6.65855L35.6985 6.67567V8.64785H35.8469L36.0004 8.63644L36.1488 8.6079L36.2912 8.56796L36.3999 8.52152ZM36.3999 6.24715H36.6162L36.7986 6.25856L37.0154 6.28709L37.2206 6.32704L37.4258 6.41238L37.6198 6.50939L37.7565 6.61782L37.8816 6.75452L37.99 6.92002L38.0867 7.1252L38.1441 7.31923L38.1723 7.50729L38.1552 7.67252L38.127 7.85488L38.0585 8.02011L37.9783 8.17964L37.8533 8.32205L37.7049 8.45901L37.5397 8.57859L37.3573 8.66419L37.1521 8.74408L36.9752 8.78377L36.8956 8.81231L37.0323 8.88079L37.1519 8.96613L37.2658 9.07455L37.3571 9.18272L38.611 10.6932L38.7194 10.8185L38.8444 10.9269L38.9817 11.0237L39.1178 11.1207L39.2151 11.1777L39.3235 11.2174L39.4315 11.246V11.3258H38.3088L38.1721 11.3144L38.0297 11.2859L37.9096 11.2288L37.8017 11.1492L37.6878 11.0237L36.3994 9.36482L36.2054 9.11398L36.1369 9.0455L36.0684 8.97702L35.9888 8.92592L35.9032 8.86885L35.8064 8.84032L35.7096 8.82891L35.698 11.3256H34.4612V11.2457L34.518 11.1886L34.5579 11.1316L34.5979 11.0631L34.6262 10.9832L34.6544 10.8976L34.6827 10.8177V6.79447L34.6661 6.72599L34.6544 6.65777L34.6145 6.6007L34.5688 6.5496L34.5294 6.49253L34.4783 6.45259L34.3639 6.38411L34.2672 6.34416L34.2161 6.3273V6.2474H36.3999V6.24715ZM18.5818 10.8187L18.6956 10.8301H18.8609L18.9976 10.8187L19.1628 10.7619L19.3509 10.6649L19.5047 10.5565L19.6245 10.4312L19.7384 10.2831L19.8466 10.0893L19.9265 9.91266L19.995 9.70722L20.0406 9.50204L20.0691 9.26832L20.0806 9.04602V8.84084L20.052 8.62424L19.995 8.39079L19.9436 8.15707L19.8352 7.89482L19.7099 7.66111L19.5732 7.43881L19.4079 7.25075L19.2142 7.06839L19.0201 6.93169L18.8321 6.83468L18.5813 6.7662L18.3761 6.74337L18.1595 6.7662L17.9771 6.81185L17.8116 6.90316L17.6521 7.02844L17.5265 7.15373L17.4184 7.29043L17.3214 7.4842L17.2246 7.68938L17.1561 7.89457L17.1162 8.12828L17.0877 8.39053V8.64681L17.1162 8.90906L17.1561 9.18272L17.2246 9.43356L17.3214 9.67869L17.4869 9.99204L17.635 10.2029L17.7206 10.2942L17.7605 10.3513L17.8005 10.4084L17.8687 10.4768L18.0057 10.585L18.1595 10.682L18.3361 10.7619L18.5014 10.8073L18.5818 10.8187ZM18.5818 6.15039H18.7641L19.0492 6.19034L19.3 6.2474L19.5452 6.3273L19.7672 6.44117L19.9838 6.56101L20.2061 6.71484L20.4113 6.9029L20.5879 7.09666L20.7418 7.30185L20.8613 7.52415L20.9869 7.7864L21.0836 8.09975L21.135 8.362L21.1633 8.60712V8.86937L21.1236 9.19984L21.0665 9.48492L20.9695 9.74717L20.8328 10.0494L20.6847 10.2942L20.5195 10.5051L20.3257 10.7106L20.092 10.8986L19.8754 11.0527L19.6531 11.178L19.3794 11.2862L19.0489 11.3832L18.7927 11.4231H18.5307L18.2682 11.4117L18.0062 11.3661L17.7725 11.3147L17.4988 11.2008L17.2254 11.0641L17.0202 10.916L16.8547 10.7793L16.7862 10.6937L16.7006 10.6252L16.5639 10.46L16.4444 10.2833L16.3191 10.0613L16.2109 9.83329L16.1253 9.57104L16.0739 9.26884L16.0283 8.99518V8.71581L16.0568 8.44215L16.1139 8.15707L16.2109 7.86629L16.3079 7.62116L16.4446 7.38745L16.5927 7.16515L16.7694 6.95996L16.952 6.78306L17.1572 6.61782L17.3909 6.46374L17.6931 6.31563L17.9553 6.23028L18.2005 6.17892L18.4456 6.15039H18.5818ZM24.3217 11.3943H24.6921L26.636 6.83442L26.6817 6.75452L26.7328 6.67489L26.8012 6.58929L26.8697 6.52081L26.9553 6.46374L27.1032 6.37243L27.1888 6.32704V6.24715H25.7463V6.32704L25.7862 6.35531L25.8435 6.41238L25.883 6.48086L25.9118 6.54934L25.9229 6.62923L25.9118 6.72599L25.883 6.81159L24.6804 9.61021L23.4833 6.85128L23.4434 6.74311L23.4322 6.64635V6.57787L23.4434 6.50939L23.4833 6.44091L23.529 6.37243L23.5974 6.32704V6.24715H21.825V6.32704L21.8763 6.35531L22.0188 6.42379L22.1386 6.50939L22.2468 6.61782L22.3324 6.72599L22.3606 6.78306L22.3892 6.83442L24.3217 11.3943ZM28.7109 11.2462V11.3261H32.4158L32.7349 10.2717L32.6664 10.2431L32.5808 10.3513L32.4841 10.4766L32.3928 10.5736L32.2955 10.6535L32.1987 10.6932L32.0903 10.7103H29.9589V8.94927H31.6462L31.7147 8.96613L31.7715 9.00607L31.8288 9.04576L31.8688 9.08571L31.8971 9.14278H31.9767V8.16797H31.8971L31.8799 8.17938L31.84 8.25357L31.8006 8.29352L31.7321 8.33346L31.6636 8.362H29.9591V6.823H31.5777L31.7144 6.83442L31.8395 6.86269L31.965 6.91976L32.0734 6.98824L32.1702 7.08525L32.2498 7.18201L32.2955 7.2619H32.3756L32.3474 6.24715H28.4883V6.32704H28.534L28.6025 6.35531L28.6821 6.39526L28.7506 6.45233L28.8196 6.53222L28.8881 6.62923L28.9163 6.72599L28.9335 6.823L28.9446 6.9029L28.9335 10.7106V10.7905L28.9163 10.8872L28.8764 11.0125L28.8364 11.1209L28.7796 11.1894L28.7109 11.2462ZM12.6709 6.24715H10.4993V6.32704H10.5392L10.6474 6.37243L10.7444 6.41238L10.8129 6.46374L10.8699 6.53222L10.9096 6.62923L10.9382 6.72599L10.9496 6.823V10.6932L10.9382 10.8185L10.9096 10.9269L10.8699 11.0351L10.8129 11.1489L10.7444 11.246V11.3144H11.9529L11.9643 8.81231H12.0214L12.0785 8.82943L12.2152 8.88079L12.3347 8.94927L12.4318 9.04602L12.5002 9.14304L12.5459 9.2001L12.6712 9.36534L13.9993 11.0812L14.0963 11.1783L14.2045 11.2581L14.3126 11.2978L14.4379 11.315H15.635V11.2465L15.5608 11.2179L15.3842 11.1326L15.2187 11.0356L15.0306 10.8589L14.5347 10.2717L14.0958 9.74743L13.5998 9.14329L13.5199 9.0634L13.4343 8.9778L13.3544 8.90958L13.1607 8.78403L13.2577 8.77262L13.4514 8.70414L13.6566 8.63566L13.8333 8.5389L13.9814 8.41362L14.1238 8.29377L14.232 8.13995L14.3119 7.97446L14.3803 7.79781L14.4086 7.63258V7.43881L14.3803 7.25075L14.3404 7.06839L14.2605 6.90316L14.1635 6.75478L14.0553 6.62949L13.9015 6.50965L13.7248 6.41264L13.5425 6.3273L13.3542 6.27594L13.1604 6.2474H12.6709V6.24715Z" fill="#EFC261"/>
<path fill-rule="evenodd" clip-rule="evenodd" d="M25.0002 2.20508H22.076L18.7985 2.25073L14.1533 2.38769L12.0727 2.5301L11.3544 2.62115L10.6361 2.83774L9.96923 3.12282L9.33657 3.48753L8.7493 3.93784L8.23051 4.47349L7.76878 5.05505L7.41549 5.69913L7.13041 6.38316L6.93664 7.10713L6.85675 7.84226V8.5434L7.06193 11.5929L7.28423 13.8729L7.59265 16.5745L7.97448 19.396L8.40197 22.0807L8.84657 24.6114L9.32542 27.0456L9.8896 29.445L10.5109 31.8332L11.2291 34.2671L11.9816 36.6442L12.7396 38.8273L13.475 40.7541L15.0025 44.2935L15.7094 45.3939L16.5929 46.3513L17.6759 47.0465L18.8559 47.5025L20.053 47.7077L20.6514 47.7593L24.0544 47.7933H28.8197L29.4921 47.7593L30.2272 47.668L30.974 47.5022L31.7097 47.2576L32.4165 46.9212L33.243 46.3057L33.9441 45.6045L34.514 44.8066L34.9583 43.9631L35.5116 42.692L36.2185 40.9704L36.9707 39.0042L37.723 36.9462L38.4298 34.8715L39.0625 32.774L39.6324 30.6532L40.6243 26.2759L41.0858 24.0415L41.5133 21.7671L41.8891 19.487L42.2144 17.2069L42.7099 13.1599L43.0862 9.34675L43.1436 8.54288L43.0862 7.69933L42.9093 6.87316L42.6017 6.06384L42.2025 5.33987L41.7065 4.65014L41.1081 4.05145L40.4186 3.53266L39.6775 3.1223L38.8679 2.85434L38.0589 2.6834L37.124 2.5978L33.5441 2.40403L25.9008 2.20508H25.0002ZM25.0002 47.1266H24.0598L20.6854 47.0921L20.1438 47.041L19.038 46.853L17.9778 46.4426L17.0258 45.8325L16.245 44.9835L15.5953 43.9742L14.7631 42.0708L14.1019 40.5032L13.3665 38.5993L12.62 36.4333L11.8677 34.0674L11.1552 31.6509L10.5396 29.2854L9.98091 26.9026L9.50206 24.4918L9.06317 21.9726L8.63568 19.2992L8.25956 16.4892L7.95166 13.7988L7.73506 11.5358L7.59836 9.70057L7.52988 8.52654V7.87676L7.59836 7.23268L7.7693 6.60001L8.02014 5.99017L8.32804 5.42599L8.7384 4.91291L9.19442 4.43977L9.7075 4.04653L10.2717 3.7215L10.8644 3.47067L11.4971 3.28261L12.1412 3.19701L14.1818 3.0603L16.1597 2.99182L18.8159 2.92334L22.082 2.87198H25.8896L29.925 2.97444L33.5161 3.07717L35.9326 3.19701L37.0729 3.26549L37.9621 3.35083L38.6916 3.50491L39.4039 3.73862L40.0539 4.09763L40.6635 4.55935L41.1939 5.08359L41.6383 5.69913L41.9918 6.34321L42.2655 7.06148L42.4196 7.7909L42.4707 8.54314L42.4196 9.28994L42.2484 10.977L42.0432 13.0862L41.7413 15.6226L41.5532 17.1216L41.2279 19.3846L40.8521 21.6475L40.43 23.9105L39.9686 26.1392L39.4552 28.3846L38.9826 30.4937L38.4182 32.5855L37.7909 34.6661L37.0898 36.7236L36.343 38.77L35.5907 40.725L34.8956 42.4292L34.3485 43.672L33.9436 44.4528L33.4302 45.1656L32.8035 45.798L32.0679 46.3451L31.4583 46.6304L30.7912 46.8527L30.1128 47.0063L29.4288 47.0919L28.8021 47.1264H25.0002V47.1266Z" fill="black"/>
<path fill-rule="evenodd" clip-rule="evenodd" d="M18.9748 41.8319L18.593 40.9082C18.724 40.9481 18.8495 40.9821 18.9748 41.0166C19.2143 41.0794 19.448 41.125 19.676 41.1533C19.807 41.165 19.9382 41.1704 20.0692 41.1704C20.2573 41.1704 20.4511 41.1533 20.6619 41.1193C20.7361 41.1022 20.8101 41.0905 20.8899 41.0677C20.9981 41.0565 21.1008 41.0449 21.1979 41.0337C21.3893 41.016 21.5817 41.0121 21.7737 41.022C22.4577 41.0565 22.9706 41.2957 23.4608 41.849C23.569 41.9686 23.6774 42.0998 23.7858 42.2534C23.7915 42.2651 23.7973 42.2762 23.8087 42.2822C23.7973 42.2822 23.7915 42.2762 23.7858 42.2762C23.672 42.2251 23.5692 42.1737 23.4608 42.1338C22.8795 41.8887 22.355 41.7579 21.7737 41.7974C21.5914 41.809 21.403 41.8373 21.1979 41.8887C21.118 41.9058 21.0326 41.9343 20.947 41.9572C20.85 42.0028 20.7532 42.0428 20.6619 42.0715C20.4703 42.1356 20.271 42.1738 20.0692 42.1852C19.9376 42.1871 19.806 42.1776 19.676 42.1569C19.4512 42.1206 19.2325 42.0534 19.0262 41.9572L18.9748 41.8319ZM32.86 35.0318C35.1232 28.8356 36.3943 22.6057 36.6617 16.0166H36.987L37.0498 15.2758H12.8819L12.9276 15.9141L13.2523 15.9541C13.5771 22.5204 14.7685 28.8476 17.0255 35.0147C17.6013 34.12 18.2568 33.3616 18.9748 32.7349C19.1992 32.5372 19.4332 32.3508 19.676 32.1761C19.8057 32.0849 19.9368 31.9955 20.0692 31.9082C20.2623 31.7832 20.46 31.6654 20.6619 31.5551C20.8386 31.4584 21.0209 31.3728 21.1976 31.2872C21.3879 31.2035 21.5799 31.1237 21.7735 31.048C22.1871 30.8924 22.612 30.7684 23.0445 30.6771C22.7738 31.5493 22.4404 32.4008 22.0469 33.2249L22.2235 33.3276C22.6392 32.4559 22.9897 31.5546 23.2722 30.6312L23.4603 30.5972L23.5685 30.5801C23.5351 30.71 23.499 30.8392 23.4603 30.9676C23.1761 31.9365 22.8218 32.8833 22.4002 33.8007C22.1664 33.5727 21.9613 33.4526 21.7732 33.4243C21.5338 33.3844 21.34 33.4871 21.1973 33.6806C20.8951 34.091 20.8612 34.8951 21.1973 35.3965C21.334 35.59 21.5224 35.7441 21.7732 35.8069C21.7846 35.8123 21.796 35.8123 21.8074 35.818C22.5426 35.818 22.651 35.0775 22.651 34.4956C23.1013 35.2196 22.5996 36.1143 21.7732 36.0803C21.7275 36.0803 21.6819 36.0748 21.6305 36.0691C21.6077 36.5135 21.4653 36.8442 21.1973 37.0323C21.0549 37.1347 20.8783 37.1975 20.6617 37.2146C20.5591 37.2209 20.4561 37.2191 20.3538 37.2092C20.2796 37.4994 20.1828 37.6992 20.0687 37.8476C19.9548 37.9954 19.8236 38.0922 19.6755 38.1778C19.4988 38.2805 19.2991 38.3663 19.0711 38.4914L19.3504 38.8963C19.4586 38.8278 19.567 38.765 19.6755 38.6966C19.8064 38.6109 19.9375 38.5255 20.0687 38.4403C20.2686 38.3028 20.4662 38.1621 20.6614 38.0182C20.8436 37.8765 21.0222 37.7302 21.1971 37.5796C21.3957 37.4123 21.5878 37.2374 21.7729 37.0554C22.4098 36.4403 22.9757 35.7558 23.46 35.0147C23.5739 34.8495 23.6766 34.6728 23.7851 34.5019C23.9226 34.2649 24.0556 34.0254 24.184 33.7833C24.2808 33.5893 24.3778 33.3958 24.4691 33.1961L24.5033 30.4885C24.5946 30.4885 24.6914 30.4831 24.7827 30.4831V42.9203H25.1591V30.4885C25.2387 30.494 25.3189 30.494 25.3928 30.5002L25.4268 33.2244C25.524 33.4241 25.6154 33.6181 25.7176 33.8116C25.844 34.0547 25.9771 34.2943 26.1168 34.5301C26.2192 34.7065 26.3331 34.8777 26.4415 35.0484C26.9244 35.7873 27.4884 36.47 28.1229 37.0836C28.3112 37.2661 28.505 37.4429 28.704 37.6136C28.8801 37.7611 29.0587 37.9055 29.2399 38.0468C29.4339 38.1897 29.6274 38.3321 29.8326 38.4688C29.9582 38.5544 30.0889 38.64 30.2259 38.7251C30.3286 38.7936 30.437 38.8618 30.5511 38.9248L30.8302 38.5199C30.6022 38.3949 30.3971 38.3093 30.2259 38.2063C30.0723 38.1212 29.941 38.0239 29.8326 37.8761C29.7187 37.7277 29.622 37.5285 29.5418 37.2377C29.4415 37.2478 29.3405 37.2496 29.2399 37.2432C29.0293 37.226 28.8466 37.1692 28.704 37.0663C28.4365 36.8782 28.2936 36.542 28.2708 36.0977C28.2197 36.1031 28.174 36.1088 28.1229 36.1143C27.2965 36.1431 26.7946 35.2479 27.2511 34.5301C27.2511 35.1112 27.359 35.8468 28.0947 35.8468C28.1058 35.8409 28.1113 35.8409 28.1229 35.8352C28.3792 35.7724 28.5732 35.6188 28.704 35.4191C29.0404 34.9174 29.0005 34.1307 28.704 33.7203C28.5678 33.5206 28.3681 33.4127 28.1229 33.4524C27.9406 33.4869 27.7297 33.6007 27.5017 33.8344C27.0807 32.9189 26.7264 31.9741 26.4413 31.0076C26.4013 30.8709 26.3673 30.7396 26.3274 30.6083C26.3673 30.6143 26.407 30.62 26.4413 30.6255C26.5214 30.6426 26.6008 30.6537 26.681 30.6711C26.9614 31.5871 27.31 32.4808 27.7237 33.3447L27.9006 33.242C27.5115 32.4264 27.1802 31.5845 26.9092 30.7225C27.3196 30.8198 27.724 30.9448 28.1232 31.0989C28.3229 31.1785 28.5164 31.2584 28.7042 31.3497C28.8871 31.4353 29.0635 31.5266 29.2401 31.6234C29.4399 31.7318 29.6394 31.8514 29.8329 31.9764C29.9641 32.062 30.0954 32.1533 30.2261 32.2444C30.4658 32.4156 30.7055 32.6036 30.9335 32.8031C31.6515 33.4241 32.3015 34.1709 32.86 35.0318ZM30.9337 41.0565C31.0645 41.022 31.19 40.9821 31.3213 40.9369L30.9337 41.8601L30.8764 42.0025C30.643 42.0939 30.4261 42.1566 30.2264 42.1911C30.0963 42.2117 29.9648 42.2212 29.8331 42.2194C29.6313 42.2129 29.4315 42.1764 29.2404 42.111C29.1414 42.0806 29.0443 42.0444 28.9496 42.0025C28.8694 41.9747 28.7875 41.9518 28.7045 41.9341C28.5137 41.8863 28.3194 41.8539 28.1234 41.8373C27.5479 41.7974 27.0236 41.9341 26.442 42.1737C26.3336 42.2194 26.2257 42.2651 26.1173 42.3162C26.1113 42.3216 26.1002 42.3278 26.0945 42.3278C26.0999 42.3162 26.1111 42.3107 26.1173 42.299C26.2257 42.1455 26.3336 42.0142 26.442 41.8887C26.9437 41.3416 27.4737 41.0967 28.1234 41.0622C28.3173 41.0514 28.5117 41.0571 28.7045 41.0794C28.8757 41.1022 29.0526 41.1305 29.2404 41.1707L29.3945 41.2046C29.5423 41.2163 29.6853 41.2163 29.8331 41.2163C29.9645 41.2125 30.0957 41.203 30.2264 41.188C30.4654 41.164 30.702 41.12 30.9337 41.0565ZM30.9337 38.0468C31.314 38.3761 31.6996 38.6992 32.0904 39.0159L32.0281 39.1015C31.6634 38.805 31.2987 38.5142 30.9337 38.2123C30.8392 38.1361 30.7459 38.0583 30.6541 37.9788C30.5065 37.9807 30.3604 37.9494 30.2266 37.887C30.0331 37.8019 29.9019 37.6424 29.8334 37.4255C29.8039 37.3352 29.7867 37.2413 29.7823 37.1464L29.8334 37.1119L29.8679 37.0891L30.2266 37.4144C30.4606 37.6253 30.6941 37.8359 30.9337 38.0468ZM30.9337 37.6935C31.3553 38.0299 31.7773 38.3663 32.1931 38.7194L32.2844 38.4971C31.826 38.1601 31.3756 37.8124 30.9337 37.4541C30.6965 37.2582 30.4607 37.0606 30.2264 36.8613C30.2035 36.8447 30.1869 36.8273 30.1641 36.8102L30.044 36.9415C30.1068 36.9926 30.1641 37.0439 30.2264 37.0956C30.4606 37.3005 30.6941 37.494 30.9337 37.6935ZM30.9337 37.141C31.4098 37.5262 31.8885 37.908 32.37 38.2864L32.5806 37.8304C32.0271 37.4184 31.478 37.0004 30.9335 36.5765C30.6953 36.3895 30.4595 36.1996 30.2261 36.0066C30.0954 35.9039 29.9641 35.7955 29.8329 35.6876C29.6331 35.5218 29.4342 35.3568 29.2401 35.1916C29.2119 35.1688 29.1833 35.146 29.1605 35.1231L28.9776 35.5218C29.0695 35.5963 29.1545 35.6647 29.2401 35.7387C29.4338 35.9086 29.6315 36.074 29.8329 36.2346C29.9641 36.3431 30.0954 36.451 30.2261 36.5594C30.4606 36.7532 30.6998 36.9469 30.9337 37.141ZM30.9337 35.5332C31.2925 35.6985 31.452 36.2738 31.4064 36.6733L31.1555 36.5137C31.1555 36.2629 31.0816 36.0977 30.9337 35.9895C30.8365 35.921 30.7114 35.8811 30.5517 35.8582C30.7452 35.9267 30.7908 36.0235 30.8136 36.2175L30.4149 35.8927V35.562C30.6201 35.465 30.7908 35.465 30.9337 35.5332ZM30.9337 14.6485L33.8976 15.0078L30.9337 14.6828L30.2264 14.6029L29.8331 14.5572L29.2404 14.4947L28.7045 14.4319L28.1234 14.3692L26.442 14.1811L26.1173 14.1469L25.7181 14.1012L25.4901 14.0784V13.9871L25.7181 14.0156L26.1173 14.067L26.442 14.1012L28.1234 14.3064L28.7045 14.3806L29.2404 14.4434L29.8331 14.5175L30.2264 14.5629L30.9337 14.6485ZM30.2264 42.4816C30.3804 42.4757 30.5454 42.4529 30.7112 42.4189L30.2264 43.4788L30.1068 43.7356C30.0153 43.731 29.9241 43.7234 29.8331 43.7127C29.6333 43.6961 29.4351 43.6636 29.2404 43.6155C29.0598 43.5756 28.881 43.5281 28.7045 43.4731C28.5227 43.4163 28.3286 43.3592 28.1234 43.2907C27.4451 43.1312 26.9435 43.2279 26.442 43.3709C26.3336 43.3991 26.2257 43.4331 26.1173 43.4676C25.9851 43.507 25.852 43.5431 25.7181 43.576C25.4901 43.6383 25.2509 43.6839 24.9887 43.7068C24.7093 43.6728 24.4416 43.5989 24.1851 43.5187C24.0483 43.4788 23.9171 43.4331 23.7861 43.3937L23.4611 43.291C23.2559 43.2342 23.0393 43.1825 22.817 43.1597C22.4523 43.1597 22.1101 43.217 21.774 43.2964C21.5856 43.3364 21.3919 43.3877 21.1981 43.4393C21.0215 43.485 20.8448 43.5306 20.6625 43.5644C20.4687 43.6043 20.2692 43.6328 20.0697 43.65C20.0184 43.6554 19.967 43.6611 19.9159 43.6611L19.6765 43.1312L19.3229 42.3444C19.4482 42.3678 19.5624 42.3844 19.6765 42.396C19.8132 42.4132 19.9387 42.4189 20.0697 42.4132C20.2293 42.4132 20.3945 42.4015 20.5771 42.3732C20.6057 42.3615 20.6342 42.3561 20.6627 42.3444C20.8397 42.2895 21.0183 42.2402 21.1984 42.1966C21.3981 42.1509 21.5919 42.1226 21.7742 42.1053C22.3555 42.0479 22.8857 42.1452 23.4613 42.4588C23.5695 42.5156 23.6722 42.5784 23.7864 42.6523C23.8206 42.6752 23.8603 42.7034 23.8945 42.7263C23.9972 42.7836 24.0943 42.8347 24.1853 42.8858C24.7324 43.1766 25.0916 43.3021 25.7186 42.9885C25.7697 42.9657 25.8213 42.9369 25.8727 42.9029C25.9583 42.8518 26.0379 42.8004 26.1178 42.7488C26.2262 42.6749 26.3341 42.6121 26.4426 42.5491C26.9953 42.2414 27.5258 42.0536 28.124 42.0931C28.312 42.1047 28.5061 42.1387 28.705 42.1958C28.8134 42.2298 28.9273 42.2697 29.0415 42.3154C29.1099 42.3325 29.1727 42.3499 29.2412 42.367C29.4409 42.4181 29.6404 42.4583 29.8339 42.4749C29.9646 42.4874 30.0897 42.4874 30.2264 42.4816ZM30.2264 38.9531C30.2837 38.9876 30.3408 39.0216 30.4033 39.0558L30.2264 39.295L30.0611 39.5173C29.9815 39.4716 29.9071 39.426 29.8331 39.386C29.6326 39.2673 29.435 39.1438 29.2404 39.0156C29.0581 38.9017 28.8811 38.7759 28.7045 38.6509C28.5059 38.5091 28.3122 38.3607 28.1234 38.206C27.5134 37.716 26.9608 37.1744 26.442 36.57C26.3336 36.445 26.2257 36.308 26.1173 36.1768C25.9797 36.0055 25.8466 35.8307 25.7181 35.6525C25.5814 35.4645 25.4444 35.2767 25.3077 35.077V33.4467C25.4292 33.7406 25.5662 34.0279 25.7181 34.3073C25.8377 34.5353 25.9744 34.7576 26.1173 34.9802C26.2197 35.1397 26.3279 35.2993 26.442 35.459C26.9326 36.1368 27.5079 36.7814 28.1234 37.3625C28.3142 37.5369 28.5079 37.708 28.7045 37.8758C28.8814 38.0237 29.0581 38.1666 29.2404 38.2979C29.4344 38.4457 29.6336 38.5827 29.8331 38.7139C29.9646 38.799 30.0956 38.8792 30.2264 38.9531ZM29.8334 39.6942C29.8505 39.7053 29.8679 39.7113 29.8845 39.7225L29.8334 39.7736L29.6627 39.9448L29.2635 39.7113C29.258 39.7053 29.2464 39.6996 29.2407 39.6942C29.0593 39.5924 28.8806 39.486 28.7048 39.3751C28.508 39.2466 28.3143 39.1135 28.1237 38.9759C27.5136 38.5256 26.9723 38.0302 26.4423 37.4657L26.1175 37.1065C26.0659 37.0437 26.0148 36.9869 25.9635 36.9241C25.8667 36.8157 25.7866 36.7244 25.7183 36.645C25.4164 36.2914 25.308 36.1034 25.308 35.4762C25.4447 35.6702 25.5816 35.8637 25.7183 36.0523C25.8496 36.2346 25.9808 36.4115 26.1175 36.5934C26.2243 36.7295 26.3326 36.8645 26.4423 36.9983C26.4523 37.0161 26.4659 37.0317 26.4823 37.0439C26.9765 37.6107 27.5264 38.1264 28.1237 38.5832C28.3118 38.7256 28.5058 38.8685 28.7048 38.9993C28.8817 39.1194 29.0583 39.2332 29.2407 39.3474C29.4347 39.4662 29.6282 39.5803 29.8334 39.6942ZM29.8334 36.5703L29.8845 36.6159C29.8679 36.6447 29.8505 36.6676 29.8334 36.6904C29.6453 36.9583 29.4347 37.0663 29.2407 37.0608C29.0355 37.0497 28.8474 36.913 28.7048 36.7015C28.5859 36.5143 28.5137 36.3012 28.4941 36.0803L28.7048 35.8697L28.876 35.6985L29.2407 36.0175L29.2635 36.0403C29.2549 36.0419 29.247 36.046 29.2407 36.052C29.104 36.1317 28.967 36.0232 28.876 35.9036C28.876 36.3996 28.9673 36.542 29.2407 36.5137C29.3491 36.5021 29.4803 36.4626 29.6456 36.4053L29.8334 36.5703ZM29.8334 34.6098C30.107 34.8095 30.1981 35.2541 30.1641 35.6528L29.8845 35.4759C29.8845 35.368 29.8679 35.2767 29.8334 35.1968C29.7421 34.9916 29.5486 34.8832 29.2752 34.8832C29.4347 34.9348 29.5372 35.0544 29.5883 35.2085L29.2407 34.9805L29.161 34.9288L29.235 34.5413H29.2404C29.4912 34.4674 29.691 34.5073 29.8334 34.6098ZM29.8334 33.2591L30.1187 34.4848L30.0331 34.456L29.8334 33.6184L29.4687 32.1019H29.56L29.8334 33.2591ZM29.2407 39.9333C29.3263 39.979 29.4119 40.0306 29.4969 40.0763C29.4119 40.1385 29.3263 40.1847 29.2407 40.2241C29.0754 40.2981 28.9105 40.338 28.7048 40.3837C28.6993 40.3837 28.6936 40.3891 28.6882 40.3891C28.4941 40.2641 28.3061 40.1445 28.1237 40.0244C27.5253 39.6369 26.9837 39.261 26.4423 38.7988C26.3339 38.708 26.226 38.6107 26.1175 38.5139C26.0374 38.44 25.9518 38.3661 25.8724 38.2859C25.8206 38.2293 25.7692 38.1722 25.7183 38.1147C25.2395 37.562 25.308 37.4424 25.308 36.4961C25.4447 36.673 25.5816 36.838 25.7183 37.0037C25.8496 37.1573 25.9808 37.3114 26.1175 37.4535C26.226 37.5736 26.3339 37.6875 26.4423 37.7954C26.9597 38.3174 27.5223 38.7925 28.1237 39.2151C28.313 39.3526 28.5068 39.4837 28.7048 39.6083C28.8814 39.717 29.0581 39.8254 29.2407 39.9333ZM28.7045 31.9424L28.9782 33.4186H28.8757L28.7045 32.5406L28.5227 31.5832H28.6422L28.7045 31.9424ZM28.7045 13.5998L28.7162 13.6055H28.7045C28.5053 13.674 28.3113 13.7194 28.1234 13.7422C27.5479 13.8221 27.0348 13.7251 26.442 13.577C26.3393 13.5541 26.2314 13.5256 26.123 13.4971L26.1175 13.5025L25.7183 13.5311L25.308 13.5596V12.7728C25.4402 12.7246 25.5781 12.694 25.7183 12.6818C25.8512 12.6694 25.9851 12.6713 26.1175 12.6875C26.226 12.6989 26.3339 12.7215 26.4423 12.75C26.7271 12.8128 27.0122 12.9155 27.3087 12.9952L28.124 12.9495L28.6539 12.921L28.3292 13.3656L28.7045 13.5998ZM28.1234 34.9351C28.4083 34.8495 28.6251 34.2796 28.1808 33.8347C28.5167 33.8347 28.6708 34.1312 28.6708 34.4391C28.6708 35.0375 28.3971 35.3226 28.1237 35.3683C27.7644 35.4251 27.4114 35.0601 27.6622 34.422C27.7587 34.8549 27.9522 34.9805 28.1234 34.9351ZM28.1234 40.5206L28.3458 40.4638L28.1234 40.3271C27.5362 39.9678 26.9663 39.5749 26.442 39.13C26.331 39.0363 26.2227 38.9393 26.1173 38.8392C25.98 38.7106 25.8468 38.5777 25.7181 38.4405C25.5754 38.2861 25.4385 38.1264 25.3077 37.9617V38.5256C25.4444 38.6685 25.5814 38.8109 25.7181 38.9419C25.8493 39.067 25.9806 39.1871 26.1173 39.3067C26.2257 39.4034 26.3336 39.4947 26.442 39.5803C26.8752 39.9333 27.3255 40.2586 27.8098 40.5945L28.1234 40.5206ZM26.442 33.6977C26.6361 33.601 26.8296 33.1507 26.5388 33.0026C26.5388 33.1678 26.5845 33.3502 26.442 33.4129C26.4016 33.4255 26.3593 33.4311 26.317 33.4295L26.1969 33.2988C26.1967 33.6806 26.3225 33.7605 26.442 33.6977ZM26.442 41.3642L26.6418 41.1878C26.5733 41.1533 26.5051 41.125 26.442 41.0905C26.3311 41.0307 26.2227 40.9661 26.1173 40.897C25.9793 40.809 25.846 40.7138 25.7181 40.6117C25.5769 40.4992 25.44 40.3814 25.3077 40.2586V40.7886L25.7181 41.0337L26.1173 41.2729L26.3736 41.4269L26.442 41.3642ZM26.442 40.7774C26.5733 40.8625 26.71 40.9427 26.8524 41.0277C27.1149 40.8342 27.2345 40.7658 27.5593 40.6859C27.1606 40.3956 26.7896 40.1448 26.442 39.8711C26.3336 39.7855 26.2257 39.6999 26.1173 39.6086C25.9815 39.49 25.8484 39.3684 25.7181 39.2439C25.5756 39.103 25.4388 38.9567 25.3077 38.8052V39.9167C25.4444 40.0363 25.5814 40.1502 25.7181 40.2586C25.8493 40.3611 25.9806 40.4638 26.1173 40.5551L26.442 40.7774ZM26.1173 32.3699C26.2257 32.33 26.254 32.1759 26.1513 32.028C26.4304 32.1647 26.2825 32.4895 26.1173 32.5862C25.9972 32.6547 25.8722 32.6091 25.8722 32.3071C25.9687 32.3811 26.0543 32.3927 26.1173 32.3699ZM26.1173 41.5922C26.1227 41.5981 26.1339 41.5982 26.1401 41.6039C26.1341 41.6093 26.123 41.621 26.1173 41.6267C25.9778 41.773 25.8446 41.9251 25.7181 42.0827C25.5701 42.263 25.4295 42.4492 25.2966 42.6409L25.3077 41.0679C25.4311 41.1923 25.5689 41.3014 25.7181 41.3932C25.8374 41.4614 25.9632 41.5237 26.1173 41.5922ZM25.7178 31.3551C25.9575 31.4976 25.9741 31.304 25.9176 31.0815C26.1111 31.1782 26.0543 31.6286 25.7523 31.5546C25.7419 31.5295 25.7304 31.5048 25.7178 31.4807C25.695 31.435 25.6779 31.3951 25.6779 31.3323C25.6952 31.3378 25.7069 31.3494 25.7178 31.3551ZM24.1848 31.3152C24.1977 31.3077 24.2092 31.2981 24.219 31.2869C24.219 31.3609 24.2076 31.4182 24.1848 31.4581C24.0652 31.6516 23.7231 31.4008 23.9568 31.0478H23.9853C23.9511 31.1902 23.934 31.2529 24.0139 31.3725C24.0821 31.3606 24.1334 31.3551 24.1848 31.3152ZM24.1848 41.3585C24.3304 41.2664 24.466 41.1595 24.5894 41.0394L24.6066 42.5953C24.4756 42.3983 24.3349 42.2081 24.1848 42.0254C24.0538 41.8775 23.9225 41.7289 23.7858 41.581C23.7756 41.5765 23.7675 41.5684 23.763 41.5582C23.7687 41.5582 23.7744 41.5528 23.7858 41.5528C23.934 41.4897 24.0649 41.4327 24.1848 41.3585ZM24.1848 40.5663C24.3215 40.4638 24.4527 40.344 24.5894 40.2132V40.7432C24.4527 40.8571 24.3215 40.9538 24.1848 41.0451C24.0538 41.1253 23.9225 41.1992 23.7858 41.2674C23.7002 41.3074 23.6149 41.3476 23.5236 41.3813L23.4608 41.3245L23.2556 41.1421C23.3298 41.1133 23.3983 41.0794 23.4608 41.0394C23.5747 40.9821 23.6831 40.9198 23.7858 40.8571C23.9238 40.7671 24.0569 40.67 24.1848 40.5663ZM24.1848 39.1982C24.3268 39.0588 24.4619 38.9124 24.5894 38.7596V39.888C24.4589 40.0053 24.324 40.1175 24.1848 40.2244C24.0538 40.3271 23.9168 40.4241 23.7858 40.5209C23.6774 40.5894 23.5692 40.6633 23.4608 40.7315C23.3298 40.8171 23.1929 40.8973 23.0505 40.9823C22.7825 40.8117 22.6572 40.7315 22.3379 40.6576C22.7428 40.3668 23.1132 40.1105 23.4608 39.8311C23.569 39.7455 23.6774 39.6599 23.7858 39.5686C23.9168 39.4491 24.0535 39.3295 24.1848 39.1982ZM24.1848 38.406C24.3289 38.2506 24.464 38.087 24.5894 37.916V38.48C24.4527 38.6283 24.3215 38.7653 24.1848 38.8963C24.0538 39.0275 23.9168 39.1526 23.7858 39.2722C23.6774 39.3694 23.5692 39.4607 23.4608 39.5518C23.0229 39.9126 22.5643 40.2475 22.0873 40.5549L21.774 40.4747L21.5574 40.4179C21.6316 40.3722 21.7057 40.3323 21.774 40.2866C22.361 39.9274 22.9366 39.5398 23.4611 39.0955C23.5692 39.0042 23.6777 38.9069 23.7861 38.8102C23.9233 38.6797 24.0562 38.5449 24.1848 38.406ZM24.1848 36.9752C24.3243 36.804 24.4592 36.6292 24.5894 36.451C24.5894 37.3972 24.6579 37.5168 24.1848 38.0696C24.1391 38.1212 24.0878 38.178 24.031 38.2408C23.9454 38.3264 23.8657 38.4003 23.7858 38.48C23.6774 38.5772 23.5692 38.674 23.4608 38.7653C22.9195 39.2213 22.3664 39.5917 21.7737 39.9852C21.5968 40.1048 21.4144 40.2187 21.2321 40.344C21.2207 40.344 21.2093 40.344 21.1979 40.3385C20.9872 40.2986 20.8274 40.2529 20.6622 40.1733C20.571 40.1353 20.4833 40.0896 20.4 40.0366C20.4913 39.9855 20.5766 39.9339 20.6622 39.8882C20.8436 39.7829 21.0222 39.6728 21.1979 39.558C21.3937 39.4386 21.5858 39.3131 21.7737 39.1816C22.3835 38.7547 22.942 38.2986 23.4608 37.7736C23.569 37.6597 23.6774 37.5518 23.7858 37.4317C23.9168 37.2831 24.0535 37.1293 24.1848 36.9752ZM24.1848 36.0066L24.5894 35.4479C24.5894 36.0694 24.4756 36.2515 24.1848 36.605C24.1106 36.6906 24.031 36.782 23.9397 36.8958C23.8886 36.9586 23.8369 37.0154 23.7858 37.0727C23.6774 37.1978 23.5692 37.3173 23.4608 37.4315C22.9195 38.0014 22.3778 38.4802 21.7737 38.9194C21.586 39.0565 21.3939 39.1877 21.1979 39.3126C21.0269 39.4265 20.8446 39.5406 20.6622 39.6545C20.5255 39.7346 20.3828 39.8197 20.2404 39.8996L20.0695 39.7401L20.0181 39.6944C20.0352 39.6828 20.0524 39.6773 20.0695 39.6662C20.269 39.5517 20.4666 39.4338 20.6622 39.3126C20.8437 39.2014 21.0223 39.0855 21.1979 38.965C21.3955 38.8323 21.5877 38.6916 21.7737 38.543C22.3902 38.0734 22.9557 37.5403 23.4608 36.9526C23.5464 36.8559 23.632 36.7475 23.7174 36.645L23.7858 36.5537L24.1848 36.0066ZM24.1848 34.2676C24.3371 33.9873 24.4722 33.698 24.5894 33.4013V35.0316C24.4604 35.2313 24.3255 35.4271 24.1848 35.6188C24.0538 35.8012 23.9168 35.9776 23.7858 36.1488C23.6774 36.28 23.5692 36.4113 23.4608 36.5363C22.942 37.1407 22.3893 37.6764 21.7737 38.1723C21.5864 38.3228 21.3943 38.4672 21.1979 38.6055C21.0226 38.7336 20.844 38.8572 20.6622 38.9759C20.4684 39.1015 20.269 39.2211 20.0695 39.3406C19.9953 39.3863 19.9157 39.4262 19.8415 39.4719L19.6762 39.2613L19.4996 39.0278C19.5567 38.9933 19.6192 38.9593 19.6762 38.9251C19.8087 38.8436 19.9398 38.76 20.0695 38.6742C20.271 38.5412 20.4686 38.4025 20.6622 38.2582C20.8447 38.1207 21.0233 37.9781 21.1979 37.8307C21.3952 37.6657 21.5872 37.4945 21.7737 37.3173C22.3968 36.7394 22.9618 36.1019 23.4608 35.4139C23.5747 35.2598 23.6831 35.1003 23.7858 34.9408C23.9262 34.7209 24.0593 34.4964 24.1848 34.2676ZM24.1848 13.9702L24.4128 13.9417V14.033L24.1848 14.0558L23.7858 14.1015L23.4608 14.1357L21.7737 14.3238L21.1979 14.3865L20.6622 14.4493L20.0695 14.5118L19.6762 14.5575L18.9751 14.6374L16.0053 14.9679L18.9751 14.6031L19.6762 14.5178L20.0695 14.4721L20.6622 14.398L21.1979 14.3352L21.7737 14.2667L23.4608 14.0615L23.7858 14.0216L24.1848 13.9702ZM24.8117 14.9679H25.0569V12.4657L25.2221 12.3461V12.2266H24.6636V12.3461L24.8117 12.4657V14.9679ZM23.7858 32.3354C23.8484 32.3699 23.934 32.3582 24.031 32.2615C24.031 32.5751 23.9 32.6207 23.7858 32.5523C23.6203 32.455 23.4722 32.1191 23.7459 31.9824C23.6546 32.1191 23.6888 32.2786 23.7858 32.3354ZM23.4608 33.3787C23.5179 33.4015 23.5975 33.3732 23.7002 33.2703C23.7002 33.6238 23.5807 33.7094 23.4608 33.664C23.267 33.5839 23.0733 33.1624 23.3755 32.9572C23.3412 33.145 23.3641 33.333 23.4608 33.3787ZM21.7737 35.3454C21.8819 35.362 22.0017 35.3338 22.1327 35.2541C22.3664 34.9745 22.3664 34.7065 22.2354 34.3818C22.1384 34.815 21.9447 34.9405 21.7737 34.8951C21.4886 34.815 21.272 34.2339 21.7166 33.7891C20.9698 33.7891 21.1579 35.2541 21.7737 35.3454ZM21.1979 35.818L21.4202 36.0403L21.3346 36.4507C21.2946 36.5475 21.249 36.6276 21.1979 36.6958C21.0497 36.9065 20.8617 37.0094 20.6622 37.0094C20.457 37.004 20.2404 36.8893 20.0695 36.6447C20.051 36.6209 20.0338 36.596 20.0181 36.5703L20.0695 36.5309L20.269 36.3656C20.4228 36.4569 20.554 36.5018 20.6622 36.5018C20.9244 36.5135 21.0383 36.251 21.0383 35.858C20.913 35.9835 20.8788 36.0403 20.6964 36.0403L20.6622 36.0004L20.6508 35.995L20.6622 35.9895L21.0383 35.6531L21.1979 35.818ZM21.1979 31.8623L21.2606 31.5375H21.3802L21.1979 32.5012L21.0383 33.3904H20.9187L21.1979 31.8623ZM20.6622 35.1457C20.685 35.1229 20.7136 35.1 20.7421 35.0772L20.9187 35.4759C20.8331 35.5503 20.7478 35.6243 20.6622 35.6928C20.3372 35.9726 20.0085 36.2481 19.6762 36.5192C19.4425 36.7078 19.2088 36.9013 18.9751 37.0891C18.495 37.4762 18.0124 37.86 17.5271 38.2405L17.322 37.7845C17.8812 37.3775 18.4324 36.9595 18.9751 36.5306C19.2088 36.3482 19.4425 36.1597 19.6762 35.9662C19.8072 35.8577 19.9385 35.7555 20.0695 35.6414C20.269 35.4821 20.4627 35.3109 20.6622 35.1457ZM20.6622 34.4956H20.6679L20.7421 34.8832L20.6622 34.9348L20.3146 35.1628C20.4002 34.9859 20.4399 34.9288 20.6225 34.8375C20.3546 34.8375 20.1551 34.9631 20.0697 35.1683C20.0342 35.2569 20.0167 35.3518 20.0184 35.4474L19.7333 35.6069C19.705 35.2082 19.7961 34.7633 20.0697 34.5639C20.2119 34.4617 20.4057 34.4274 20.6622 34.4956ZM20.0695 37.0836L20.1206 37.1181C20.1158 37.2112 20.0986 37.3033 20.0695 37.3918C20.001 37.6024 19.8643 37.7565 19.6762 37.8478C19.5567 37.9046 19.414 37.9329 19.2488 37.9329C19.1574 38.013 19.0661 38.087 18.9751 38.1609C18.6104 38.4691 18.24 38.7598 17.8693 39.0561L17.8236 38.9821C18.2087 38.6529 18.5925 38.3223 18.9751 37.9902L19.6762 37.3747C19.7958 37.2662 19.9157 37.164 20.0295 37.0611L20.0695 37.0836ZM20.0695 33.2135L20.3431 32.0563H20.4287L20.0697 33.6238L19.8814 34.4217L19.7787 34.4388L20.0695 33.2135ZM19.676 36.8157C19.6931 36.7991 19.7159 36.7817 19.7328 36.7646L19.8526 36.8958C19.7956 36.9469 19.7328 36.9983 19.676 37.0499C19.4423 37.2551 19.2086 37.4486 18.9748 37.6426C18.5531 37.9845 18.1256 38.3209 17.7095 38.6742L17.6353 38.4636C18.0856 38.1101 18.5302 37.7625 18.9748 37.4032C19.2086 37.2092 19.4425 37.0152 19.676 36.8157ZM18.9748 35.9381C19.0661 35.8697 19.1914 35.8297 19.351 35.8297C19.1515 35.8982 19.1115 35.9664 19.083 36.1716L19.4991 35.8468V35.5216C19.2939 35.4302 19.117 35.4365 18.9746 35.4987C18.6099 35.6583 18.4446 36.1999 18.49 36.6276L18.7409 36.4792C18.7411 36.2401 18.821 36.052 18.9748 35.9381Z" fill="#EFC261"/>
<path fill-rule="evenodd" clip-rule="evenodd" d="M17.2482 27.7083C16.4443 23.8492 15.9886 19.9962 15.8402 15.9434H13.9762C14.2213 21.974 15.31 27.6683 17.2479 33.4022C17.2594 33.4367 17.2708 33.465 17.2762 33.4936L18.3592 32.2796C17.9365 30.769 17.566 29.2443 17.2482 27.7083ZM32.655 27.8507C33.4819 23.9631 33.9434 20.0929 34.0573 15.989H35.9213C35.6816 22.0197 34.5929 27.714 32.655 33.4479C32.6438 33.4762 32.6322 33.5107 32.621 33.5392L31.5435 32.3252C31.9595 30.8454 32.3302 29.3532 32.655 27.8507ZM32.655 26.5685C33.2993 23.1255 33.567 19.7168 33.7611 16.0004H31.1559C31.3728 19.9962 31.0192 24.043 30.3012 27.9819C30.1235 28.9806 29.9201 29.9746 29.6911 30.9629L30.3012 31.4015L31.276 32.1027C31.8445 30.2868 32.3049 28.4388 32.655 26.5685ZM30.301 26.2831C30.7964 22.8858 30.985 19.466 30.8877 15.989H28.4938C28.7277 20.0587 28.6193 24.0033 27.9978 27.9819C27.8899 28.6831 27.7644 29.3837 27.6219 30.0911L27.9978 30.2389L29.4574 30.8262C29.7997 29.3238 30.0811 27.8082 30.301 26.2831ZM27.9981 15.9548H28.2432C28.4883 19.2722 28.3856 22.5896 27.9981 25.8782C27.8318 27.2647 27.617 28.6449 27.3542 30.0164C27.1297 29.9695 26.9034 29.9315 26.6759 29.9025C26.5901 29.5642 26.5122 29.224 26.4425 28.882C26.0832 27.1039 25.9748 25.2855 25.9748 23.3133L25.7865 23.3878L25.7408 23.4049C25.7463 23.9008 25.7636 24.3851 25.7865 24.8526C25.8604 26.6082 26.0373 28.2099 26.442 29.8171C26.4474 29.8343 26.4531 29.8571 26.4591 29.8745H26.442L26.1338 29.84C25.9863 29.2059 25.8703 28.5649 25.7862 27.9194C25.5865 26.4886 25.5242 25.0238 25.547 23.4619L25.3074 23.5073L25.3875 29.8003C25.3131 29.7943 25.2391 29.7943 25.1595 29.7943V23.4049H24.7831V29.7943C24.6918 29.7943 24.6005 29.8003 24.5152 29.8003L24.5894 23.4788L24.3556 23.4331C24.3728 24.9151 24.3214 26.306 24.1448 27.6683C24.0529 28.4003 23.9236 29.1272 23.7572 29.8459C23.6659 29.8571 23.5746 29.8625 23.4836 29.8742C23.8771 28.3349 24.0594 26.8076 24.1448 25.1433C24.1733 24.5792 24.1961 23.9919 24.2075 23.3878L24.1448 23.3649L23.9681 23.3022C23.9681 25.314 23.8597 27.1612 23.4778 28.9795C23.4157 29.2872 23.3453 29.5931 23.267 29.897C23.0221 29.9253 22.7767 29.9598 22.5318 29.9995C22.2783 28.7799 22.0804 27.5493 21.9389 26.3117C21.5399 22.8861 21.5456 19.4263 21.6597 15.955H27.9981V15.9548ZM26.4422 22.4814C26.5735 22.5328 26.5506 22.2877 26.4422 21.7689C26.3505 21.3497 26.2536 20.9317 26.1514 20.5149H26.0775C26.0775 20.9253 25.9862 21.1819 25.7867 21.5126C25.7696 21.5341 25.7544 21.557 25.7411 21.5811C25.7527 21.5925 25.7693 21.6039 25.7867 21.621C26.0147 21.8148 26.1859 22.117 26.3172 22.3849C26.368 22.4358 26.4077 22.4643 26.4422 22.4814ZM26.4422 19.5972C26.5826 19.4623 26.7088 19.3133 26.8186 19.1526L26.6417 18.7879C26.5789 18.8678 26.5104 18.9534 26.442 19.033C26.3224 19.1754 26.1911 19.3124 26.0656 19.4491L26.2879 19.7342L26.4422 19.5972ZM26.4422 18.6509C26.7102 18.1949 26.7953 17.7161 26.7102 17.2315C26.6362 17.4709 26.5506 17.7218 26.4422 17.9612C26.2998 18.286 26.1175 18.5882 25.8723 18.8276H25.4791L25.2967 18.742V18.8276H25.1198V18.4455H24.8407V18.8276H24.6526V18.7134L24.4703 18.8276H24.0317C23.7751 18.5767 23.5985 18.2803 23.4786 17.9612C23.3938 17.725 23.3346 17.4804 23.302 17.2315C23.2335 17.7503 23.2449 18.2463 23.4786 18.6963C23.5888 18.8984 23.7357 19.0783 23.9118 19.2265H24.2936C24.2708 19.3746 24.2197 19.5056 24.1455 19.6426C24.1341 19.6654 24.117 19.694 24.0999 19.7168H24.6529V19.2265H24.841V19.922L24.1455 20.0019L23.8094 20.0418V20.1331H26.1234V20.0418L25.787 20.0076L25.1201 19.9391V19.2265H25.297V19.7168H25.8153C25.8041 19.694 25.7924 19.6711 25.787 19.6483C25.7278 19.5135 25.6857 19.3718 25.662 19.2265H25.9922C26.174 19.0387 26.3281 18.8504 26.4422 18.6509ZM25.7865 22.7722C25.8321 22.869 25.8778 22.9546 25.946 23.0171C26.174 22.8461 26.0656 22.2648 25.7865 21.9455C25.5813 21.7175 25.2965 21.6265 24.9771 21.8942C24.9714 21.8884 24.9657 21.8827 24.96 21.8827C24.6353 21.6547 24.3331 21.8086 24.145 22.0708C23.9227 22.3899 23.8656 22.863 24.145 23.0168C24.1564 23.0225 24.1621 23.0282 24.1735 23.0339C24.2361 22.6347 24.5782 22.0934 24.96 22.0763H24.9714C25.5074 22.0654 25.6324 22.4643 25.7865 22.7722ZM25.7865 20.4122H25.8264C25.8264 20.5775 25.8147 20.7144 25.7865 20.8397C25.7354 21.0392 25.6498 21.2158 25.5016 21.421C25.3476 21.2898 25.3076 21.1987 25.2793 21.0049C25.5128 20.9308 25.593 20.8568 25.7408 20.6631H25.0568C25.0796 20.9196 25.131 21.1419 25.1935 21.3925C25.1139 21.4895 25.0796 21.5352 25.0283 21.6547H24.857C24.8201 21.5609 24.7702 21.4726 24.7089 21.3925C24.8002 21.1188 24.8399 20.9536 24.8399 20.6631H24.2073C24.3326 20.8682 24.4239 20.9367 24.6519 21.0049C24.5834 21.159 24.5209 21.2672 24.3953 21.3925C24.283 21.2043 24.1985 21.0008 24.1445 20.7884C24.1159 20.6646 24.0968 20.5389 24.0874 20.4122H25.7865ZM24.96 23.1195H25.3649C25.7297 23.0342 25.3878 22.5325 25.222 22.3673H24.8005C24.6524 22.5325 24.242 23.0342 24.6695 23.1195H24.96ZM24.145 21.6493C24.1678 21.615 24.1907 21.5922 24.2078 21.5694C24.185 21.5237 24.1678 21.4838 24.145 21.4441C23.9912 21.1191 23.917 20.8568 23.8485 20.4753H23.8088C23.7689 20.6462 23.5808 21.1935 23.4781 21.6664C23.4099 21.9971 23.3871 22.2879 23.4781 22.4075C23.4952 22.4189 23.5066 22.4303 23.5238 22.4417C23.6776 22.3901 23.9798 21.8942 24.145 21.6493ZM23.4781 19.5344C23.5123 19.5687 23.5466 19.6086 23.5863 19.6426C23.6833 19.5456 23.7575 19.4828 23.8371 19.3632C23.708 19.2369 23.588 19.1016 23.4781 18.9583C23.4171 18.8782 23.3582 18.7964 23.3015 18.7132L23.1248 19.095C23.2387 19.2437 23.3528 19.392 23.4781 19.5344ZM21.9391 30.1933L22.2813 30.0566C22.1563 29.4258 22.0422 28.793 21.9391 28.1583C21.282 24.1218 21.1079 20.0213 21.4206 15.9436H19.0092C18.9807 19.4434 19.1348 22.7779 19.6079 26.1464C19.8269 27.7045 20.1121 29.2525 20.4629 30.7862L21.9391 30.1933ZM19.6079 28.0047C19.7899 28.9792 19.9894 29.9503 20.2064 30.9175L19.6079 31.3507L18.6274 32.0575C18.0649 30.157 17.6045 28.2277 17.2482 26.2779C16.6327 22.9206 16.3305 19.5975 16.1367 15.9553H18.7415C18.525 19.9676 18.884 24.0432 19.6079 28.0047Z" fill="#7E002D"/>
</svg>
