<?xml version="1.0" encoding="utf-8"?>
<!-- Generator: Adobe Illustrator 25.2.0, SVG Export Plug-In . SVG Version: 6.00 Build 0)  -->
<svg version="1.1" id="layer" xmlns="http://www.w3.org/2000/svg" xmlns:xlink="http://www.w3.org/1999/xlink" x="0px" y="0px"
	 viewBox="0 0 50 50" style="enable-background:new 0 0 50 50;" xml:space="preserve">
<style type="text/css">
	.st0{fill:#FFFFFF;}
	.st1{clip-path:url(#SVGID_2_);fill:url(#SVGID_3_);}
	.st2{clip-path:url(#SVGID_5_);fill:url(#SVGID_6_);}
	.st3{clip-path:url(#SVGID_8_);fill:url(#SVGID_9_);}
	.st4{clip-path:url(#SVGID_11_);fill:url(#SVGID_12_);}
	.st5{clip-path:url(#SVGID_14_);fill:url(#SVGID_15_);}
	.st6{clip-path:url(#SVGID_17_);}
	.st7{clip-path:url(#SVGID_19_);fill:url(#SVGID_20_);}
	.st8{clip-path:url(#SVGID_22_);}
	.st9{clip-path:url(#SVGID_24_);fill:url(#SVGID_25_);}
	.st10{fill:#A7A9AC;}
	.st11{clip-path:url(#SVGID_27_);fill:url(#SVGID_28_);}
	.st12{fill:#939598;}
	.st13{clip-path:url(#SVGID_30_);fill:url(#SVGID_31_);}
	.st14{clip-path:url(#SVGID_33_);fill:url(#SVGID_34_);}
	.st15{clip-path:url(#SVGID_36_);fill:url(#SVGID_37_);}
	.st16{clip-path:url(#SVGID_39_);fill:url(#SVGID_40_);}
	.st17{clip-path:url(#SVGID_42_);fill:url(#SVGID_43_);}
	.st18{clip-path:url(#SVGID_45_);fill:url(#SVGID_46_);}
	.st19{clip-path:url(#SVGID_48_);fill:url(#SVGID_49_);}
	.st20{clip-path:url(#SVGID_51_);fill:url(#SVGID_52_);}
	.st21{clip-path:url(#SVGID_54_);}
	.st22{clip-path:url(#SVGID_56_);fill:url(#SVGID_57_);}
	.st23{opacity:0.1;}
	.st24{clip-path:url(#SVGID_59_);}
	.st25{clip-path:url(#SVGID_61_);fill:url(#SVGID_62_);}
	.st26{fill:#808285;}
	.st27{fill:#414042;}
</style>
<g>
	<path class="st0" d="M50,28.2l-50.1-8.9c0,0,0.1-5.6,0.2-8.6c0.1-3,0.7-4.8,2-5.9C3.8,3.4,5.8,3,10.5,2.7c10.9-0.6,22-0.5,35.9,0.5
		c1.4,0.1,2,0.4,2.3,0.6c0.6,0.4,0.7,0.9,0.9,3.4c0.1,2,0.5,8.7,0.5,8.7s-16.4-0.6-24.5-0.6c-2.3,0-4.1,0-5.6,0
		c-1,0-1.5,0.1-1.9,0.3L50,21V28.2z"/>
	<path class="st0" d="M-0.1,21.2L50,30.1c0,0-0.1,5.6-0.2,8.6c-0.1,3-0.7,4.8-2,5.9c-1.7,1.5-3.7,1.9-8.4,2.1
		c-10.9,0.6-22,0.5-35.9-0.5c-1.4-0.1-2-0.4-2.3-0.6c-0.6-0.4-0.7-0.9-0.9-3.4c-0.1-2-0.5-8.7-0.5-8.7s16.4,0.6,24.5,0.6
		c2.3,0,4.1,0,5.6,0c1,0,1.5-0.1,1.9-0.3l-32-5.4C-0.1,28.4-0.1,21.2-0.1,21.2z"/>
	<path d="M50,28.2l-50.1-8.9c0,0,0.1-5.6,0.2-8.6c0.1-3,0.7-4.8,2-5.9C3.8,3.4,5.8,3,10.5,2.7c10.9-0.6,22-0.5,35.9,0.5
		c1.4,0.1,2,0.4,2.3,0.6c0.6,0.4,0.7,0.9,0.9,3.4c0.1,2,0.5,8.7,0.5,8.7s-16.4-0.6-24.5-0.6c-2.3,0-4.1,0-5.6,0
		c-1,0-1.5,0.1-1.9,0.3L50,21V28.2z M-0.1,21.2L50,30.1c0,0-0.1,5.6-0.2,8.6c-0.1,3-0.7,4.8-2,5.9c-1.7,1.5-3.7,1.9-8.4,2.1
		c-10.9,0.6-22,0.5-35.9-0.5c-1.4-0.1-2-0.4-2.3-0.6c-0.6-0.4-0.7-0.9-0.9-3.4c-0.1-2-0.5-8.7-0.5-8.7s16.4,0.6,24.5,0.6
		c2.3,0,4.1,0,5.6,0c1,0,1.5-0.1,1.9-0.3l-32-5.4L-0.1,21.2L-0.1,21.2z M0.4,21.8V28L33,33.5c0,0-0.5,0.6-0.9,0.8
		c-0.5,0.2-1,0.3-2.1,0.4c-1.5,0-3.3,0-5.6,0c-7.1,0-21-0.5-23.9-0.6c0.1,1.7,0.3,6.5,0.4,8.1c0.2,2.5,0.2,2.7,0.6,3
		c0.1,0.1,0.5,0.4,2,0.5c8,0.6,15.3,0.8,22.1,0.8c4.6,0,9.1-0.1,13.7-0.4c4.6-0.3,6.5-0.6,8-2c1.1-1,1.7-2.7,1.8-5.5
		c0.1-2.4,0.2-6.7,0.2-8.1L0.4,21.8z M49.5,27.6v-6.1l-32.6-5.5c0,0,0.5-0.6,0.9-0.8c0.5-0.2,1-0.3,2.1-0.4c1.5,0,3.3,0,5.6,0
		c7.1,0,21,0.5,23.9,0.6c-0.1-1.7-0.3-6.5-0.4-8.1c-0.2-2.5-0.2-2.7-0.6-3c-0.1-0.1-0.5-0.4-2-0.5c-8-0.6-15.3-0.8-22.1-0.8
		c-4.6,0-9.1,0.1-13.7,0.4c-4.6,0.3-6.5,0.6-8,2c-1.1,1-1.7,2.7-1.8,5.5c-0.1,2.4-0.2,6.7-0.2,8.1L49.5,27.6z"/>
	<path class="st0" d="M26.3,36.8c-0.3,0-1.8,0-2.1,0c-6.6,0-13.8,0-22.5-0.5l-1.3-2.2l0.3,0l1.4,1.7c7.5,0.4,14.4,0.5,22,0.5
		c0.3,0,1.7,0,2.1,0c1.1,0,2.3,0,3.4,0c3.8-0.1,5-0.5,7.6-3.2l0.9-0.1l-0.4,0.4c-2.8,2.9-4,3.2-8.1,3.3
		C28.6,36.8,27.3,36.8,26.3,36.8"/>
	<polygon class="st0" points="49.4,30.5 0.4,21.8 0.4,22.1 1.3,22.6 1.3,26.6 0.4,27.6 0.4,28 1.8,26.9 1.8,22.4 48.7,30.7 	"/>
	<g>
		<g>
			<defs>
				<path id="SVGID_1_" d="M48.1,33.4c0,0.8,0,1.5-0.1,2.1c0,0.9-0.1,1.8-0.1,2.9c-0.1,3-0.8,4-2.1,4.8c-1.3,0.8-2.7,0.9-7.2,1.1
					c-4.6,0.2-9.4,0.4-14.5,0.4c-0.4,0-0.8,0-1.1,0c-5.9,0-11.3-0.3-18.1-0.9c-1.2-0.1-1.9-0.2-2.2-0.4c-0.4-0.2-0.5-0.3-0.5-1.8
					c0-0.2,0-0.4,0-0.6c0-0.6-0.1-1-0.1-1.8c0-0.8-0.1-1.5-0.2-3.1l-0.4-0.8c0.1,1.7,0.2,3.2,0.2,4c0,0.7,0,1.2,0.1,1.7v0.1
					c0,0.2,0,0.4,0,0.5c0.1,1.5,0.2,1.8,0.8,2.1c0.4,0.3,1.2,0.4,2.5,0.5c6.8,0.5,12.2,0.9,18.1,0.9c0.4,0,0.8,0,1.1,0
					c5.1,0,9.9-0.2,14.5-0.4c4.6-0.2,6.1-0.3,7.5-1.2c1.5-0.9,2.2-2,2.4-5.2c0-1.2,0.1-2,0.1-2.9v0c0.1-1.4,0.1-2.8,0.2-4.9
					l-0.5-0.1C48.2,31.4,48.1,32.5,48.1,33.4"/>
			</defs>
			<clipPath id="SVGID_2_">
				<use xlink:href="#SVGID_1_"  style="overflow:visible;"/>
			</clipPath>
			
				<radialGradient id="SVGID_3_" cx="-2791.1211" cy="-202.464" r="1.3402" gradientTransform="matrix(18.2312 5.0536 -3.1839 11.4862 50264.1484 16475.4766)" gradientUnits="userSpaceOnUse">
				<stop  offset="0" style="stop-color:#7B7C7F"/>
				<stop  offset="0.3301" style="stop-color:#7B7C7F"/>
				<stop  offset="0.5502" style="stop-color:#929396"/>
				<stop  offset="0.7979" style="stop-color:#A7A9AC"/>
				<stop  offset="1" style="stop-color:#D1D3D4"/>
			</radialGradient>
			<polygon class="st1" points="4.7,18.4 52.5,31.7 45.3,57.5 -2.5,44.3 			"/>
		</g>
	</g>
	<g>
		<g>
			<defs>
				<path id="SVGID_4_" d="M48.2,13.8L48.2,13.8L48.2,13.8C48.2,13.8,48.2,13.8,48.2,13.8 M48.2,13.8L48.2,13.8L48.2,13.8z
					 M25.3,13.5c-0.5,0-1.2,0-1.9,0c-2.2,0-3.9,0-4.8,0.2c-2.2,0.4-2.1,1.5-1.2,1.7c0.1-0.1,0.3-0.2,0.4-0.3c0.5-0.2,1-0.3,2.1-0.4
					c1.5,0,3.3,0,5.6,0c7,0,20.3,0.5,23.7,0.6c-0.3-0.4-0.8-1.3-1-1.5l-0.2,0c-5.7-0.3-11.5-0.3-17.7-0.3
					C28.7,13.5,27,13.5,25.3,13.5"/>
			</defs>
			<clipPath id="SVGID_5_">
				<use xlink:href="#SVGID_4_"  style="overflow:visible;"/>
			</clipPath>
			
				<linearGradient id="SVGID_6_" gradientUnits="userSpaceOnUse" x1="-2817.6006" y1="-148.4185" x2="-2816.2603" y2="-148.4185" gradientTransform="matrix(23.1634 0 0 23.1634 65282.3203 3452.3088)">
				<stop  offset="0" style="stop-color:#4D4D4F"/>
				<stop  offset="0.3337" style="stop-color:#545557"/>
				<stop  offset="0.454" style="stop-color:#58595B"/>
				<stop  offset="0.5356" style="stop-color:#525355"/>
				<stop  offset="0.6425" style="stop-color:#434345"/>
				<stop  offset="0.7634" style="stop-color:#28292A"/>
				<stop  offset="0.8938" style="stop-color:#040404"/>
				<stop  offset="0.9069" style="stop-color:#000000"/>
				<stop  offset="1" style="stop-color:#000000"/>
			</linearGradient>
			<rect x="16.5" y="13.5" class="st2" width="32.7" height="1.9"/>
		</g>
	</g>
	<g>
		<path class="st0" d="M47.2,6.4L47.5,6l-0.1-0.1c-0.4-0.3-1.1-0.4-2.4-0.5C38.7,5,31.6,4.7,26.6,4.7c-0.3,0-0.7,0-1,0
			c-1.1,0-2.1,0-3,0c-4.8,0-8.6,0.1-11.4,0.2c-0.2,0-0.5,0-0.7,0c-4,0.2-6,0.3-7.5,1.7c-1.1,0.9-1.5,2.2-1.6,4.7l0,1.2
			c-0.1,1.9-0.1,3.1-0.2,5.6c-0.1,0.1-0.5,0.2-0.6,0.3l0,0.4l1.1-0.5l0-0.6c0.1-2.2,0.1-3.5,0.2-5.2l0-1.2c0.1-2.3,0.5-3.5,1.4-4.3
			c1.4-1.3,3.4-1.4,7.2-1.6c0.2,0,0.5,0,0.7,0c2.8-0.1,6.6-0.2,11.4-0.2c1,0,2,0,3,0c0.3,0,0.7,0,1,0c5,0,12.1,0.3,18.5,0.7
			C46.2,6,46.9,6.2,47.2,6.4L47.2,6.4z"/>
	</g>
	<g>
		<g>
			<defs>
				<path id="SVGID_7_" d="M2.5,5.3c-1.1,1-1.7,2.7-1.8,5.5c-0.1,2.2-0.2,6-0.2,7.7c0.1,0,0.5-0.2,0.6-0.3c0.1-2.5,0.1-3.7,0.2-5.6
					l0-1.2c0.1-2.5,0.5-3.7,1.6-4.7c0.2-0.2,0.5-0.4,0.7-0.5C3.4,5.7,3.4,5.3,3.5,5c0.1-0.3,0.7-0.7,1.9-1.1
					C4.1,4.1,3.3,4.6,2.5,5.3"/>
			</defs>
			<clipPath id="SVGID_8_">
				<use xlink:href="#SVGID_7_"  style="overflow:visible;"/>
			</clipPath>
			
				<linearGradient id="SVGID_9_" gradientUnits="userSpaceOnUse" x1="-3038.1052" y1="134.4149" x2="-3036.7649" y2="134.4149" gradientTransform="matrix(-2.047 -9.1473 9.1473 -2.047 -7444.1548 -27497.7324)">
				<stop  offset="0" style="stop-color:#939598"/>
				<stop  offset="0.4947" style="stop-color:#A0A2A5"/>
				<stop  offset="1" style="stop-color:#A7A9AC"/>
			</linearGradient>
			<polygon class="st3" points="0.7,19.5 -2.6,4.5 5.2,2.8 8.5,17.7 			"/>
		</g>
	</g>
	<g>
		<g>
			<defs>
				<path id="SVGID_10_" d="M10.5,3.3C8.2,3.4,6.6,3.5,5.4,3.8C4.2,4.3,3.7,4.7,3.5,5C3.4,5.3,3.4,5.7,3.7,6.2
					c1.5-0.9,3.4-1,6.8-1.2c0.2,0,0.5,0,0.7,0c2.8-0.1,6.6-0.2,11.4-0.2c1,0,2,0,3,0c0.3,0,0.7,0,1,0c5,0,12.1,0.3,18.5,0.7
					c1.3,0.1,2,0.2,2.4,0.5L47.5,6c0.1,0.1,0.2,0.1,0.2,0.2c0.3-0.5,0.8-0.5,1.2,0.6c-0.1-2.1-0.2-2.3-0.6-2.6
					c-0.1-0.1-0.5-0.4-2-0.5c-8-0.6-15.3-0.8-22.1-0.8C19.6,2.9,15.1,3,10.5,3.3"/>
			</defs>
			<clipPath id="SVGID_11_">
				<use xlink:href="#SVGID_10_"  style="overflow:visible;"/>
			</clipPath>
			
				<linearGradient id="SVGID_12_" gradientUnits="userSpaceOnUse" x1="-2857.1089" y1="-152.1812" x2="-2855.7688" y2="-152.1812" gradientTransform="matrix(33.8406 0 0 33.8406 96689.9375 5154.749)">
				<stop  offset="0" style="stop-color:#C7C8CA"/>
				<stop  offset="5.670170e-02" style="stop-color:#C7C8CA"/>
				<stop  offset="0.2976" style="stop-color:#C4C5C7"/>
				<stop  offset="0.477" style="stop-color:#BBBCBE"/>
				<stop  offset="0.6364" style="stop-color:#AAABAD"/>
				<stop  offset="0.7843" style="stop-color:#949597"/>
				<stop  offset="0.9228" style="stop-color:#77787A"/>
				<stop  offset="1" style="stop-color:#636466"/>
			</linearGradient>
			<rect x="3.3" y="2.9" class="st4" width="45.6" height="3.9"/>
		</g>
	</g>
	<g>
		<g>
			<defs>
				<path id="SVGID_13_" d="M47.2,6.4c0.3,0.2,0.4,0.4,0.5,1.7c0.1,1.2,0.3,4.2,0.3,5.4l1.2,1.8l0.3,0l0-0.3l-1-1.6
					c0-1.3-0.1-4.1-0.2-5.2c-0.1-1.1-0.1-1.5-0.5-1.9c-0.1-0.1-0.1-0.1-0.2-0.2L47.2,6.4z"/>
			</defs>
			<clipPath id="SVGID_14_">
				<use xlink:href="#SVGID_13_"  style="overflow:visible;"/>
			</clipPath>
			
				<linearGradient id="SVGID_15_" gradientUnits="userSpaceOnUse" x1="-2901.4431" y1="-603.2324" x2="-2900.103" y2="-603.2324" gradientTransform="matrix(0 6.5469 -6.5469 0 -3900.9614 19001.7324)">
				<stop  offset="0" style="stop-color:#FFFFFF"/>
				<stop  offset="6.134030e-03" style="stop-color:#FFFFFF"/>
				<stop  offset="5.248274e-02" style="stop-color:#EAEBEB"/>
				<stop  offset="0.1166" style="stop-color:#D1D3D4"/>
				<stop  offset="0.5082" style="stop-color:#CFD1D2"/>
				<stop  offset="0.652" style="stop-color:#C8CACB"/>
				<stop  offset="0.7548" style="stop-color:#BDBEC0"/>
				<stop  offset="0.8383" style="stop-color:#ACADAF"/>
				<stop  offset="0.9099" style="stop-color:#96979A"/>
				<stop  offset="0.9722" style="stop-color:#7B7D7F"/>
				<stop  offset="1" style="stop-color:#6D6E71"/>
			</linearGradient>
			<rect x="47.2" y="6" class="st5" width="2.2" height="9.3"/>
		</g>
	</g>
	<g>
		<path d="M49,6.8c-0.4-1.1-0.9-1.1-1.2-0.6c0.3,0.4,0.4,0.8,0.5,1.9c0.1,1.1,0.2,3.9,0.2,5.2l1,1.6c-0.1-1.9-0.3-6.2-0.4-7.8"/>
		<g>
			<g>
				<g>
					<defs>
						<rect id="SVGID_16_" x="0.5" y="5.2" width="49" height="22.3"/>
					</defs>
					<clipPath id="SVGID_17_">
						<use xlink:href="#SVGID_16_"  style="overflow:visible;"/>
					</clipPath>
					<g class="st6">
						<g>
							<defs>
								<path id="SVGID_18_" d="M25.6,5.2c-1.1,0-2.1,0-3,0c-4.8,0-8.6,0.1-11.4,0.2c-0.2,0-0.5,0-0.7,0C6.6,5.7,4.7,5.8,3.3,7.1
									c-0.9,0.8-1.3,2-1.4,4.3l0,1.2c-0.1,1.7-0.2,5.2-0.2,5.2l0,0.6l-1.1,0.5l49,8.7l-1.2-0.5V23l-32.8-7.6
									c0-0.6,0.5-2.3,3.1-2.3c1.6,0,5-0.1,6.8-0.1c8.8,0,16,0.2,22.7,0.5c0-1.2-0.2-4.2-0.3-5.4c0-0.1,0-0.2,0-0.2
									c-0.1-0.9-0.1-1.2-0.3-1.4c0,0,0,0,0,0l0,0c0,0,0,0,0,0l0,0c0,0,0,0,0,0l0,0c0,0,0,0,0,0l0,0c0,0,0,0,0,0c0,0,0,0,0,0
									l-0.1,0c-0.3-0.2-1-0.3-2.1-0.4c-6.4-0.4-13.5-0.7-18.5-0.7C26.2,5.2,25.9,5.2,25.6,5.2"/>
							</defs>
							<clipPath id="SVGID_19_">
								<use xlink:href="#SVGID_18_"  style="overflow:visible;"/>
							</clipPath>
							
								<radialGradient id="SVGID_20_" cx="-2994.9966" cy="-122.5115" r="1.3402" gradientTransform="matrix(-34.009 -29.6665 29.6665 -34.009 -98174.6562 -92972.7422)" gradientUnits="userSpaceOnUse">
								<stop  offset="0" style="stop-color:#808285"/>
								<stop  offset="0.1417" style="stop-color:#808285"/>
								<stop  offset="0.1962" style="stop-color:#898B8E"/>
								<stop  offset="0.4529" style="stop-color:#AEB0B2"/>
								<stop  offset="0.5888" style="stop-color:#BCBEC0"/>
								<stop  offset="0.6333" style="stop-color:#C7C8CA"/>
								<stop  offset="0.7318" style="stop-color:#D8D9DB"/>
								<stop  offset="0.8373" style="stop-color:#E3E4E5"/>
								<stop  offset="0.9612" style="stop-color:#E6E7E8"/>
								<stop  offset="1" style="stop-color:#E6E7E8"/>
							</radialGradient>
							<polygon class="st7" points="28.3,51.8 -10.6,17.9 21.6,-19 60.5,14.9 							"/>
						</g>
					</g>
				</g>
			</g>
		</g>
		<g>
			<g>
				<g>
					<defs>
						<rect id="SVGID_21_" x="0.5" y="5.2" width="49" height="22.3"/>
					</defs>
					<clipPath id="SVGID_22_">
						<use xlink:href="#SVGID_21_"  style="overflow:visible;"/>
					</clipPath>
					<g class="st8">
						<g>
							<defs>
								<path id="SVGID_23_" d="M25.6,5.2c-1.1,0-2.1,0-3,0c-4.8,0-8.6,0.1-11.4,0.2c-0.2,0-0.5,0-0.7,0C6.6,5.7,4.7,5.8,3.3,7.1
									c-0.9,0.8-1.3,2-1.4,4.3l0,1.2c-0.1,1.7-0.2,5.2-0.2,5.2l0,0.6l-1.1,0.5l49,8.7l-1.2-0.5V23l-32.8-7.6
									c0-0.6,0.5-2.3,3.1-2.3c1.6,0,5-0.1,6.8-0.1c8.8,0,16,0.2,22.7,0.5c0-1.2-0.2-4.2-0.3-5.4c0-0.1,0-0.2,0-0.2
									c-0.1-0.9-0.1-1.2-0.3-1.4c0,0,0,0,0,0l0,0c0,0,0,0,0,0l0,0c0,0,0,0,0,0l0,0c0,0,0,0,0,0l0,0c0,0,0,0,0,0c0,0,0,0,0,0
									l-0.1,0c-0.3-0.2-1-0.3-2.1-0.4c-6.4-0.4-13.5-0.7-18.5-0.7C26.2,5.2,25.9,5.2,25.6,5.2"/>
							</defs>
							<clipPath id="SVGID_24_">
								<use xlink:href="#SVGID_23_"  style="overflow:visible;"/>
							</clipPath>
							
								<radialGradient id="SVGID_25_" cx="-2989.9136" cy="-120.1448" r="1.3402" gradientTransform="matrix(-32.9139 -33.6747 33.6747 -32.9139 -94293.8828 -104584.1953)" gradientUnits="userSpaceOnUse">
								<stop  offset="0" style="stop-color:#808285"/>
								<stop  offset="0.1417" style="stop-color:#808285"/>
								<stop  offset="0.1962" style="stop-color:#898B8E"/>
								<stop  offset="0.4529" style="stop-color:#AEB0B2"/>
								<stop  offset="0.5888" style="stop-color:#BCBEC0"/>
								<stop  offset="0.5985" style="stop-color:#C0C2C3"/>
								<stop  offset="0.6838" style="stop-color:#DBDCDD"/>
								<stop  offset="0.7699" style="stop-color:#EFF0F0"/>
								<stop  offset="0.8562" style="stop-color:#FBFBFB"/>
								<stop  offset="0.9435" style="stop-color:#FFFFFF"/>
								<stop  offset="1" style="stop-color:#FFFFFF"/>
							</radialGradient>
							<polygon class="st9" points="24.4,52.1 -10.7,16.1 25.5,-19.3 60.6,16.7 							"/>
						</g>
					</g>
				</g>
			</g>
		</g>
		<polygon class="st10" points="0.4,22.1 1.3,22.6 1.3,26.6 0.4,27.6 		"/>
	</g>
	<g>
		<g>
			<defs>
				<path id="SVGID_26_" d="M1,43.6c0.1,1.2,0.2,1.4,0.5,1.6c0.1,0.1,0.5,0.4,2,0.5c8,0.6,15.3,0.8,22.1,0.8c4.6,0,9.1-0.1,13.7-0.4
					c2.3-0.1,3.9-0.3,5.1-0.5c0.4-0.2,0.5-0.5,0.6-0.6c0.1-0.3,0-0.5-0.2-0.7c-1.2,0.4-2.9,0.5-6.3,0.6c-4.6,0.2-9.4,0.4-14.5,0.4
					c-0.4,0-0.8,0-1.1,0c-5.9,0-11.3-0.3-18.1-0.9c-1.3-0.1-2-0.2-2.5-0.5c-0.1-0.1-0.3-0.2-0.3-0.3c0,0-0.1,0.1-0.2,0.2
					C1.4,44.2,1.1,44.2,1,43.6z"/>
			</defs>
			<clipPath id="SVGID_27_">
				<use xlink:href="#SVGID_26_"  style="overflow:visible;"/>
			</clipPath>
			
				<linearGradient id="SVGID_28_" gradientUnits="userSpaceOnUse" x1="-2854.7952" y1="-151.6557" x2="-2853.4548" y2="-151.6557" gradientTransform="matrix(32.94 0 0 32.94 94037.9219 5040.5581)">
				<stop  offset="0" style="stop-color:#6D6E71"/>
				<stop  offset="0.1795" style="stop-color:#696A6D"/>
				<stop  offset="0.3703" style="stop-color:#5D5D60"/>
				<stop  offset="0.5664" style="stop-color:#48494B"/>
				<stop  offset="0.7662" style="stop-color:#2B2C2D"/>
				<stop  offset="0.9668" style="stop-color:#070707"/>
				<stop  offset="1" style="stop-color:#000000"/>
			</linearGradient>
			<rect x="1" y="43.6" class="st11" width="44.2" height="2.9"/>
		</g>
	</g>
	<g>
		<path class="st12" d="M1.5,41.3L1.5,41.3c0-0.6,0-1.1-0.1-1.8c0-0.8-0.1-2.3-0.2-4l-0.8-1.4c0.1,1.7,0.3,6.5,0.4,8.1L1,43.6
			c0.2,0.6,0.4,0.7,0.8,0.3c0.1-0.1,0.1-0.1,0.2-0.2c-0.3-0.3-0.4-0.8-0.4-1.9C1.6,41.6,1.5,41.5,1.5,41.3"/>
	</g>
	<g>
		<g>
			<defs>
				<path id="SVGID_29_" d="M48.7,30.7c-0.1,2-0.1,3.5-0.2,4.9v0c0,0.9-0.1,1.7-0.1,2.9c-0.1,3.3-0.9,4.3-2.4,5.2
					c-0.4,0.2-0.7,0.4-1.1,0.5c0.2,0.3,0.3,0.5,0.2,0.7c-0.1,0.1-0.2,0.4-0.6,0.6c1.3-0.3,2.1-0.7,2.9-1.4c1.1-1,1.7-2.7,1.8-5.5
					c0.1-2.4,0.2-6.7,0.2-8.1L48.7,30.7z"/>
			</defs>
			<clipPath id="SVGID_30_">
				<use xlink:href="#SVGID_29_"  style="overflow:visible;"/>
			</clipPath>
			
				<linearGradient id="SVGID_31_" gradientUnits="userSpaceOnUse" x1="-2889.8157" y1="138.9725" x2="-2888.4756" y2="138.9725" gradientTransform="matrix(2.558 -9.2436 9.2436 2.558 6152.917 -27024.0508)">
				<stop  offset="0" style="stop-color:#58595B"/>
				<stop  offset="0.2699" style="stop-color:#58595B"/>
				<stop  offset="1" style="stop-color:#000000"/>
			</linearGradient>
			<polygon class="st13" points="40.6,44.5 44.8,29.3 53.3,31.6 49.1,46.8 			"/>
		</g>
	</g>
	<g>
		<g>
			<defs>
				<path id="SVGID_32_" d="M1.8,26.9L38.2,33l-0.4,0.4c-2.8,2.9-4,3.2-8.1,3.3c-1.1,0-2.4,0-3.4,0c-0.3,0-1.8,0-2.1,0
					c-6.6,0-13.8,0-22.5-0.5c0.1,1.6,0.2,2.4,0.2,3.1c0,0.7,0.1,1.2,0.1,1.8c0,0.2,0,0.4,0,0.6c0.1,1.5,0.2,1.5,0.5,1.8
					c0.3,0.2,1.1,0.3,2.2,0.4c6.8,0.5,12.2,0.9,18.1,0.9c0.4,0,0.8,0,1.1,0c5,0,9.9-0.2,14.5-0.4c4.5-0.2,6-0.3,7.2-1.1
					c1.3-0.8,2-1.8,2.1-4.8c0-1.2,0.1-2.1,0.1-2.9c0-0.6,0.1-1.3,0.1-2.1c0-0.9,0.1-2,0.1-2.8l0,0L1.7,22.4L1.8,26.9z"/>
			</defs>
			<clipPath id="SVGID_33_">
				<use xlink:href="#SVGID_32_"  style="overflow:visible;"/>
			</clipPath>
			
				<radialGradient id="SVGID_34_" cx="-2959.8438" cy="-150.1004" r="1.3402" gradientTransform="matrix(-117.9379 -85.9592 85.9592 -117.9379 -336106.5 -271959.9688)" gradientUnits="userSpaceOnUse">
				<stop  offset="0" style="stop-color:#77787B"/>
				<stop  offset="0.2205" style="stop-color:#A0A2A4"/>
				<stop  offset="0.441" style="stop-color:#C4C5C7"/>
				<stop  offset="0.5589" style="stop-color:#D1D3D4"/>
				<stop  offset="0.7949" style="stop-color:#ECEDED"/>
				<stop  offset="1" style="stop-color:#FFFFFF"/>
			</radialGradient>
			<polygon class="st14" points="32.1,66.9 -9,37 17.8,0.2 58.9,30.2 			"/>
		</g>
	</g>
	<g>
		<g>
			<defs>
				<path id="SVGID_35_" d="M33,33.5c0,0-0.5,0.6-0.9,0.8c-0.3,0.1-0.7,0.2-1.2,0.3c0.9,0.2,1.2,0.3,1.6,0.5
					c0.3,0.1,0.5,0.3,0.5,0.5c0,0.2-0.3,0.4-1.1,0.6c2.2-0.3,3.4-1,5.4-3l0,0L33,33.5z"/>
			</defs>
			<clipPath id="SVGID_36_">
				<use xlink:href="#SVGID_35_"  style="overflow:visible;"/>
			</clipPath>
			
				<linearGradient id="SVGID_37_" gradientUnits="userSpaceOnUse" x1="-3079.02" y1="-1065.8569" x2="-3077.6797" y2="-1065.8569" gradientTransform="matrix(-0.7688 3.0834 -3.0834 -0.7688 -5618.9189 8706.5703)">
				<stop  offset="0" style="stop-color:#6D6E71"/>
				<stop  offset="6.135560e-02" style="stop-color:#6D6E71"/>
				<stop  offset="8.025475e-02" style="stop-color:#747577"/>
				<stop  offset="0.1875" style="stop-color:#949598"/>
				<stop  offset="0.3035" style="stop-color:#AFB0B2"/>
				<stop  offset="0.4293" style="stop-color:#C4C5C6"/>
				<stop  offset="0.5698" style="stop-color:#D3D4D5"/>
				<stop  offset="0.7371" style="stop-color:#DBDCDD"/>
				<stop  offset="1" style="stop-color:#DEDFE0"/>
			</linearGradient>
			<polygon class="st15" points="38,33.3 36.9,37.6 30.2,36 31.3,31.6 			"/>
		</g>
	</g>
	<g>
		<g>
			<defs>
				<path id="SVGID_38_" d="M0.8,34.1l1.4,1.7c7.5,0.4,14.4,0.5,22,0.5c0.3,0,1.7,0,2.1,0c1.1,0,2.3,0,3.4,0c0.9,0,1.6-0.1,2.2-0.1
					c0.8-0.2,1.1-0.4,1.1-0.6c0-0.1-0.2-0.4-0.5-0.5c-0.4-0.1-0.7-0.3-1.6-0.5c0,0-0.6,0-0.9,0.1c-1.5,0-3.3,0-5.6,0
					C17.5,34.7,4.3,34.3,0.8,34.1z"/>
			</defs>
			<clipPath id="SVGID_39_">
				<use xlink:href="#SVGID_38_"  style="overflow:visible;"/>
			</clipPath>
			
				<linearGradient id="SVGID_40_" gradientUnits="userSpaceOnUse" x1="-2822.1948" y1="-148.6135" x2="-2820.854" y2="-148.6135" gradientTransform="matrix(24.0135 0 0 24.0135 67771.5547 3603.9653)">
				<stop  offset="0" style="stop-color:#A9ABAE"/>
				<stop  offset="0.1716" style="stop-color:#A2A4A7"/>
				<stop  offset="0.4187" style="stop-color:#909194"/>
				<stop  offset="0.7099" style="stop-color:#727375"/>
				<stop  offset="1" style="stop-color:#4D4D4F"/>
			</linearGradient>
			<rect x="0.8" y="34.1" class="st16" width="32.2" height="2.2"/>
		</g>
	</g>
	<g>
		<g>
			<defs>
				<path id="SVGID_41_" d="M19.7,16.4c3,1,11.2,2.9,17.4,4.3c-0.3,0,10.1,1.7,11.1,1.8l0.8-1.1L19.7,16.4z"/>
			</defs>
			<clipPath id="SVGID_42_">
				<use xlink:href="#SVGID_41_"  style="overflow:visible;"/>
			</clipPath>
			
				<linearGradient id="SVGID_43_" gradientUnits="userSpaceOnUse" x1="-2810.1016" y1="-147.6623" x2="-2808.7615" y2="-147.6623" gradientTransform="matrix(21.8564 0 0 21.8564 61438.3945 3246.7769)">
				<stop  offset="0" style="stop-color:#A7A9AC"/>
				<stop  offset="0.2669" style="stop-color:#AFB1B3"/>
				<stop  offset="0.6769" style="stop-color:#C4C6C8"/>
				<stop  offset="1" style="stop-color:#DADBDC"/>
			</linearGradient>
			<rect x="19.7" y="16.4" class="st17" width="29.3" height="6.1"/>
		</g>
	</g>
	<g>
		<g>
			<defs>
				<path id="SVGID_44_" d="M0.4,28L33,33.5c-0.5-0.5-2.1-1.2-3.3-1.4c-0.8-0.2-1.4-0.3-2.1-0.4c-0.3,0-15.9-2.7-26.3-4.5L0.4,28z"
					/>
			</defs>
			<clipPath id="SVGID_45_">
				<use xlink:href="#SVGID_44_"  style="overflow:visible;"/>
			</clipPath>
			
				<linearGradient id="SVGID_46_" gradientUnits="userSpaceOnUse" x1="-2819.8149" y1="-169.6103" x2="-2818.4749" y2="-169.6103" gradientTransform="matrix(23.2361 4.0341 -4.0341 23.2361 64838.4961 15344.1641)">
				<stop  offset="0" style="stop-color:#808285"/>
				<stop  offset="0.1487" style="stop-color:#7C7E81"/>
				<stop  offset="0.3054" style="stop-color:#707174"/>
				<stop  offset="0.4658" style="stop-color:#5B5D5F"/>
				<stop  offset="0.6288" style="stop-color:#3F4041"/>
				<stop  offset="0.7922" style="stop-color:#1B1B1C"/>
				<stop  offset="0.8957" style="stop-color:#000000"/>
				<stop  offset="1" style="stop-color:#000000"/>
			</linearGradient>
			<polygon class="st18" points="1.4,21.7 34,27.4 32,39 -0.6,33.3 			"/>
		</g>
	</g>
	<g>
		<g>
			<defs>
				<path id="SVGID_47_" d="M1.3,27.2c10.4,1.8,26,4.5,26.3,4.5c0.7,0.1,1.3,0.2,2.1,0.4c1.5,0.3,3,1,3.3,1.4l5.2-0.5L1.8,26.9
					L1.3,27.2z"/>
			</defs>
			<clipPath id="SVGID_48_">
				<use xlink:href="#SVGID_47_"  style="overflow:visible;"/>
			</clipPath>
			
				<linearGradient id="SVGID_49_" gradientUnits="userSpaceOnUse" x1="-2836.0525" y1="-167.4037" x2="-2834.7124" y2="-167.4037" gradientTransform="matrix(26.84 4.4106 -4.4106 26.84 75382.9453 17029.0098)">
				<stop  offset="0" style="stop-color:#636466"/>
				<stop  offset="1" style="stop-color:#4D4D4F"/>
			</linearGradient>
			<polygon class="st19" points="2.3,21 39.3,27 37.2,39.4 0.3,33.3 			"/>
		</g>
	</g>
	<g>
		<path d="M48,13.5C41.4,13.2,34.1,13,25.3,13c-1.8,0-5.2,0.1-6.8,0.1c-3.3,0.1-5.2,1.6-6.7,3.3l-0.3,0.3l5.4-0.9
			c0,0,0.1-0.1,0.4-0.4c-0.8-0.1-0.9-1.3,1.2-1.7c1-0.2,2.7-0.2,4.8-0.2c0.7,0,1.4,0,1.9,0c8.2,0,15.5,0,22.7,0.3l0.2,0L48,13.5z"/>
	</g>
	<g>
		<g>
			<defs>
				<path id="SVGID_50_" d="M12.4,16.6c2.2,0.4,15,2.5,24.6,4.1c-6.2-1.4-14.4-3.3-17.4-4.3L17,15.8L12.4,16.6z"/>
			</defs>
			<clipPath id="SVGID_51_">
				<use xlink:href="#SVGID_50_"  style="overflow:visible;"/>
			</clipPath>
			
				<linearGradient id="SVGID_52_" gradientUnits="userSpaceOnUse" x1="-2785.1479" y1="-145.3223" x2="-2783.8079" y2="-145.3223" gradientTransform="matrix(18.3786 0 0 18.3786 51199.5547 2689.0149)">
				<stop  offset="0" style="stop-color:#58595B"/>
				<stop  offset="0.2242" style="stop-color:#58595B"/>
				<stop  offset="0.4031" style="stop-color:#5F6062"/>
				<stop  offset="0.6583" style="stop-color:#717274"/>
				<stop  offset="0.9581" style="stop-color:#8E9093"/>
				<stop  offset="1" style="stop-color:#939598"/>
			</linearGradient>
			<rect x="12.4" y="15.8" class="st20" width="24.6" height="4.9"/>
		</g>
	</g>
	<g>
		<g>
			<g>
				<g>
					<defs>
						<rect id="SVGID_53_" x="1.7" y="22.4" width="46.5" height="22.4"/>
					</defs>
					<clipPath id="SVGID_54_">
						<use xlink:href="#SVGID_53_"  style="overflow:visible;"/>
					</clipPath>
					<g class="st21">
						<g>
							<defs>
								<path id="SVGID_55_" d="M1.8,26.9L38.2,33l-0.4,0.4c-2.8,2.9-4,3.2-8.1,3.3c-1.1,0-2.4,0-3.4,0c-0.3,0-1.8,0-2.1,0
									c-6.6,0-13.8,0-22.5-0.5c0.1,1.6,0.2,2.4,0.2,3.1c0,0.7,0.1,1.2,0.1,1.8c0,0.2,0,0.4,0,0.6c0.1,1.5,0.2,1.5,0.5,1.8
									c0.3,0.2,1.1,0.3,2.2,0.4c6.8,0.5,12.2,0.9,18.1,0.9c0.4,0,0.8,0,1.1,0c5,0,9.9-0.2,14.5-0.4c4.5-0.2,6-0.3,7.2-1.1
									c1.3-0.8,2-1.8,2.1-4.8c0-1.2,0.1-2.1,0.1-2.9c0-0.6,0.1-1.3,0.1-2.1c0-0.9,0.1-2,0.1-2.8l0,0L1.8,22.4L1.8,26.9z"/>
							</defs>
							<clipPath id="SVGID_56_">
								<use xlink:href="#SVGID_55_"  style="overflow:visible;"/>
							</clipPath>
							
								<radialGradient id="SVGID_57_" cx="-2994.7754" cy="-122.6672" r="1.3402" gradientTransform="matrix(-34.1533 -29.7924 29.7924 -34.1533 -98578.75 -93366.6484)" gradientUnits="userSpaceOnUse">
								<stop  offset="0" style="stop-color:#808285"/>
								<stop  offset="6.245197e-02" style="stop-color:#898B8E"/>
								<stop  offset="0.357" style="stop-color:#AEB0B2"/>
								<stop  offset="0.513" style="stop-color:#BCBEC0"/>
								<stop  offset="0.5263" style="stop-color:#C0C2C3"/>
								<stop  offset="0.6435" style="stop-color:#DBDCDD"/>
								<stop  offset="0.7616" style="stop-color:#EFF0F0"/>
								<stop  offset="0.8801" style="stop-color:#FBFBFB"/>
								<stop  offset="1" style="stop-color:#FFFFFF"/>
							</radialGradient>
							<polygon class="st22" points="28.1,67.8 -9.4,35.1 21.8,-0.7 59.3,32.1 							"/>
						</g>
					</g>
				</g>
			</g>
		</g>
		<path class="st0" d="M11.6,16.7l0.9-0.1c3.5,0.6,33.1,5.5,35.7,5.9l0.8-1.1l0.5,0.1L48.3,23L11.6,16.7z"/>
		<g class="st23">
			<g>
				<g>
					<defs>
						<rect id="SVGID_58_" x="23.7" y="28.3" width="24.5" height="16.5"/>
					</defs>
					<clipPath id="SVGID_59_">
						<use xlink:href="#SVGID_58_"  style="overflow:visible;"/>
					</clipPath>
					<g class="st24">
						<g>
							<defs>
								<path id="SVGID_60_" d="M29,31.5l9.2,1.6l-0.4,0.4c-2.8,2.9-4,3.2-8.1,3.3c-1.1,0-2.4,0-3.4,0c-0.2,0-1.1,0-1.6,0
									c-0.6,1.3-0.9,2.8-0.9,4.2c0,1.3,0.3,2.6,0.7,3.8c4.9,0,9.7-0.2,14.1-0.4c4.5-0.2,6-0.3,7.2-1.1c1.3-0.8,2-1.8,2.1-4.8
									c0-1.2,0.1-2.1,0.1-2.9c0-0.6,0.1-1.3,0.1-2.1c0-0.9,0.1-2,0.1-2.8l0,0L35,28.3C32.7,29.1,30.7,30.2,29,31.5"/>
							</defs>
							<clipPath id="SVGID_61_">
								<use xlink:href="#SVGID_60_"  style="overflow:visible;"/>
							</clipPath>
							
								<radialGradient id="SVGID_62_" cx="-3125.8589" cy="-128.1608" r="1.3402" gradientTransform="matrix(-15.0962 -4.1507 4.1507 -15.0962 -46609.7461 -14864.0088)" gradientUnits="userSpaceOnUse">
								<stop  offset="0" style="stop-color:#000000"/>
								<stop  offset="0.1078" style="stop-color:#2F3030"/>
								<stop  offset="0.2354" style="stop-color:#606161"/>
								<stop  offset="0.3619" style="stop-color:#898A8B"/>
								<stop  offset="0.4847" style="stop-color:#A8AAAB"/>
								<stop  offset="0.6028" style="stop-color:#BFC1C2"/>
								<stop  offset="0.7141" style="stop-color:#CCCECF"/>
								<stop  offset="0.8118" style="stop-color:#D1D3D4"/>
								<stop  offset="0.9125" style="stop-color:#ECEDED"/>
								<stop  offset="1" style="stop-color:#FFFFFF"/>
							</radialGradient>
							<polygon class="st25" points="46.5,51.1 19.5,43.6 25.4,22 52.4,29.5 							"/>
						</g>
					</g>
				</g>
			</g>
		</g>
		<polygon class="st12" points="48.3,27.1 48.8,27 48.8,22.4 48.3,23 		"/>
		<polygon class="st26" points="48.3,27.1 48.8,27 49.5,27.3 49.5,27.6 		"/>
		<polygon class="st27" points="49.5,21.4 48.8,22.4 48.8,27 49.5,27.3 		"/>
	</g>
</g>
</svg>
