<?xml version="1.0" encoding="utf-8"?>
<!-- Generator: Adobe Illustrator 25.2.0, SVG Export Plug-In . SVG Version: 6.00 Build 0)  -->
<svg version="1.1" id="layer" xmlns="http://www.w3.org/2000/svg" xmlns:xlink="http://www.w3.org/1999/xlink" x="0px" y="0px"
	 viewBox="0 0 50 50" style="enable-background:new 0 0 50 50;" xml:space="preserve">
<style type="text/css">
	.st0{fill:#FFFFFF;}
	.st1{clip-path:url(#SVGID_2_);fill:url(#SVGID_3_);}
	.st2{clip-path:url(#SVGID_5_);fill:url(#SVGID_6_);}
	.st3{clip-path:url(#SVGID_8_);fill:url(#SVGID_9_);}
	.st4{clip-path:url(#SVGID_11_);fill:url(#SVGID_12_);}
	.st5{clip-path:url(#SVGID_14_);fill:url(#SVGID_15_);}
	.st6{clip-path:url(#SVGID_17_);}
	.st7{clip-path:url(#SVGID_19_);fill:url(#SVGID_20_);}
	.st8{clip-path:url(#SVGID_22_);}
	.st9{clip-path:url(#SVGID_24_);fill:url(#SVGID_25_);}
	.st10{fill:#A7A9AC;}
	.st11{clip-path:url(#SVGID_27_);fill:url(#SVGID_28_);}
	.st12{fill:#939598;}
	.st13{clip-path:url(#SVGID_30_);fill:url(#SVGID_31_);}
	.st14{clip-path:url(#SVGID_33_);fill:url(#SVGID_34_);}
	.st15{clip-path:url(#SVGID_36_);fill:url(#SVGID_37_);}
	.st16{clip-path:url(#SVGID_39_);fill:url(#SVGID_40_);}
	.st17{clip-path:url(#SVGID_42_);fill:url(#SVGID_43_);}
	.st18{clip-path:url(#SVGID_45_);fill:url(#SVGID_46_);}
	.st19{clip-path:url(#SVGID_48_);fill:url(#SVGID_49_);}
	.st20{clip-path:url(#SVGID_51_);fill:url(#SVGID_52_);}
	.st21{clip-path:url(#SVGID_54_);}
	.st22{clip-path:url(#SVGID_56_);fill:url(#SVGID_57_);}
	.st23{opacity:0.1;}
	.st24{clip-path:url(#SVGID_59_);}
	.st25{clip-path:url(#SVGID_61_);fill:url(#SVGID_62_);}
	.st26{fill:#808285;}
	.st27{fill:#414042;}
	.st28{fill:#000C0A;}
	.st29{fill:#009036;}
</style>
<g>
	<path class="st28" d="M25,50c13.8,0,25-11.2,25-25C50,11.2,38.8,0,25,0C11.2,0,0,11.2,0,25C0,38.8,11.2,50,25,50z"/>
	<path class="st0" d="M25,49.4c13.5,0,24.4-10.9,24.4-24.4C49.4,11.6,38.5,0.6,25,0.6C11.6,0.6,0.7,11.6,0.7,25S11.6,49.4,25,49.4
		L25,49.4z"/>
	<path class="st28" d="M25,48.6c13,0,23.6-10.6,23.6-23.6C48.7,11.9,38.1,1.4,25,1.4C12,1.4,1.4,11.9,1.4,25C1.4,38,12,48.6,25,48.6
		L25,48.6z"/>
	<path class="st0" d="M25,39.8c8.2,0,14.8-6.6,14.8-14.8c0-8.2-6.6-14.8-14.8-14.8c-8.2,0-14.8,6.6-14.8,14.8
		C10.2,33.1,16.9,39.8,25,39.8L25,39.8z M27.7,3.7c0.6,0.9,0.7,2.1,0.5,3.2c-0.2,1-1,1.6-1.9,1.9C25,9,23.4,9.3,22.1,8
		c-0.7-1-0.7-2.2-0.4-3.4c0.3-1.3,1.9-1.7,3.1-1.8C25.9,2.8,27,3,27.7,3.7L27.7,3.7z"/>
	<path class="st28" d="M26.2,4.8c0.1,0.8,0.3,2-0.3,2.7c-0.5,0.4-1.3,0.5-1.8,0.2C23.4,7,23.5,6,23.6,5.1c0.1-0.5,0.4-1.1,1-1.1
		C25.2,3.9,26,4.1,26.2,4.8L26.2,4.8z"/>
	<path class="st0" d="M38.3,7.8c0.4,1.1,0,2-0.5,2.9c-0.4,0.8-1.6,1.4-2.3,1.3c-1.4-0.3-2.6-1.1-4-2l2.8-5
		C35.6,5.8,37.4,6.2,38.3,7.8L38.3,7.8z"/>
	<path class="st28" d="M36.6,8c0.1,0.8-0.3,1.7-1,2.2c-0.7,0.5-2.1-0.5-2.1-0.5l1.6-2.9C35.7,7.2,36.4,7.4,36.6,8L36.6,8z"/>
	<path class="st0" d="M7.9,12.8c-0.5,0.6-1.1,1.1-1.2,1.9c0,0.3,0.2,0.6,0.5,0.5c0.9-0.7,1.8-2.2,3-1.9c0.6,0,1.2,0.6,1.4,1.1
		c0.4,1.6-0.8,2.9-1.8,4l-1-0.6c0.7-0.6,1.8-1.6,1.3-2.6c-1.4-0.7-1.6,1.8-3,1.8c-0.6,0-1.5-0.4-1.7-1.1c0,0-0.1-0.4-0.1-0.7
		c0-0.5,0.2-1,0.4-1.5c0.3-0.4,0.5-0.8,0.5-0.8l0.8-0.9L7.9,12.8L7.9,12.8z M5.4,14.3c-0.2,0-0.5,0.1-0.8,0.1c0-0.2,0.2-0.6,0.2-0.6
		l0.7-0.1l-0.3-0.6c0.2-0.2,0.3-0.5,0.4-0.7L6,13.1L5.4,14.3L5.4,14.3z M44.9,15.4l-4.3,4.8l-0.8-1.8l1-1l-1.2-2l-1.3,0.3l-1-1.4
		l6.3-1.1L44.9,15.4L44.9,15.4z"/>
	<path class="st28" d="M41.5,16.6l-0.8-1.4l2.7-0.5L41.5,16.6L41.5,16.6z"/>
	<path class="st0" d="M16,44.3l-1.3-0.8l0.3-0.9l-1.2-0.9l-0.9,0.6c-0.3-0.3-0.7-0.6-1-0.9l3.4-2.6l1.8,1.1L16,44.3L16,44.3z
		 M37,40.8c0.3,0.7,0.1,1.5-0.5,1.9c-0.7,0.7-1.5,1.1-2.5,1.1c-0.9-0.1-1.6-1-1.8-1.7c-0.2-0.7-0.2-1.5,0.3-1.9
		c0.7-0.6,1.4-1,2.4-1.1C35.8,39,36.6,40,37,40.8L37,40.8z"/>
	<path class="st28" d="M15.4,41.7l-0.8-0.6l1.2-1L15.4,41.7L15.4,41.7z M35.7,41.4c0.3,0.6,0,1.2-0.7,1.3c-0.9,0.2-1.2-0.8-1.5-1.3
		c-0.3-0.5,0.1-1.2,0.7-1.3C35,39.9,35.3,40.9,35.7,41.4L35.7,41.4z"/>
	<path class="st0" d="M20.7,44.4c0,0.5,0.8,0.8,1.1,0.3c0.1-0.3,0.4-1.9,0.6-2.9c0.5,0.1,1,0.2,1.3,0.3c-0.1,0.7-0.2,2.8-1.1,3.6
		c-0.6,0.5-1.6,0.2-2.2,0C19,45.1,19.2,44,19.2,44l0.6-2.7l1.3,0.3L20.7,44.4z M28.7,42.5l0.6,3.1L28,45.9l-0.6-3.2L26.3,43l-0.2-1
		l3.6-0.8l0.3,1L28.7,42.5z"/>
	<path class="st29" d="M27.6,12.6c3.8,4,5.8,9.5,4.2,15.3c0,0-0.5,1.4-0.6,1.9c-0.1,0.6-0.1,1-0.1,1c0.2,0.4,0.7,0.5,1.1,0.4
		c0.4-0.4-0.3-0.8,0.1-1.3c1.8-0.2,3.3,1.1,4.7,2.3c-1.2,1.4-3,2.8-4.8,2.4c-0.3-0.4,0.6-0.8,0-1.2l-13.4,0c-0.4,0-1.1,1.2-1.5,1.3
		c-0.6,0.1-1.6,0.1-1.8,0c-0.6-0.6-0.7-1.5-1.1-2.1c-0.4-0.8-2-1.6-1.8-2.2c0.1-0.2,3.3-0.7,5.4,0c0.8,0.3,1.6,1.1,2.4,0.8
		c0,0,0.1,0,0.2-0.2c0.2-2.5-1.6-5.3-4.3-6.6c-0.8-0.4-1.3-0.5-2.1-0.4c-0.8,0-1.6,0.1-2.2-0.3c-0.5-0.3-0.4-1.5,0-2.7
		c0.2-0.5,0.4-1.1,0.6-1.5c1.1-2.4,4.5,0.2,5,0.4c0.6,0.3,1.2,1,1.4,0.1c0-0.5-1.1-1.1-1.8-1.4c-2-1.1-3.3-0.8-2.7-2.1
		c0.2-0.4,0.8-1.2,1.7-2c0.9-0.8,2.1-1.6,2.9-1.7c1.5-0.2,3.1,2,3.1,2l1.9,2.1c0.4,0.2,0.6,0,0.6-0.2c0.1-0.3-0.2-0.7-0.2-0.7
		s-0.9-1.1-1.4-1.6c-0.5-0.5-1.8-1.8-1.8-1.8c-0.5-0.9,0.5-1.2,1-1.3C24.2,11.5,26.2,11,27.6,12.6L27.6,12.6z"/>
	<path class="st0" d="M27.6,30.1c1.1,0,2-0.9,2-2s-0.9-2.1-2-2.1c-1.1,0-2,0.9-2,2.1C25.6,29.2,26.5,30.1,27.6,30.1z M16,7.9
		c1,0.6,2.3,1.1,3.4,1.8l-1.8,0.8L14.5,9l0-3.3l1.6-0.8C16.3,5.7,16,6.9,16,7.9L16,7.9z M14.7,12.5l-3.2-4.8l1.3-1l3.2,4.8
		L14.7,12.5z"/>
</g>
</svg>
