<svg width="50" height="50" viewBox="0 0 50 50" fill="none" xmlns="http://www.w3.org/2000/svg">
<path fill-rule="evenodd" clip-rule="evenodd" d="M35.4434 6.00195C40.6 9.33991 48.01 19.7534 50 25.5119C48.0117 31.2769 40.6016 41.6775 35.4434 45.03V6.00195Z" fill="#F2CB59"/>
<path fill-rule="evenodd" clip-rule="evenodd" d="M24.4399 13.4005C27.1281 13.4005 30.5583 14.47 33.2579 16.4003V4.65839C30.5648 2.98213 27.3011 2 23.4748 2C10.4992 2 0 12.5268 0 25.5129C0 38.5137 10.4992 49 23.4748 49C27.3011 49 30.5648 48.0535 33.2579 46.3756V34.6013C30.5583 36.53 27.1281 37.6286 24.4399 37.6286C17.1333 37.6286 11.7665 32.2843 11.7665 25.5146C11.7665 18.7124 17.1333 13.4005 24.4399 13.4005Z" fill="#B0B2B4"/>
</svg>
