<svg width="50" height="50" viewBox="0 0 50 50" fill="none" xmlns="http://www.w3.org/2000/svg">
<path d="M23.4331 40.3206C20.8111 38.6571 18.8803 32.9156 18.8803 26.0946C18.8803 25.8443 18.8814 25.5972 18.8876 25.3511L18.8907 25.3542C11.5992 24.1935 6.33028 21.0122 6.19579 17.2511L6.17389 17.2944C4.38907 19.5409 3.37052 22.1381 3.37052 24.9054C3.37052 33.0487 12.1935 39.7207 23.3851 40.3111L23.4331 40.3206ZM0 25.5C0 16.3881 11.1927 9 25 9C38.8073 9 50 16.3881 50 25.5C50 34.6119 38.8073 42 25 42C11.1927 42 0 34.6119 0 25.5ZM25 11.3807C27.6658 11.3807 29.9322 15.4766 30.7725 21.1928L30.7756 21.1844C35.9612 20.3669 39.5924 18.4794 39.5924 16.2846C39.5924 13.3378 33.0588 10.9529 25 10.9529C16.9412 10.9529 10.4076 13.3389 10.4076 16.2846C10.4076 18.4794 14.0377 20.3658 19.2244 21.1844L19.2275 21.1928C20.0678 15.4777 22.3353 11.3807 25 11.3807ZM26.6138 40.3111C37.8055 39.7207 46.6295 33.0487 46.6295 24.9054C46.6295 22.1381 45.6099 19.5409 43.8261 17.2944L43.8042 17.2511C43.6697 21.0122 38.4018 24.1935 31.1093 25.3542L31.1124 25.3511C31.1176 25.5972 31.1197 25.8443 31.1197 26.0946C31.1197 32.9156 29.1868 38.6571 26.5669 40.3206L26.6138 40.3111ZM25 21.6174C26.1947 21.6174 27.3551 21.5656 28.4654 21.4664L28.4643 21.4674C27.9118 17.8034 26.569 15.2179 25 15.2179C23.431 15.2179 22.0892 17.8034 21.5357 21.4674L21.5346 21.4664C22.6449 21.5656 23.8053 21.6174 25 21.6174ZM25 35.1854C27.0069 35.1854 28.6437 30.9542 28.7312 25.6479L28.7417 25.651C27.5323 25.7641 26.2813 25.8243 25 25.8243C23.7187 25.8243 22.4677 25.7651 21.2583 25.651L21.2698 25.6479C21.3563 30.9553 22.9931 35.1854 25 35.1854Z" fill="#FF0000"/>
</svg>
