<?xml version="1.0" encoding="utf-8"?>
<!-- Generator: Adobe Illustrator 25.2.0, SVG Export Plug-In . SVG Version: 6.00 Build 0)  -->
<svg version="1.1" id="layer" xmlns="http://www.w3.org/2000/svg" xmlns:xlink="http://www.w3.org/1999/xlink" x="0px" y="0px"
	 viewBox="0 0 50 50" style="enable-background:new 0 0 50 50;" xml:space="preserve">
<style type="text/css">
	.st0{fill:#FFFFFF;}
	.st1{clip-path:url(#SVGID_2_);fill:url(#SVGID_3_);}
	.st2{clip-path:url(#SVGID_5_);fill:url(#SVGID_6_);}
	.st3{clip-path:url(#SVGID_8_);fill:url(#SVGID_9_);}
	.st4{clip-path:url(#SVGID_11_);fill:url(#SVGID_12_);}
	.st5{clip-path:url(#SVGID_14_);fill:url(#SVGID_15_);}
	.st6{clip-path:url(#SVGID_17_);}
	.st7{clip-path:url(#SVGID_19_);fill:url(#SVGID_20_);}
	.st8{clip-path:url(#SVGID_22_);}
	.st9{clip-path:url(#SVGID_24_);fill:url(#SVGID_25_);}
	.st10{fill:#A7A9AC;}
	.st11{clip-path:url(#SVGID_27_);fill:url(#SVGID_28_);}
	.st12{fill:#939598;}
	.st13{clip-path:url(#SVGID_30_);fill:url(#SVGID_31_);}
	.st14{clip-path:url(#SVGID_33_);fill:url(#SVGID_34_);}
	.st15{clip-path:url(#SVGID_36_);fill:url(#SVGID_37_);}
	.st16{clip-path:url(#SVGID_39_);fill:url(#SVGID_40_);}
	.st17{clip-path:url(#SVGID_42_);fill:url(#SVGID_43_);}
	.st18{clip-path:url(#SVGID_45_);fill:url(#SVGID_46_);}
	.st19{clip-path:url(#SVGID_48_);fill:url(#SVGID_49_);}
	.st20{clip-path:url(#SVGID_51_);fill:url(#SVGID_52_);}
	.st21{clip-path:url(#SVGID_54_);}
	.st22{clip-path:url(#SVGID_56_);fill:url(#SVGID_57_);}
	.st23{opacity:0.1;}
	.st24{clip-path:url(#SVGID_59_);}
	.st25{clip-path:url(#SVGID_61_);fill:url(#SVGID_62_);}
	.st26{fill:#808285;}
	.st27{fill:#414042;}
	.st28{fill:#000C0A;}
	.st29{fill:#009036;}
	.st30{fill-rule:evenodd;clip-rule:evenodd;fill:#295CA7;}
	.st31{fill:#323232;}
</style>
<path class="st31" d="M25,0C11.2,0,0,11.2,0,25s11.2,25,25,25s25-11.2,25-25S38.8,0,25,0z M44.9,35.8h-8c0.7-2.9,1.1-6.1,1.2-9.5
	h9.4C47.4,29.7,46.4,32.9,44.9,35.8z M2.4,26.3h9.4c0.1,3.4,0.5,6.6,1.2,9.5h-8C3.6,32.9,2.6,29.7,2.4,26.3z M5.1,14.2h8
	c-0.7,3-1.2,6.3-1.2,9.8H2.4C2.6,20.4,3.5,17.1,5.1,14.2z M26,11.8V2.5c3.1,0.7,5.9,4.2,7.7,9.4H26z M34.4,14.2
	c0.8,2.9,1.3,6.3,1.3,9.8H26v-9.8H34.4z M23.7,2.5v9.3h-7.4C18,6.9,20.7,3.4,23.7,2.5z M23.7,14.2V24h-9.5c0.1-3.5,0.6-6.8,1.3-9.8
	H23.7z M14.2,26.3h9.4v9.5h-8.1C14.8,32.9,14.3,29.7,14.2,26.3z M23.7,38.2v9.3c-3-0.8-5.7-4.3-7.4-9.3H23.7z M26,47.5v-9.4h7.7
	C31.9,43.3,29.2,46.9,26,47.5z M26,35.8v-9.5h9.7c-0.1,3.4-0.6,6.6-1.3,9.5H26z M38.1,24c-0.1-3.5-0.5-6.8-1.2-9.8h8
	c1.6,2.9,2.6,6.2,2.7,9.8H38.1z M43.4,11.8h-7.1c-1.1-3.5-2.7-6.4-4.5-8.5C36.5,4.9,40.5,7.9,43.4,11.8z M18.3,3.4
	c-1.9,2.1-3.4,5-4.5,8.5H6.6C9.5,7.9,13.5,4.9,18.3,3.4z M6.6,38.2h7.1c1.1,3.5,2.7,6.4,4.5,8.5C13.5,45.1,9.5,42.1,6.6,38.2z
	 M31.7,46.6c1.9-2.1,3.4-5,4.5-8.5h7.1C40.5,42.1,36.5,45.1,31.7,46.6z"/>
</svg>
