<?xml version="1.0" encoding="utf-8"?>
<!-- Generator: Adobe Illustrator 25.2.0, SVG Export Plug-In . SVG Version: 6.00 Build 0)  -->
<svg version="1.1" id="layer" xmlns="http://www.w3.org/2000/svg" xmlns:xlink="http://www.w3.org/1999/xlink" x="0px" y="0px"
	 viewBox="0 0 50 50" style="enable-background:new 0 0 50 50;" xml:space="preserve">
<style type="text/css">
	.st0{fill:#FFFFFF;}
	.st1{clip-path:url(#SVGID_2_);fill:url(#SVGID_3_);}
	.st2{clip-path:url(#SVGID_5_);fill:url(#SVGID_6_);}
	.st3{clip-path:url(#SVGID_8_);fill:url(#SVGID_9_);}
	.st4{clip-path:url(#SVGID_11_);fill:url(#SVGID_12_);}
	.st5{clip-path:url(#SVGID_14_);fill:url(#SVGID_15_);}
	.st6{clip-path:url(#SVGID_17_);}
	.st7{clip-path:url(#SVGID_19_);fill:url(#SVGID_20_);}
	.st8{clip-path:url(#SVGID_22_);}
	.st9{clip-path:url(#SVGID_24_);fill:url(#SVGID_25_);}
	.st10{fill:#A7A9AC;}
	.st11{clip-path:url(#SVGID_27_);fill:url(#SVGID_28_);}
	.st12{fill:#939598;}
	.st13{clip-path:url(#SVGID_30_);fill:url(#SVGID_31_);}
	.st14{clip-path:url(#SVGID_33_);fill:url(#SVGID_34_);}
	.st15{clip-path:url(#SVGID_36_);fill:url(#SVGID_37_);}
	.st16{clip-path:url(#SVGID_39_);fill:url(#SVGID_40_);}
	.st17{clip-path:url(#SVGID_42_);fill:url(#SVGID_43_);}
	.st18{clip-path:url(#SVGID_45_);fill:url(#SVGID_46_);}
	.st19{clip-path:url(#SVGID_48_);fill:url(#SVGID_49_);}
	.st20{clip-path:url(#SVGID_51_);fill:url(#SVGID_52_);}
	.st21{clip-path:url(#SVGID_54_);}
	.st22{clip-path:url(#SVGID_56_);fill:url(#SVGID_57_);}
	.st23{opacity:0.1;}
	.st24{clip-path:url(#SVGID_59_);}
	.st25{clip-path:url(#SVGID_61_);fill:url(#SVGID_62_);}
	.st26{fill:#808285;}
	.st27{fill:#414042;}
	.st28{fill:#000C0A;}
	.st29{fill:#009036;}
	.st30{fill-rule:evenodd;clip-rule:evenodd;fill:#295CA7;}
</style>
<g>
	<path class="st30" d="M24.8,30.1L20,42.7l0,0.4c1.6,0.5,3.3,0.7,5,0.7c1.6,0,3.2-0.2,4.7-0.6l-0.1-0.5L24.8,30.1z"/>
	<path class="st30" d="M34.4,8.8l-5.5,15.1h-7.7L15.7,8.7c-2,1.2-3.8,2.7-5.3,4.5v0l7.8,20.3l2.9-7.4h7.5l2.9,7.4L39.4,13
		C38,11.3,36.3,9.9,34.4,8.8z"/>
	<path class="st30" d="M29.8,6.9c-1.5-0.4-3.2-0.6-4.8-0.6c-1.6,0-3.2,0.2-4.7,0.6L25.1,20L29.8,6.9z"/>
	<path class="st30" d="M6.3,25c0,7,3.9,13.2,9.8,16.4l0,0L7.3,18.8C6.6,20.7,6.3,22.8,6.3,25z"/>
	<path class="st30" d="M25,0L25,0C11.2,0,0,11.2,0,25c0,13.7,11.2,25,25,25s25-11.2,25-25C50,11.2,38.8,0,25,0z M25,46.8
		C13,46.8,3.2,37,3.2,25C3.2,13,13,3.2,25,3.2v0C37,3.2,46.8,13,46.8,25C46.8,37,37,46.8,25,46.8z"/>
	<path class="st30" d="M42.5,18.4l-8.9,23.2c6-3.1,10.1-9.4,10.1-16.6C43.7,22.7,43.3,20.4,42.5,18.4z"/>
</g>
</svg>
