<svg width="41" height="45" viewBox="0 0 41 45" fill="none" xmlns="http://www.w3.org/2000/svg">
<g id="round-place-24px">
<path id="Shape" fill-rule="evenodd" clip-rule="evenodd" d="M8.50729 16.5938C8.50729 9.45844 13.8329 3.6875 20.4175 3.6875C27.0021 3.6875 32.3277 9.45844 32.3277 16.5938C32.3277 24.2822 24.8072 34.8838 21.7276 38.9216C21.047 39.8066 19.805 39.8066 19.1244 38.9216C16.0277 34.8838 8.50729 24.2822 8.50729 16.5938ZM16.1638 16.5938C16.1638 19.1381 18.0695 21.2031 20.4175 21.2031C22.7655 21.2031 24.6711 19.1381 24.6711 16.5938C24.6711 14.0494 22.7655 11.9844 20.4175 11.9844C18.0695 11.9844 16.1638 14.0494 16.1638 16.5938Z" fill="#1D3973"/>
</g>
</svg>
